<?xml version="1.0" encoding="utf-8"?>
<!-- Generator: Adobe Illustrator 16.0.0, SVG Export Plug-In . SVG Version: 6.00 Build 0)  -->
<!DOCTYPE svg PUBLIC "-//W3C//DTD SVG 1.1//EN" "http://www.w3.org/Graphics/SVG/1.1/DTD/svg11.dtd">
<svg version="1.1" id="圖層_1" xmlns="http://www.w3.org/2000/svg" xmlns:xlink="http://www.w3.org/1999/xlink" x="0px" y="0px"
	 width="1842.52px" height="1417.322px" viewBox="0 0 1842.52 1417.322" enable-background="new 0 0 1842.52 1417.322"
	 xml:space="preserve">
<g>
	<g>
		<defs>
			<path id="SVGID_1_" d="M1778.985,576.756c0,25.239-20.461,45.699-45.7,45.699H968.842c-25.24,0-45.7-20.46-45.7-45.699V68.844
				c0-25.239,20.46-45.699,45.7-45.699h764.442c25.239,0,45.7,20.46,45.7,45.699V576.756z"/>
		</defs>
		<clipPath id="SVGID_2_">
			<use xlink:href="#SVGID_1_"  overflow="visible"/>
		</clipPath>
		<g clip-path="url(#SVGID_2_)">
			
				<image overflow="visible" width="1563" height="9315" xlink:href="2123F943.jpg"  transform="matrix(0.7371 0 0 0.7371 785.3608 -3387.73)">
			</image>
		</g>
	</g>
	<path fill="#E6F0F9" d="M1351.063,586.733c0,19.729-21.106,35.723-47.146,35.723h-333.63c-26.037,0-47.146-15.994-47.146-35.723
		v-54.75c0-19.729,21.108-35.724,47.146-35.724h333.63c26.039,0,47.146,15.995,47.146,35.724V586.733z"/>
</g>
<image overflow="visible" width="3087" height="2895" xlink:href="2123F941.png"  transform="matrix(0.24 0 0 0.24 56.71 -83.0601)">
</image>
<g>
	<defs>
		<path id="SVGID_3_" d="M1804.579,776.801c0-70.955-39.03-128.475-87.178-128.475H1180.27c-48.147,0-87.178,57.52-87.178,128.475
			v489.039c0,70.953,39.03,128.476,87.178,128.476h537.131c48.147,0,87.178-57.522,87.178-128.476V776.801z"/>
	</defs>
	<clipPath id="SVGID_4_">
		<use xlink:href="#SVGID_3_"  overflow="visible"/>
	</clipPath>
	<g clip-path="url(#SVGID_4_)">
		
			<image overflow="visible" width="763" height="800" xlink:href="頭套.jpg"  transform="matrix(-0.9325 0 0 0.9325 1804.5786 648.3262)">
		</image>
	</g>
</g>
<path fill="none" stroke="#F1BE95" stroke-width="14" stroke-miterlimit="10" d="M1093.092,779.424
	c0-70.196,39.03-127.101,87.178-127.101h537.131c48.147,0,87.178,56.904,87.178,127.101v483.794
	c0,70.195-39.03,127.101-87.178,127.101H1180.27c-48.147,0-87.178-56.905-87.178-127.101V779.424z"/>
<path fill="none" stroke="#F1BE95" stroke-width="13" stroke-miterlimit="10" d="M923.142,125.877
	c0-102.732,0-102.732,104.865-102.732h646.111c91.134,0,104.866-8.272,104.866,102.732v391.039
	c0,102.732-6.043,102.732-104.866,102.732h-646.111c-119.567,2.807-104.865,13.667-104.865-102.732V125.877z"/>
<path fill="none" stroke="#F1BE95" stroke-width="14" stroke-miterlimit="10" d="M59.21,123.583
	c0-53.076,40.368-96.101,90.166-96.101h555.535c49.798,0,90.166,43.025,90.166,96.101v365.798c0,53.074-40.368,96.101-90.166,96.101
	H149.375c-49.798,0-90.166-43.026-90.166-96.101V123.583z"/>
<path fill="#F9EACB" d="M149.515,1373.335c0,0-96.113,117.393-96.388,156.391s295.392,44.998,295.392,44.998l13.458-159.751
	C361.978,1414.973,160.283,1359.835,149.515,1373.335z"/>
<g>
	<path fill="#F9EACB" d="M427.859,1213.278c5.664-9.906,10.43-20.278,6.971-31.955c-1.704-5.746,0.127-10.73,4.192-14.882
		c6.335-6.458,14.432-11.604,19.777-18.971c5.563-7.664,6.453-16.88,6.759-26.051c0,0,0.54-15.277-4.354-27.619
		c0,0,34.083-61.871-5.074-154.646c0,0-8.97-4.662-20.034,7.1c0,0-49.059,45.478-72.04,92.082c0,0-21.475,32.275-29.125,33.033
		c-15.587,1.541-31.15-4.188-46.732-4.707c-15.45-0.515-29.127,5.327-43.971,7.312c-7.497,1.008-5.904-1.058-9.621-6.654
		c-3.762-5.657-9.648-9.608-13.581-15.264c-5.185-7.453-10.077-14.764-15.768-21.867c-24.01-29.955-43.732-64.78-72.752-90.51
		c-5.412-4.8-19.685-18.284-26.896-9.113c0,0-37.813,83.597-6.049,160.838c0,0-4.456,15.784,2.201,22.945
		c0,0,1.203,33.304,19.953,33.813c0,0,13.549,20.978,18.226,34.059c4.68,13.077,7.353,61.679,8.082,71.793
		c0.73,10.115-23.988,74.236,34.205,104.378c0,0,23.152,43.933,51.519,47.655c28.366,3.726,38.222,18.534,60.183,11.893
		c21.961-6.645,46.858,17.307,64.649-18.695c0,0,39.484-14.77,44.232-90.501c1.672-26.64,4.84-55.93,16.564-80.369
		C421.77,1223.392,424.938,1218.396,427.859,1213.278z"/>
</g>
<g>
	<path fill="#FFFFFF" d="M243.964,1158.41c2.309-14.898-13.466-31.326-30.605-28.691c-16.663,2.563-22.882,19.252-24.967,32.673
		c-0.816,5.264,14.418,13.055,18.593,14.696c8.576,3.382,17.746,2.652,25.237-1.499
		C238.617,1172.042,242.883,1165.423,243.964,1158.41z"/>
	<path fill="#F1BE95" d="M206.161,1179.182c-0.214-0.083-21.27-8.908-19.993-17.136c3.122-20.097,12.656-32.369,26.847-34.552
		c4.243-0.652,8.524-0.271,12.724,1.133c13.169,4.401,22.341,17.917,20.449,30.127c-1.23,7.985-6.045,15.014-12.876,18.803
		c-7.689,4.262-16.976,5.075-25.479,2.233C207.272,1179.604,206.71,1179.397,206.161,1179.182z M213.7,1131.942
		c-15.496,2.384-21.106,18.063-23.084,30.794c-0.108,0.691,1.101,2.935,6.446,6.487c3.923,2.607,8.644,4.943,10.747,5.771
		c7.686,3.023,16.296,2.52,23.318-1.374c5.54-3.071,9.606-9.03,10.611-15.555c1.571-10.141-6.245-21.433-17.429-25.17
		C220.797,1131.722,217.229,1131.4,213.7,1131.942z"/>
</g>
<g>
	<path fill="none" d="M180.572,1360.064c-49.205-25.938-39.982-75.846-36.035-97.207c0.721-3.902,1.342-7.271,1.24-8.682
		c-0.086-1.194-0.199-2.926-0.339-5.07c-0.984-15.011-3.594-54.887-7.617-66.128c-3.978-11.123-14.719-28.419-17.39-32.644
		c-1.252-0.121-2.467-0.377-3.625-0.766c-14.736-4.926-16.956-29.452-17.253-34.334c-5.888-7.27-3.181-20.336-2.36-23.672
		c-16.301-40.189-13.761-81.931-8.735-109.941c5.469-30.478,15.005-51.771,15.101-51.983c0.075-0.165,0.169-0.32,0.281-0.464
		c2.106-2.678,6.029-5.396,12.763-3.146c6.386,2.134,12.79,7.854,16.616,11.271l0.781,0.696
		c19.643,17.415,35.204,39.151,50.255,60.172c7.317,10.219,14.883,20.786,22.759,30.614c4.766,5.945,8.869,11.884,13.214,18.17
		c0.877,1.269,1.756,2.541,2.645,3.818c1.802,2.591,4.046,4.806,6.42,7.148c2.525,2.491,5.136,5.068,7.188,8.155
		c0.995,1.498,1.629,2.745,2.138,3.746c0.805,1.583,1.014,1.884,1.399,2.013c0.932,0.312,3.174,0.01,3.912-0.089
		c5.51-0.737,10.996-2.05,16.302-3.32c8.918-2.135,18.141-4.341,28.042-4.013c6.661,0.224,13.351,1.381,19.82,2.5
		c8.771,1.517,17.841,3.086,26.614,2.219c4.06-0.401,17.358-16.858,27.396-31.92c22.568-45.674,70.446-90.725,72.403-92.553
		c10.091-10.688,19.027-8.795,21.528-7.959c0.644,0.215,1.028,0.405,1.131,0.459c0.466,0.241,0.832,0.638,1.035,1.122
		c20.426,48.393,20.727,88.317,17.38,113.288c-3.181,23.745-10.005,38.579-11.913,42.374c4.614,12.431,4.162,26.933,4.14,27.554
		c-0.293,8.821-1.115,18.934-7.187,27.296c-3.466,4.776-7.994,8.627-12.374,12.353c-2.593,2.204-5.273,4.484-7.616,6.872
		c-3.822,3.903-5.013,8.047-3.644,12.668c3.812,12.861-1.705,24.145-7.174,33.71c-0.861,1.509-1.743,3.008-2.621,4.499
		c-2.128,3.61-4.138,7.019-5.787,10.453c-11.483,23.935-14.645,52.372-16.349,79.537c-2.49,39.704-14.633,62.651-24.381,74.91
		c-9.081,11.418-17.747,15.971-20.456,17.197c-5.508,10.828-12.261,17.289-20.625,19.734c-7.562,2.21-15.455,0.933-23.089-0.305
		c-7.707-1.248-14.985-2.428-21.927-0.327c-10.672,3.228-18.455,1.563-25.277-0.718c-2.811-0.94-5.607-2.061-8.566-3.246
		c-3.263-1.308-6.636-2.66-10.373-3.908c-5.794-1.937-11.166-3.189-16.908-3.944c-2.174-0.284-4.396-0.804-6.601-1.541
		C202.344,1398.54,183.394,1365.239,180.572,1360.064z M262.408,1411.951c2.898,1.161,5.635,2.257,8.319,3.154
		c6.117,2.046,13.083,3.541,22.549,0.68c7.937-2.402,16.077-1.083,23.949,0.191c15.188,2.461,28.307,4.587,39.336-17.73
		c0.251-0.509,0.692-0.907,1.222-1.108c0.096-0.036,9.624-3.77,19.596-16.433c9.251-11.748,20.784-33.794,23.186-72.104
		c1.733-27.621,4.967-56.574,16.783-81.203c1.733-3.607,3.885-7.26,5.965-10.79c0.869-1.474,1.74-2.954,2.593-4.447
		c5.237-9.159,10.075-19.036,6.766-30.197c-1.824-6.154-0.183-12.064,4.745-17.098c2.487-2.536,5.246-4.882,7.915-7.151
		c4.178-3.554,8.498-7.228,11.648-11.568c5.323-7.333,6.046-16.271,6.33-24.804c0.004-0.149,0.458-14.971-4.197-26.713
		c-0.247-0.623-0.203-1.326,0.121-1.915c0.083-0.151,8.358-15.403,11.888-41.745c3.25-24.266,2.971-63.001-16.696-110.062
		c-2.095-0.639-8.664-1.646-16.691,6.888c-0.035,0.037-0.071,0.072-0.108,0.107c-0.488,0.452-49.023,45.742-71.551,91.428
		c-0.043,0.087-0.09,0.171-0.145,0.252c-0.054,0.08-5.485,8.23-11.788,16.364c-11.87,15.32-16.523,17.417-18.99,17.661
		c-9.383,0.929-18.758-0.694-27.826-2.263c-6.317-1.093-12.853-2.224-19.202-2.435c-9.294-0.31-17.818,1.73-26.844,3.892
		c-5.416,1.295-11.016,2.635-16.751,3.402c-2.852,0.383-4.572,0.354-5.938-0.104c-2.203-0.734-3.068-2.438-3.983-4.239
		c-0.481-0.945-1.025-2.016-1.875-3.296c-1.796-2.7-4.131-5.004-6.602-7.443c-2.416-2.383-4.914-4.849-6.954-7.781
		c-0.89-1.281-1.772-2.558-2.651-3.829c-4.3-6.22-8.359-12.093-13.022-17.915c-7.954-9.923-15.556-20.541-22.908-30.81
		c-14.905-20.817-30.317-42.346-49.581-59.424l-0.793-0.707c-3.333-2.978-9.54-8.52-15.044-10.359
		c-4.391-1.467-6.459,0.052-7.631,1.452c-1.08,2.472-9.608,22.527-14.657,50.668c-4.949,27.583-7.449,68.731,8.753,108.131
		c0.192,0.466,0.222,0.982,0.085,1.467c-1.144,4.053-3.071,15.688,1.684,20.802c0.366,0.395,0.581,0.91,0.601,1.449
		c0.01,0.266,1.136,26.66,14.224,31.036c1.109,0.37,2.301,0.575,3.541,0.609c0.744,0.02,1.426,0.404,1.83,1.028
		c0.56,0.866,13.743,21.349,18.455,34.522c4.234,11.834,6.781,50.737,7.869,67.35c0.14,2.132,0.253,3.853,0.338,5.04
		c0.143,1.986-0.433,5.104-1.305,9.823c-4.102,22.203-12.639,68.407,34.299,92.718c0.407,0.211,0.741,0.542,0.955,0.948
		c0.194,0.369,19.729,36.989,44.063,45.126c1.935,0.646,3.871,1.1,5.76,1.348c6.034,0.793,11.675,2.107,17.75,4.138
		C255.649,1409.243,259.087,1410.62,262.408,1411.951z"/>
</g>
<g>
	<path fill="#F1BE95" d="M242.53,1153.308c0.261-4.743-1.055-9.807-3.288-14.854c-8.063-18.18-29.732-14.936-39.063,0.831
		c-3.565,6.019-5.497,13.532-6.737,20.364c-0.503,2.774,9.216,10.624,11.187,11.891c10.265,6.591,20.019,3.471,29.61-3.578
		C239.802,1163.872,242.227,1158.81,242.53,1153.308z"/>
</g>
<g>
	<path fill="#FFFFFF" d="M332.192,1165.258c-3.497-9.715,7.311-24.809,16.536-29.506c33.469-14.866,39.536,32.758,39.536,32.758
		c-14.999,15.323-32.1,11.229-49.804,3.127C335.122,1170.107,333.137,1167.879,332.192,1165.258z"/>
	<path fill="#F1BE95" d="M337.523,1173.683c-3.726-1.705-6.232-4.284-7.448-7.663c-4.043-11.232,7.908-27.322,17.631-32.273
		c0.036-0.018,0.072-0.035,0.108-0.053c7.384-3.278,14.151-3.932,20.114-1.938c18.509,6.188,22.412,35.237,22.569,36.471
		c0.087,0.684-0.143,1.368-0.625,1.859c-14.441,14.752-30.509,11.646-41.336,8.028c-0.001-0.001-0.001-0.001-0.001-0.001
		C345.209,1177,341.605,1175.552,337.523,1173.683z M366.502,1136.023c-4.85-1.621-10.503-1.028-16.806,1.76
		c-8.161,4.194-18.493,18.079-15.386,26.713c0.791,2.196,2.502,3.91,5.086,5.094c3.936,1.803,7.393,3.193,10.566,4.254
		c15.179,5.073,26.305,3.191,35.904-6.12C385.003,1162.6,380.523,1140.711,366.502,1136.023z"/>
</g>
<g>
	<path fill="#F1BE95" d="M343.23,1113.349c0,0-9.316-2.797-10.619,3.659c-1.303,6.455,6.894,7.484,7.921,4.409
		c1.028-3.073,7.82-6.781,8.077-6.271C348.865,1115.659,343.23,1113.349,343.23,1113.349z"/>
	<path fill="#F1BE95" d="M330.405,1116.562c0.425-2.104,1.564-3.765,3.295-4.803c3.914-2.345,9.547-0.755,10.176-0.566
		c0.071,0.021,0.141,0.046,0.208,0.073c0.025,0.011,2.761,1.131,4.207,1.589c0.298-0.021,0.632,0.002,0.984,0.119
		c0.588,0.197,1.065,0.609,1.348,1.168c0.392,0.784,0.292,1.776-0.254,2.461c-0.347,0.433-0.945,0.882-1.928,0.857
		c-1.611,0.71-5.281,3.196-5.774,4.671c-0.483,1.445-1.725,2.53-3.404,2.976c-1.339,0.354-2.853,0.291-4.263-0.181
		C332.285,1124.019,329.453,1121.283,330.405,1116.562z M342.826,1115.612c-0.146-0.059-0.26-0.104-0.339-0.137
		c-1.2-0.339-4.63-0.962-6.473,0.144c-0.643,0.386-1.022,0.967-1.197,1.833c-0.335,1.657,0.206,2.736,1.608,3.205
		c0.964,0.322,1.784,0.121,1.997-0.026C339.08,1118.762,340.929,1116.985,342.826,1115.612z"/>
</g>
<g>
	<path fill="#F1BE95" d="M236.826,1103.76c3.397-2.106,9.455-2.278,10.989,1.955c2.752,7.604-9.895,7.385-12.631,3.463
		C233.684,1107.026,234.767,1105.038,236.826,1103.76z"/>
	<path fill="#F1BE95" d="M233.338,1110.465c-1.206-1.73-1.209-3.316-0.998-4.339c0.345-1.675,1.486-3.154,3.301-4.278
		c2.833-1.758,6.723-2.274,9.678-1.285c2.218,0.74,3.856,2.299,4.613,4.387c1.307,3.612-0.127,5.824-1.099,6.82
		c-2.588,2.652-7.589,2.821-11.193,1.616l-0.001-0.001C235.708,1112.74,234.222,1111.729,233.338,1110.465z M238.012,1105.673
		c-0.831,0.515-1.197,1.04-1.263,1.361c-0.018,0.087-0.072,0.349,0.281,0.854c0.311,0.447,1.071,0.906,2.035,1.228l0,0
		c2.438,0.815,5.497,0.586,6.546-0.491c0.172-0.176,0.631-0.646,0.089-2.144c-0.292-0.8-0.883-1.342-1.808-1.65
		C242.189,1104.261,239.718,1104.616,238.012,1105.673z"/>
</g>
<g>
	<path fill="#F1BE95" d="M351.004,1190.03c1.036,0.346,2.197-0.105,2.713-1.106c0.567-1.106,0.133-2.462-0.974-3.031
		c-11.902-6.121-17.628-18.531-17.684-18.657c-0.514-1.132-1.847-1.635-2.979-1.121c-1.132,0.512-1.634,1.845-1.122,2.978
		c0.258,0.567,6.443,13.973,19.727,20.804C350.79,1189.949,350.896,1189.993,351.004,1190.03z"/>
</g>
<g>
	<path fill="#F1BE95" d="M305.244,1157.742c0,0-5.697-3.943-5.534-12.452c0.16-8.511-0.824,13.028-5.443,15.1
		C289.65,1162.459,305.244,1157.742,305.244,1157.742z"/>
	<path fill="#F1BE95" d="M291.165,1160.989c-0.082-1.64,1.336-2.274,2.169-2.646c0.469-0.27,2.132-2.052,3.833-13.693
		c0.301-2.056,0.392-2.675,1.336-3.257c0.566-0.35,1.267-0.43,1.897-0.219c1.628,0.544,1.605,1.752,1.561,4.159
		c-0.137,7.112,4.385,10.431,4.564,10.559c0.71,0.491,1.075,1.346,0.941,2.199s-0.745,1.555-1.571,1.806
		c-11.85,3.583-12.403,3.398-13.168,3.143C291.848,1162.746,291.211,1161.914,291.165,1160.989z M299.802,1154.77
		c-0.238,0.882-0.494,1.701-0.769,2.452c0.646-0.185,1.32-0.379,2.007-0.579C300.625,1156.096,300.203,1155.474,299.802,1154.77z"/>
</g>
<g>
	<path fill="#F1BE95" d="M272.028,1343.452c4.071,0.45,7.728-0.384,9.938-3.645c1.367-2.018,2.761-2.483,4.468-2.437
		c9.735,3.259,20.854,0.384,30.019-11.354c-3.032,5.28-12.52,20.218-21.259,17.297c-9.942-3.322-23.321,9.181-36.965-0.937
		c-0.608-1.26-1.101-2.621-1.54-4.016C260.99,1342.811,266.134,1344.033,272.028,1343.452z"/>
	<path fill="#F1BE95" d="M256.889,1344.185c-0.292-0.216-0.527-0.502-0.686-0.829c-0.589-1.219-1.117-2.592-1.661-4.317
		c-0.314-0.997,0.098-2.076,0.994-2.611c0.897-0.534,2.043-0.382,2.77,0.37c3.513,3.631,7.657,4.991,13.501,4.416
		c0.156-0.016,0.313-0.014,0.468,0.004c3.767,0.415,6.329-0.458,7.83-2.671c1.634-2.413,3.667-3.501,6.394-3.424
		c0.221,0.006,0.449,0.048,0.658,0.118c9.697,3.242,19.729-0.625,27.522-10.608c0.728-0.932,2.051-1.144,3.03-0.482
		c0.979,0.659,1.284,1.964,0.695,2.989c-3.813,6.635-13.772,21.703-23.926,18.31c-3.31-1.106-7.326-0.056-11.979,1.16
		c-5.798,1.517-12.371,3.236-19.252,0.937C261.039,1346.807,258.899,1345.677,256.889,1344.185z M286.064,1339.619
		c-0.775,0.013-1.401,0.22-2.235,1.452c-0.15,0.222-0.315,0.448-0.495,0.674c2.228-0.563,4.4-1.044,6.52-1.206
		C288.592,1340.329,287.326,1340.022,286.064,1339.619z M294.834,1340.872c0.359,0.086,0.717,0.188,1.072,0.307
		c2.153,0.72,4.579-0.118,7.047-1.931C300.306,1340.235,297.587,1340.78,294.834,1340.872z"/>
</g>
<g>
	<path fill="#F1BE95" d="M207.479,1342.147c0.789,0.263,1.689,0.075,2.312-0.549c0.835-0.841,0.876-2.188,0.091-3.077
		c-0.139-0.157-9.842-11.279-16.716-27.943c-9.151-22.187-9.229-43.173-0.231-62.375c0.516-1.101,0.064-2.412-1.02-2.963
		c-1.075-0.548-2.409-0.139-2.993,0.929c-0.303,0.552-7.43,13.76-8.88,32.188c-1.344,17.08,2.191,41.938,26.672,63.35
		C206.943,1341.907,207.204,1342.055,207.479,1342.147z"/>
</g>
<g>
	<path fill="#F1BE95" d="M374.817,1267.621c0.146,0.049,0.3,0.082,0.458,0.102c1.063,0.122,2.065-0.521,2.397-1.54
		c0.072-0.224,1.758-5.534,0.526-12.483c-1.135-6.383-5.028-15.432-17.149-22.29c-0.976-0.553-2.214-0.301-2.896,0.593
		c-0.683,0.893-0.603,2.152,0.189,2.951c0.134,0.134,13.494,13.832,14.946,30.726
		C373.368,1266.587,373.98,1267.342,374.817,1267.621z"/>
</g>
<g>
	<path fill="#FFFFFF" d="M207.553,1140.983c0,0-0.761-4.504-5.787-2.358C196.737,1140.771,205.538,1151.678,207.553,1140.983z"/>
	<path fill="#FFFFFF" d="M197.989,1141.174c-0.084-2.082,0.997-3.809,2.893-4.618c1.915-0.817,3.646-0.979,5.15-0.475
		c2.489,0.832,3.522,3.237,3.739,4.526c0.044,0.264,0.042,0.53-0.007,0.792c-0.551,2.921-1.654,4.885-3.283,5.842
		c-1.14,0.669-2.484,0.798-3.787,0.364C200.21,1146.773,198.1,1143.889,197.989,1141.174z M204.203,1143.36
		c0.072-0.049,0.616-0.47,1.032-2.288c-0.106-0.266-0.306-0.614-0.63-0.723c-0.41-0.137-1.122-0.011-1.957,0.346
		c-0.102,0.044-0.139,0.077-0.141,0.076l0,0c-0.024,0.054-0.075,0.378,0.156,0.938c0.342,0.827,1.01,1.476,1.458,1.626
		c0.04,0.014,0.066,0.019,0.076,0.022C204.2,1143.358,204.201,1143.358,204.203,1143.36z"/>
</g>
<g>
	<path fill="#F1BE95" d="M333.662,1150.5c1.471-3.771,4.72-7.345,8.928-10.649c15.174-11.889,36.771-3.23,40.779,11.697
		c1.534,5.699,0.8,12.104-0.411,17.78c-0.493,2.305-13.604,5.674-16.143,6.103c-13.224,2.234-22.334-2.957-29.827-11.163
		C332.643,1159.505,331.955,1154.872,333.662,1150.5z"/>
</g>
<g>
	<path fill="#FFFFFF" d="M374.545,1150.008c0,0-2.587-5.188-5.829-1.95C365.473,1151.3,374.48,1156.296,374.545,1150.008z"/>
	<path fill="#FFFFFF" d="M365.879,1150.622c-0.352-1.497,0.103-3.012,1.247-4.157c2.11-2.105,4.199-1.828,5.257-1.474
		c2.485,0.83,3.916,3.487,4.177,4.011c0.159,0.32,0.239,0.673,0.237,1.028c-0.027,2.493-1.102,3.778-1.998,4.418
		c-1.239,0.882-2.919,1.063-4.608,0.498C368.411,1154.352,366.388,1152.784,365.879,1150.622z M372.245,1150.531
		c-0.35-0.52-0.878-1.135-1.29-1.271c-0.178-0.061-0.542,0.284-0.648,0.391c-0.007,0.006-0.012,0.012-0.019,0.019
		c0.124,0.252,0.608,0.769,1.33,1.01c0.274,0.092,0.465,0.1,0.557,0.091C372.193,1150.727,372.221,1150.649,372.245,1150.531z"/>
</g>
<g>
	<path fill="#FFFFFF" d="M381.038,1159.403c-0.136-1.433-4.399,0.459-0.679,2.338
		C384.083,1163.614,381.511,1164.286,381.038,1159.403z"/>
	<path fill="#FFFFFF" d="M381.614,1165.278c0.001,0,0.001,0,0.002,0c1.025,0.342,2.162-0.096,2.69-1.038
		c0.261-0.468,0.693-1.632-0.514-2.881c-0.148-0.308-0.399-0.982-0.516-2.173c-0.104-1.108-0.831-2.021-1.895-2.376
		c-1.687-0.563-3.855,0.44-4.551,2.107c-0.205,0.491-1.047,3.034,2.514,4.831c0.502,0.253,0.824,0.458,1.017,0.594
		C380.734,1164.818,381.14,1165.12,381.614,1165.278z"/>
</g>
<g>
	<path fill="#F1BE95" d="M187.981,1146.106c0.967,0.323,2.063-0.045,2.625-0.948c14.438-23.228,38.316-16.833,39.326-16.549
		c1.195,0.334,2.438-0.36,2.775-1.555c0.339-1.194-0.348-2.444-1.547-2.776c-0.286-0.081-7.141-1.99-16.036-0.682
		c-8.243,1.215-19.852,5.527-28.343,19.186c-0.655,1.057-0.331,2.443,0.724,3.1C187.659,1145.978,187.819,1146.053,187.981,1146.106
		z"/>
</g>
<g>
	<path fill="#F1BE95" d="M114.326,977.824c1.882-16.276,77.133,59.388,83.344,99.362c0,0-23.795-19.31-28.249-21.956
		c-4.455-2.646,16.622,24.802,14.893,27.313c-1.728,2.512-16.183-2.162-18.441-3.387c-2.261-1.224-4.48,2.755-2.442,7.304
		c2.039,4.55-19.851,27.448-26.123,22.255C131.034,1103.524,100.406,1032.784,114.326,977.824"/>
	<path fill="#F1BE95" d="M136.589,1109.584c-3.575-2.962-12.925-22.883-19.432-47.361c-5.923-22.273-11.409-55.025-3.939-84.606
		c0.158-1.22,0.667-2.112,1.515-2.65c1.075-0.684,2.532-0.704,4.457-0.061c8.555,2.859,27.123,19.72,44.147,40.091
		c20.147,24.105,33.067,46.711,35.445,62.019c0.071,0.46-0.146,0.916-0.551,1.148c-0.404,0.231-0.908,0.19-1.271-0.102
		c-0.206-0.168-18.153-14.725-25.607-20.146c1.244,2.052,3.091,4.857,4.699,7.304c8.029,12.211,10.345,16.283,9.188,17.962
		c-1.867,2.712-10.85,0.208-16.037-1.524c-1.796-0.602-3.207-1.151-3.869-1.511c-0.045-0.024-0.09-0.044-0.136-0.059
		c-0.092-0.031-0.339-0.114-0.691,0.275c-0.836,0.924-1.139,3.212-0.052,5.638c1.384,3.085-4.098,9.637-6.52,12.31
		c-4.829,5.333-14.47,13.871-19.966,12.037c-0.001,0-0.001,0-0.001-0.001C137.459,1110.177,136.994,1109.92,136.589,1109.584z
		 M166.407,1078.169c0.401,0.217,1.561,0.702,3.511,1.353c7.406,2.476,12.377,2.994,13.366,2.456
		c-0.222-1.999-5.763-10.427-9.112-15.521c-6.403-9.736-7.043-10.976-6.226-12.039c0.271-0.351,0.813-0.643,1.521-0.406
		c0.163,0.056,0.337,0.139,0.528,0.252c3.673,2.182,19.792,15.113,25.983,20.109c-3.417-14.81-15.765-35.673-34.369-57.933
		c-16.518-19.764-35.061-36.701-43.134-39.399c-1.171-0.393-2.096-0.455-2.537-0.176c-0.264,0.169-0.431,0.534-0.494,1.09
		c-0.006,0.049-0.015,0.099-0.027,0.146c-13.836,54.625,16.896,125.021,22.606,129.75c0.194,0.159,0.409,0.278,0.658,0.362h0.002
		c3.174,1.061,10.735-3.847,17.586-11.412c4.819-5.322,6.509-9.042,6.134-9.879c-1.563-3.487-0.87-6.627,0.437-8.068
		c0.838-0.927,1.988-1.263,3.073-0.9C166.079,1078.01,166.247,1078.082,166.407,1078.169z"/>
</g>
<g>
	<path fill="#F1BE95" d="M445.227,1092.847c-2.063,6.823-4.695,13.277-8.015,19.135c-5.171,9.133-13.304,19.624-21.384,8.345
		c-3.519-4.912-9.565-29.667-16.573-30.359c-3.76-0.367-6.719,8.427-6.72,8.432c0.701-2.085-22.019-19.217-24.783-21.627
		c12.683-16.225,24.061-33.526,36.893-49.6c8.63-10.811,18.58-20.634,25.686-32.6c2.569-4.327,11.703-27.781,17.023-10.13
		c0.76,2.517-0.622,9.08-0.124,12.36c0.835,5.513,2.442,10.841,3.001,16.423C452.647,1037.287,452.853,1067.604,445.227,1092.847z"
		/>
	<path fill="#F1BE95" d="M414.913,1120.981c-1.25-1.747-2.714-5.606-4.409-10.074c-2.947-7.772-6.982-18.413-10.875-19.715
		c-0.167-0.056-0.325-0.09-0.483-0.104c-1.976-0.193-4.432,4.368-5.545,7.669v0.001c-0.199,0.588-0.834,0.904-1.422,0.707
		c-0.002,0-0.002,0-0.001-0.001c-0.485-0.162-0.785-0.621-0.769-1.107c-1.04-2.269-14.673-13.016-19.846-17.096
		c-2.263-1.783-3.897-3.071-4.552-3.643c-0.449-0.392-0.514-1.068-0.146-1.54c5.96-7.625,11.731-15.627,17.313-23.365
		c6.283-8.711,12.779-17.719,19.585-26.244c2.742-3.434,5.658-6.817,8.478-10.089c6.053-7.022,12.313-14.285,17.119-22.382
		c0.361-0.606,0.894-1.686,1.51-2.933c3.097-6.263,7.775-15.726,12.778-14.052c1.978,0.661,3.54,2.984,4.782,7.104
		c0.463,1.536,0.261,4.057,0.045,6.726c-0.171,2.151-0.35,4.375-0.136,5.79c0.35,2.306,0.848,4.633,1.329,6.883
		c0.664,3.107,1.353,6.32,1.682,9.597c2.179,21.692,3.07,53.189-5.049,80.06c-2.165,7.17-4.896,13.686-8.111,19.363
		c-6.152,10.868-11.811,15.261-17.295,13.428c0,0,0,0-0.002,0.001C418.789,1125.259,416.777,1123.582,414.913,1120.981z
		 M432.889,992.063c-0.662,1.342-1.188,2.402-1.592,3.085c-4.909,8.266-11.234,15.604-17.35,22.7
		c-2.807,3.256-5.708,6.623-8.424,10.025c-6.771,8.481-13.252,17.466-19.519,26.155c-5.385,7.466-10.946,15.176-16.694,22.572
		c0.846,0.684,2.135,1.701,3.647,2.895c11.909,9.389,17.186,13.912,19.353,16.375c1.246-2.85,3.749-7.346,7.055-7.023
		c0.324,0.031,0.652,0.104,0.978,0.211c4.903,1.639,8.813,11.952,12.266,21.051c1.57,4.142,3.055,8.053,4.136,9.562
		c1.581,2.209,3.218,3.607,4.865,4.157v0.001c4.241,1.417,9.161-2.756,14.624-12.402c3.136-5.534,5.798-11.896,7.915-18.905
		c8.012-26.516,7.121-57.695,4.964-79.184c-0.316-3.152-0.991-6.303-1.643-9.352c-0.489-2.282-0.995-4.645-1.354-7.016
		c-0.252-1.672-0.064-4.029,0.119-6.309c0.188-2.344,0.383-4.767,0.043-5.896c-1.313-4.355-2.658-5.391-3.342-5.618
		C439.793,978.098,434.956,987.884,432.889,992.063z"/>
</g>
<path fill="#F1BE95" stroke="#F1BE95" stroke-linecap="round" stroke-linejoin="round" stroke-miterlimit="10" d="M157.746,1342.263
	c0,0-18.358,25.651-9.356,35.9s128.354,46.266,178.921,39.159s22.934-4.048,29.251-19.076c0,0-68.07-0.827-99.873-7.928
	S156.603,1325.307,157.746,1342.263z"/>
<path fill="none" stroke="#F1BE95" stroke-width="14" stroke-miterlimit="10" d="M751.759,799.307H635.463
	c-51.967,0-94.094,48.354-94.094,108v35.771c0,21.795,5.63,42.077,15.304,59.049c-11.451,14.771-25.521,31.706-34.803,38.668
	c-10.788,8.091,26.916,5.401,66.286-4.346c13.899,9.298,30.06,14.629,47.307,14.629h116.296c51.967,0,94.094-48.354,94.094-108
	v-35.771C845.854,847.66,803.726,799.307,751.759,799.307z"/>
<text transform="matrix(1 0 0 1 582.2148 946.2031)" fill="#F1BE95" stroke="#F1BE95" stroke-miterlimit="10" font-family="'HighTowerText-Reg'" font-size="90">want!  </text>
<path fill="#F1BE95" d="M323.703,1290.335c-14.809-3.606-31.304-15.79-46.741-11.351c-9.247,2.658-20.459,5.386-28.757,10.178
	c0,0,13.886,29.383,37.741,28.032c23.854-1.351,41.27-3.517,44.292-23.853C330.237,1293.342,323.703,1290.335,323.703,1290.335z"/>
<g>
	<g>
		<path fill="#F1BE95" d="M256.385,1182.479c3.243-2.805,8-4.954,11.851-6.804c3.861-1.854,7.926-3.308,12.164-3.993
			c8.175-1.325,16.381,0.408,23.788,3.938c7.395,3.521,14.113,8.587,19.873,14.379c5.351,5.372,10.313,11.816,12.124,19.316
			c1.751,7.252-0.243,14.249-2.99,20.963c-0.117,0.277-0.835,2.494-1.051,2.513c-1.815,0.161-4.934-1.482-6.446-2.443
			c-1.395-0.891-2.643-2.049-3.885-3.132c-2.843-2.471-4.914-5.537-5.809-9.238c-0.574-2.378-0.416-4.99,0.138-7.369
			c3.894-16.681-8.751-15.848-11.622-10.625c-2.869,5.22-11.888,19.854,15.741,33.022c0,0-0.045,5.004-0.998,10.001
			c-0.79,0.068-1.591,0.148-2.408,0.287c-6.934,1.18-15.489,2.174-24.15,2.258c-0.23-4.435-2.844-23.369-2.844-23.369
			s-1.565-0.107-2.389,2.134c-1.854,5.035-2.979,20.226-0.456,21.068c0.834,0.279,0.369-2.906,0,0
			c-6.127-0.463-13.84-1.279-18.463-3.09c-0.642-1.774-2.614-4.414-2.579-7c0,0,18.192-25.229,5.638-33.898
			c-12.551-8.671-15.373,10.722-12.206,15.843c3.166,5.126,4.373,18.545-1.965,16.831
			C251.097,1232.357,218.057,1215.622,256.385,1182.479z"/>
		<path fill="#F1BE95" d="M267.731,1244.391c-0.603-0.236-1.073-0.72-1.294-1.329c-0.149-0.412-0.445-0.988-0.762-1.599
			c-0.884-1.714-1.985-3.85-1.951-6.2c0.007-0.461,0.154-0.91,0.424-1.283c3.109-4.313,10.871-17.295,9.46-25.472
			c-0.396-2.29-1.466-4.011-3.275-5.26c-1.016-0.7-1.976-1.205-2.854-1.5c-1.984-0.661-3.416-0.265-4.649,1.291
			c-2.715,3.429-2.927,10.727-1.51,13.019c2.657,4.302,4.382,14.117,1.228,18.345c-1.332,1.787-3.409,2.459-5.695,1.84
			c-0.231-0.063-0.495-0.143-0.785-0.238l0,0c-5.834-1.95-17.47-8.703-19.763-20.301c-2.111-10.673,4.149-22.423,18.608-34.925
			c3.185-2.756,7.502-4.816,11.312-6.635l1.036-0.495c4.472-2.148,8.653-3.519,12.779-4.188c6.249-1.012,12.765-0.406,19.369,1.801
			c1.918,0.643,3.852,1.425,5.745,2.327c7.261,3.457,14.158,8.444,20.503,14.822c6.926,6.957,11.085,13.623,12.715,20.377
			c1.978,8.189-0.455,15.891-3.093,22.336c-0.025,0.067-0.069,0.194-0.125,0.354c-0.751,2.131-1.203,3.418-2.812,3.558
			c-0.9,0.078-1.93-0.081-3.151-0.488c-2.121-0.71-4.135-1.938-4.705-2.302c-1.34-0.855-2.501-1.878-3.624-2.868l-0.526-0.462
			c-3.364-2.925-5.558-6.428-6.52-10.407c-0.767-3.175-0.351-6.325,0.135-8.409c1.396-5.978,0.602-10.091-2.122-11
			c-2.024-0.677-4.53,0.504-5.336,1.97l-0.233,0.421c-1.666,3.003-4.45,8.029-2.588,13.845c1.823,5.696,7.731,10.958,17.558,15.642
			c0.79,0.376,1.29,1.177,1.281,2.051c-0.001,0.214-0.056,5.266-1.036,10.402c-0.189,0.99-1.014,1.734-2.018,1.82
			c-0.702,0.062-1.457,0.136-2.226,0.265c-5.836,0.993-14.825,2.196-24.506,2.289c-1.209,0.013-2.207-0.929-2.27-2.134
			c-0.134-2.591-1.128-10.439-1.899-16.29c-0.704,4.302-0.944,9.748-0.611,12.604c0.046,0.013,0.09,0.024,0.134,0.039
			c1.699,0.569,1.883,2.564,1.47,3.801c-0.175,0.524-0.482,0.973-0.885,1.292c-0.559,0.442-1.27,0.62-1.966,0.505
			c-5.273-0.402-12.791-1.134-17.873-2.832C268.445,1244.659,268.081,1244.526,267.731,1244.391z M285.359,1223.539
			c1.11-3.019,3.447-3.685,4.652-3.602c1.065,0.07,1.931,0.882,2.077,1.938c0.094,0.683,2.057,14.918,2.687,21.388
			c8.581-0.226,16.45-1.293,21.703-2.187c0.289-0.049,0.575-0.092,0.854-0.128c0.399-2.613,0.565-5.083,0.632-6.559
			c-10.204-5.097-16.452-11.042-18.58-17.685c-2.455-7.669,1.188-14.24,2.938-17.398l0.226-0.407
			c1.959-3.563,6.762-5.39,10.708-4.071c2.476,0.828,7.93,4.073,5.078,16.291c-0.373,1.608-0.702,4.012-0.143,6.331
			c0.738,3.052,2.453,5.768,5.102,8.069l0.545,0.479c1.041,0.917,2.023,1.783,3.066,2.448c0.899,0.572,2.412,1.395,3.714,1.829
			c0.058,0.02,0.113,0.038,0.167,0.055c0.051-0.144,0.096-0.268,0.123-0.35c0.1-0.28,0.177-0.491,0.203-0.556
			c2.367-5.787,4.563-12.639,2.885-19.582c-1.431-5.931-5.202-11.902-11.53-18.259c-5.979-6.011-12.455-10.699-19.247-13.934
			c-1.729-0.824-3.491-1.538-5.236-2.121c-5.906-1.975-11.701-2.521-17.222-1.627c-3.694,0.599-7.474,1.842-11.55,3.802
			l-1.048,0.501c-3.554,1.695-7.579,3.617-10.307,5.977c-13.146,11.366-18.91,21.679-17.136,30.648
			c1.961,9.923,12.773,15.566,16.774,16.904c0.196,0.064,0.374,0.119,0.533,0.163c0.644,0.173,0.762,0.015,0.913-0.187
			c1.555-2.084,0.715-9.784-1.45-13.288c-2.433-3.935-2.068-13.282,1.812-18.18c2.412-3.046,5.822-4.027,9.604-2.764
			c1.279,0.427,2.62,1.122,3.985,2.064c2.814,1.944,4.548,4.702,5.152,8.199c1.813,10.509-7.5,24.879-9.771,28.189
			c0.181,1.098,0.825,2.345,1.403,3.468c0.195,0.38,0.387,0.748,0.559,1.11c0.006,0.002,0.011,0.004,0.017,0.006
			c2.934,0.979,7.309,1.742,13.311,2.315C282.787,1237.311,283.891,1227.53,285.359,1223.539z"/>
	</g>
	<g>
		<path fill="#F1BE95" d="M293.77,1271.324c-1.889-3.451-3.899-7.64-3.202-13.839c0.269-2.353,0.562-7.438,0.346-11.507
			c-0.859,0.011-0.154-0.059-1.157-0.073c-0.926-0.06-1.736-0.169-2.776-0.246c-1.177,9.302-7.626,27.96-14.311,32.183
			c2.28-0.446,4.572-0.727,6.872-0.78c0.405-0.062,0.814-0.103,1.222-0.154c0.111-0.212,0.241-0.408,0.34-0.631
			c0.574-1.285,1.613-1.707,2.643-1.571c1.893-1.939,4.514-2.979,7.667-2.431c1.239,0.216,2.405,0.641,3.479,1.225
			c0.087-0.419,0.183-0.835,0.29-1.248C294.469,1272.003,293.985,1271.718,293.77,1271.324z"/>
		<path fill="#F1BE95" d="M295.615,1270.009c-1.776-3.273-3.41-6.938-2.811-12.272c0.26-2.289,0.586-7.539,0.354-11.878
			c-0.063-1.203-1.064-2.145-2.272-2.13c-0.044,0.001-0.083,0.001-0.115,0.001c-0.258-0.052-0.53-0.067-0.923-0.073
			c-0.44-0.03-0.854-0.071-1.282-0.113c-0.446-0.045-0.906-0.091-1.419-0.128c-1.195-0.089-2.25,0.772-2.399,1.962
			c-1.125,8.888-6.806,24.711-12.151,29.669c-0.456,0.736-0.929,1.455-1.421,2.155c-0.04,0.11-0.073,0.223-0.116,0.332
			c0.819,0.779,1.604,1.595,2.326,2.466c1.416-0.268,2.769-0.45,4.09-0.562c0.72-0.278,1.449-0.536,2.185-0.782
			c0.563-0.721,1.052-1.508,1.442-2.379c0.581-1.301,1.638-1.719,2.679-1.567c0.135-0.138,0.258-0.289,0.4-0.417
			c-1.648,0.119-3.268,0.289-4.837,0.523c-0.25,0.006-0.499,0.017-0.749,0.027c4.858-6.996,8.675-18.545,10.142-26.012
			c0.009,3.226-0.202,6.614-0.404,8.4c-0.76,6.736,1.367,11.337,3.433,15.12c1.116,0.232,2.172,0.627,3.149,1.162
			c0.246-1.161,0.541-2.306,0.928-3.413C295.747,1270.064,295.667,1270.032,295.615,1270.009z"/>
	</g>
</g>
<path fill="#F1BE95" d="M291.775,1264.582c0,0,37.846,34.771,60.392,24.157c0,0,9.18-7.74,9.991,2.015
	S326.285,1311.687,291.775,1264.582z"/>
<path fill="#F1BE95" stroke="#F1BE95" stroke-miterlimit="10" d="M275.906,1275.168c-8.218,5.816-27.22,14.281-41.421,4.831
	c-17.215-11.456-16.492,0.118-16.492,0.118c18.715,24.471,48.273,7.546,63.688-4.175
	C279.703,1275.889,277.771,1275.624,275.906,1275.168z"/>
<path fill="#F1BE95" d="M287.5,1270.464c0,0,25.725,23.653,43.026,24.615c17.3,0.962-40.622-30.182-40.622-30.182L287.5,1270.464z"
	/>
</svg>
