<?xml version="1.0" encoding="utf-8"?>
<!-- Generator: Adobe Illustrator 16.0.0, SVG Export Plug-In . SVG Version: 6.00 Build 0)  -->
<!DOCTYPE svg PUBLIC "-//W3C//DTD SVG 1.1//EN" "http://www.w3.org/Graphics/SVG/1.1/DTD/svg11.dtd">
<svg version="1.1" id="圖層_1" xmlns="http://www.w3.org/2000/svg" xmlns:xlink="http://www.w3.org/1999/xlink" x="0px" y="0px"
	 width="230.915px" height="178.99px" viewBox="0 0 230.915 178.99" enable-background="new 0 0 230.915 178.99"
	 xml:space="preserve">
<g>
	<path fill="#F1BF96" stroke="#F1BF96" stroke-miterlimit="10" d="M82.505,60.668c0,0.537-1.03,1.088-3.087,1.655
		c-1.343,0.358-2.476,1.582-3.401,3.668C70.65,77.922,65.847,87.542,61.611,94.85c-0.09,0.179-0.312,0.254-0.67,0.223
		c-0.329-0.028-0.554-0.133-0.673-0.312c-0.716-1.075-2.549-4.816-5.501-11.23c-2.715-5.905-4.176-8.858-4.386-8.858
		c-0.327,0-1.922,2.848-4.787,8.546c-3.252,6.352-5.175,9.977-5.771,10.871c-0.09,0.208-0.298,0.299-0.627,0.269
		c-0.329,0-0.582-0.119-0.76-0.357c-2.178-3.401-7.188-12.708-15.032-27.919c-0.895-1.791-1.896-2.923-2.999-3.4
		c-1.91-0.836-2.864-1.446-2.864-1.835c0-1.163,0.642-1.684,1.924-1.566c5.755,0.598,10.798,0.479,15.124-0.357
		c0.983-0.179,1.477,0.149,1.477,0.984c0,1.163-0.672,1.909-2.014,2.237c-1.761,0.417-2.639,1.073-2.639,1.968
		c0,0.567,0.208,1.402,0.625,2.506c1.073,2.773,2.684,6.294,4.83,10.56c2.149,4.266,3.401,6.397,3.76,6.397
		c0.238,0,1.506-2.221,3.803-6.667c2.296-4.443,3.445-6.906,3.445-7.382c0-1.164-0.389-2.417-1.164-3.759
		c-0.924-1.968-1.999-3.146-3.221-3.533c-1.969-0.687-2.954-1.358-2.954-2.014c0-1.192,0.672-1.685,2.014-1.477
		c4.594,0.626,9.456,0.508,14.585-0.357c0.983-0.178,1.476,0.119,1.476,0.894c0,1.134-0.731,1.835-2.192,2.104
		c-1.729,0.327-2.596,1.208-2.596,2.639c0,0.688,0.195,1.491,0.582,2.416c4.594,11.245,7.247,16.868,7.965,16.868
		c0.268,0,1.461-2.193,3.577-6.577c2.268-4.683,3.849-8.457,4.744-11.32c0.06-0.149,0.089-0.313,0.089-0.492
		c0-1.284-1-2.282-2.998-2.998c-1.551-0.508-2.326-1.074-2.326-1.7c0-1.044,0.491-1.446,1.477-1.209
		c1.342,0.3,3.759,0.522,7.249,0.672c3.28,0.119,5.443,0.104,6.488-0.045C81.894,59.489,82.505,59.833,82.505,60.668z"/>
	<path fill="#F1BF96" stroke="#F1BF96" stroke-miterlimit="10" d="M127.067,75.521c0,5.189-1.923,9.583-5.771,13.176
		c-3.848,3.595-8.622,5.392-14.317,5.392c-5.697,0-10.201-1.58-13.511-4.743c-3.192-3.102-4.788-7.203-4.788-12.302
		c0-5.281,2.013-9.725,6.039-13.333c3.908-3.491,8.577-5.237,14.005-5.237c5.818,0,10.349,1.566,13.601,4.698
		C125.486,66.215,127.067,70.333,127.067,75.521z M119.192,78.251c0-4.683-1.133-8.486-3.399-11.409
		c-2.208-2.833-5.013-4.25-8.412-4.25c-3.162,0-5.742,1.111-7.74,3.332c-2,2.222-2.998,4.93-2.998,8.121
		c0,5.132,1.164,9.127,3.489,11.993c2.149,2.623,4.953,3.936,8.412,3.936c3.281,0,5.875-1.09,7.785-3.267
		C118.239,84.53,119.192,81.711,119.192,78.251z"/>
	<path fill="#F1BF96" stroke="#F1BF96" stroke-miterlimit="10" d="M172.613,75.521c0,5.189-1.924,9.583-5.77,13.176
		c-3.849,3.595-8.62,5.392-14.319,5.392c-5.696,0-10.199-1.58-13.509-4.743c-3.193-3.102-4.79-7.203-4.79-12.302
		c0-5.281,2.014-9.725,6.042-13.333c3.907-3.491,8.574-5.237,14.004-5.237c5.815,0,10.349,1.566,13.601,4.698
		C171.032,66.215,172.613,70.333,172.613,75.521z M164.738,78.251c0-4.683-1.13-8.486-3.399-11.409
		c-2.208-2.833-5.013-4.25-8.411-4.25c-3.162,0-5.741,1.111-7.74,3.332c-1.998,2.222-3,4.93-3,8.121
		c0,5.132,1.165,9.127,3.49,11.993c2.148,2.623,4.951,3.936,8.411,3.936c3.282,0,5.877-1.09,7.787-3.267
		S164.738,81.711,164.738,78.251z"/>
	<path fill="#F1BF96" stroke="#F1BF96" stroke-miterlimit="10" d="M213.373,32.525c0,1.252-0.567,2.715-1.7,4.385
		c-1.134,1.671-2.029,2.505-2.685,2.505c-0.806,0-1.655-0.402-2.551-1.208c-1.878-1.341-3.535-2.012-4.966-2.012
		c-5.666,0-8.5,3.967-8.5,11.901v9.619c0,1.492,1.282,2.132,3.849,1.924l5.681-0.447c2.238-0.18,3.46,0.178,3.667,1.073
		c0.062,0.299,0.091,0.731,0.091,1.298c0,1.223-0.299,1.984-0.896,2.282c-0.356,0.208-1.281,0.314-2.773,0.314h-5.683
		c-2.535,0-3.847,0.536-3.937,1.609c-0.06,0.628-0.06,7.115,0,19.463c0,1.67,0.775,2.863,2.326,3.579
		c1.164,0.567,3.104,0.954,5.816,1.164c1.076,0.09,1.724,0.217,1.946,0.379c0.225,0.165,0.337,0.649,0.337,1.454
		c0,0.925-0.127,1.478-0.381,1.656c-0.252,0.18-0.887,0.239-1.902,0.18c-6.59-0.358-12.511-0.269-17.759,0.268
		c-1.374,0.149-2.209,0.149-2.507,0c-0.298-0.149-0.448-0.672-0.448-1.565c0-0.747,0.865-1.358,2.595-1.835
		c2.057-0.566,3.085-2.059,3.085-4.473V68.632c0-1.82-0.281-3.089-0.848-3.803c-0.389-0.479-1.134-0.894-2.237-1.253
		c-1.73-0.538-2.595-1.388-2.595-2.551c0-0.804,0.358-1.313,1.073-1.52c0.239-0.06,0.986-0.105,2.236-0.135
		c1.075-0.03,1.747-0.267,2.014-0.714c0.181-0.328,0.27-1.134,0.27-2.418v-7.112c0-5.667,2.325-10.306,6.979-13.914
		c4.443-3.431,9.905-5.146,16.375-5.146C212.031,30.065,213.373,30.887,213.373,32.525z"/>
</g>
<g>
	<path fill="#F1BF96" stroke="#F1BF96" stroke-miterlimit="10" d="M82.505,130.797c0,0.536-1.03,1.089-3.087,1.655
		c-1.341,0.355-2.476,1.579-3.4,3.668c-5.368,11.931-10.171,21.549-14.407,28.861c-0.089,0.175-0.312,0.252-0.672,0.219
		c-0.326-0.027-0.55-0.132-0.67-0.313c-0.715-1.071-2.549-4.815-5.503-11.23c-2.715-5.905-4.176-8.855-4.385-8.855
		c-0.328,0-1.924,2.847-4.787,8.543c-3.25,6.354-5.175,9.978-5.772,10.875c-0.088,0.208-0.298,0.295-0.625,0.266
		c-0.328,0-0.582-0.118-0.76-0.356c-2.179-3.398-7.189-12.706-15.033-27.92c-0.895-1.787-1.894-2.92-2.998-3.4
		c-1.911-0.833-2.863-1.442-2.863-1.831c0-1.167,0.641-1.688,1.924-1.565c5.756,0.596,10.797,0.475,15.122-0.361
		c0.985-0.179,1.478,0.151,1.478,0.984c0,1.165-0.672,1.908-2.015,2.237c-1.759,0.419-2.639,1.073-2.639,1.971
		c0,0.568,0.208,1.401,0.625,2.504c1.074,2.772,2.686,6.294,4.834,10.563c2.146,4.265,3.4,6.395,3.758,6.395
		c0.237,0,1.505-2.225,3.802-6.667c2.296-4.443,3.444-6.906,3.444-7.38c0-1.162-0.386-2.42-1.162-3.761
		c-0.926-1.966-2-3.148-3.222-3.533c-1.971-0.688-2.953-1.358-2.953-2.014c0-1.195,0.671-1.687,2.013-1.478
		c4.593,0.629,9.455,0.508,14.585-0.356c0.985-0.182,1.477,0.118,1.477,0.896c0,1.13-0.73,1.832-2.192,2.101
		c-1.73,0.327-2.596,1.207-2.596,2.64c0,0.686,0.195,1.492,0.582,2.417c4.594,11.244,7.25,16.866,7.964,16.866
		c0.268,0,1.461-2.194,3.58-6.577c2.269-4.682,3.847-8.458,4.742-11.321c0.062-0.147,0.09-0.31,0.09-0.491c0-1.279-1-2.278-3-2.996
		c-1.549-0.506-2.325-1.072-2.325-1.7c0-1.045,0.493-1.445,1.477-1.208c1.342,0.299,3.758,0.524,7.247,0.669
		c3.282,0.122,5.446,0.106,6.489-0.043C81.895,129.617,82.505,129.96,82.505,130.797z"/>
	<path fill="#F1BF96" stroke="#F1BF96" stroke-miterlimit="10" d="M124.518,159.387c0,0.628-1.142,1.572-3.424,2.843
		c-2.281,1.267-4.107,1.898-5.48,1.898c-1.162,0-2.191-0.568-3.087-1.7c-0.895-1.136-1.521-1.698-1.879-1.698
		c-0.268,0-1.686,0.608-4.251,1.832c-2.564,1.224-5.145,1.832-7.74,1.832c-2.445,0-4.489-0.713-6.128-2.145
		c-1.79-1.579-2.685-3.727-2.685-6.446c0-5.158,5.905-8.854,17.718-11.093c2.028-0.387,3.057-1.209,3.086-2.459l0.09-2.867
		c0.179-4.889-1.985-7.335-6.489-7.335c-1.28,0-2.496,1.148-3.645,3.443c-1.149,2.299-2.797,3.535-4.945,3.714
		c-2.446,0.238-3.668-0.79-3.668-3.086c0-1.431,1.819-3.1,5.456-5.013c3.82-1.997,7.487-2.995,11.009-2.995
		c6.054,0,9.051,2.877,8.993,8.634l-0.181,18.436c-0.028,1.939,0.79,2.907,2.46,2.907c0.33,0,0.955-0.078,1.881-0.226
		c0.923-0.147,1.462-0.226,1.61-0.226C124.085,157.638,124.518,158.224,124.518,159.387z M110.737,149.184
		c0.03-0.746-0.142-1.236-0.515-1.473c-0.373-0.238-0.961-0.286-1.766-0.137c-7.189,1.279-10.784,3.622-10.784,7.025
		c0,3.429,1.863,5.143,5.592,5.143c1.493,0,3.027-0.282,4.609-0.851c1.851-0.655,2.774-1.445,2.774-2.372L110.737,149.184z"/>
	<path fill="#F1BF96" stroke="#F1BF96" stroke-miterlimit="10" d="M176.954,162.878c0,0.921-0.671,1.341-2.015,1.25
		c-6.412-0.329-11.274-0.39-14.585-0.179c-1.698,0.121-2.624-0.091-2.773-0.628c-0.059-0.178-0.089-0.431-0.089-0.76
		c0-0.595,0.864-1.133,2.597-1.609c1.58-0.447,2.37-1.982,2.37-4.607v-11.903c0-6.832-2.968-10.246-8.905-10.246
		c-2.651,0-5.114,0.628-7.381,1.878c-2.147,1.224-3.221,2.494-3.221,3.802v16.379c0,2.803,1.833,4.368,5.503,4.698
		c1.401,0.121,2.104,0.564,2.104,1.341c0,0.746-0.196,1.192-0.583,1.344c-0.179,0.058-0.687,0.074-1.521,0.044
		c-4.684-0.181-9.517,0.058-14.496,0.713c-1.076,0.151-1.747,0.198-2.013,0.137c-0.598-0.117-0.895-0.581-0.895-1.387
		c0-0.716,0.85-1.327,2.55-1.832c1.58-0.48,2.371-2.464,2.371-5.955v-13.556c0-2.297-0.3-3.758-0.896-4.383
		c-0.418-0.451-1.803-1.075-4.161-1.882c-0.597-0.205-0.894-0.626-0.894-1.25c0-0.596,0.61-1.119,1.833-1.567
		c1.672-0.627,3.505-1.624,5.504-2.994c1.67-1.138,2.746-1.703,3.223-1.703c0.805,0,1.341,0.917,1.609,2.753
		c0.268,1.833,0.642,2.752,1.117,2.752c-0.238,0,1.284-0.873,4.565-2.617c3.279-1.746,6.518-2.62,9.708-2.62
		c7.724,0,11.618,4.401,11.677,13.198l0.089,14.41c0,1.846,0.479,3.173,1.433,3.979c0.714,0.599,2.101,1.106,4.159,1.523
		C176.283,161.667,176.954,162.158,176.954,162.878z"/>
	<path fill="#F1BF96" stroke="#F1BF96" stroke-miterlimit="10" d="M205.721,159.474c0,1.435-1.312,2.654-3.937,3.67
		c-2.326,0.894-4.683,1.341-7.069,1.341c-6.472,0-9.708-3.445-9.708-10.334v-16.195c0-2.06-0.165-3.319-0.492-3.78
		c-0.328-0.464-1.416-0.917-3.268-1.367c-0.475-0.117-0.714-0.58-0.714-1.383c0-0.866,0.178-1.391,0.536-1.568
		c3.221-1.58,6.024-4.416,8.412-8.501c0.328-0.567,0.968-0.746,1.924-0.537c0.656,0.208,1,0.596,1.03,1.164l0.178,5.592
		c0,0.418,0.074,0.715,0.224,0.896c0.208,0.268,0.685,0.401,1.432,0.401h9.978c0.566,0,0.566,0.703,0,2.105
		c-0.688,1.699-1.702,2.55-3.043,2.55h-6.754c-1.165,0-1.882,0.195-2.148,0.578c-0.208,0.269-0.313,1.002-0.313,2.194v14.632
		c0,3.696,0.328,6.039,0.983,7.023c0.867,1.254,2.878,1.879,6.042,1.879c1.044,0,2.311-0.172,3.803-0.514
		c1.492-0.344,2.282-0.515,2.371-0.515C205.544,158.805,205.721,159.026,205.721,159.474z"/>
</g>
<ellipse fill="#4E888C" stroke="#4E888C" stroke-width="3" stroke-miterlimit="10" cx="51.133" cy="29.676" rx="18.089" ry="14.88"/>
</svg>
