<?xml version="1.0" encoding="utf-8"?>
<!-- Generator: Adobe Illustrator 16.0.0, SVG Export Plug-In . SVG Version: 6.00 Build 0)  -->
<!DOCTYPE svg PUBLIC "-//W3C//DTD SVG 1.1//EN" "http://www.w3.org/Graphics/SVG/1.1/DTD/svg11.dtd">
<svg version="1.1" id="圖層_1" xmlns="http://www.w3.org/2000/svg" xmlns:xlink="http://www.w3.org/1999/xlink" x="0px" y="0px"
	 width="141.732px" height="109.594px" viewBox="0 0 141.732 109.594" enable-background="new 0 0 141.732 109.594"
	 xml:space="preserve">
<g>
	<g>
		<path fill="#A89877" d="M46.818,35.721c0,0.315-0.595,0.631-1.783,0.962c-0.773,0.203-1.43,0.911-1.963,2.114
			c-3.101,6.894-5.875,12.447-8.319,16.667c-0.051,0.103-0.181,0.144-0.387,0.128c-0.188-0.022-0.321-0.075-0.388-0.182
			c-0.415-0.62-1.474-2.782-3.178-6.485c-1.568-3.411-2.41-5.114-2.533-5.114c-0.188,0-1.107,1.646-2.762,4.935
			c-1.879,3.669-2.988,5.761-3.332,6.276c-0.053,0.123-0.173,0.172-0.364,0.152c-0.187,0-0.336-0.064-0.438-0.203
			c-1.258-1.962-4.151-7.335-8.678-16.117c-0.517-1.039-1.096-1.688-1.734-1.968c-1.1-0.481-1.652-0.833-1.652-1.06
			c0-0.669,0.369-0.97,1.111-0.903c3.324,0.345,6.234,0.272,8.733-0.205c0.568-0.107,0.853,0.083,0.853,0.567
			c0,0.671-0.388,1.103-1.165,1.293c-1.017,0.241-1.523,0.616-1.523,1.136c0,0.326,0.121,0.809,0.362,1.45
			c0.619,1.598,1.548,3.63,2.791,6.092c1.239,2.467,1.96,3.694,2.167,3.694c0.141,0,0.87-1.28,2.197-3.85
			c1.327-2.567,1.99-3.987,1.99-4.261c0-0.671-0.225-1.397-0.674-2.171c-0.533-1.133-1.153-1.813-1.859-2.041
			c-1.136-0.393-1.705-0.781-1.705-1.162c0-0.688,0.389-0.976,1.164-0.855c2.652,0.361,5.459,0.293,8.422-0.205
			c0.569-0.102,0.852,0.068,0.852,0.518c0,0.657-0.42,1.056-1.266,1.216c-0.999,0.19-1.5,0.696-1.5,1.524
			c0,0.394,0.113,0.859,0.338,1.395c2.65,6.494,4.184,9.736,4.597,9.736c0.156,0,0.844-1.265,2.067-3.792
			c1.308-2.704,2.222-4.885,2.74-6.538c0.034-0.086,0.049-0.179,0.049-0.286c0-0.741-0.576-1.319-1.732-1.726
			c-0.894-0.297-1.34-0.626-1.34-0.986c0-0.602,0.283-0.836,0.85-0.699c0.776,0.172,2.173,0.306,4.189,0.391
			c1.892,0.065,3.141,0.063,3.742-0.023C46.464,35.048,46.818,35.242,46.818,35.721z"/>
	</g>
	<g>
		<path fill="#A89877" d="M72.551,44.301c0,2.992-1.113,5.534-3.333,7.609c-2.224,2.072-4.979,3.111-8.267,3.111
			c-3.29,0-5.893-0.912-7.801-2.734c-1.843-1.796-2.765-4.161-2.765-7.106c0-3.047,1.162-5.613,3.485-7.699
			c2.259-2.016,4.953-3.025,8.087-3.025c3.356,0,5.976,0.905,7.853,2.715C71.636,38.927,72.551,41.305,72.551,44.301z
			 M68.004,45.877c0-2.704-0.656-4.9-1.964-6.587c-1.275-1.637-2.895-2.455-4.856-2.455c-1.827,0-3.319,0.645-4.469,1.923
			c-1.155,1.284-1.732,2.847-1.732,4.687c0,2.969,0.672,5.276,2.013,6.925c1.24,1.52,2.858,2.274,4.858,2.274
			c1.896,0,3.394-0.626,4.494-1.884C67.45,49.503,68.004,47.875,68.004,45.877z"/>
	</g>
	<g>
		<path fill="#A89877" d="M98.846,44.301c0,2.992-1.107,5.534-3.33,7.609c-2.224,2.072-4.977,3.111-8.269,3.111
			c-3.288,0-5.889-0.912-7.8-2.734c-1.843-1.796-2.762-4.161-2.762-7.106c0-3.047,1.162-5.613,3.482-7.699
			c2.26-2.016,4.954-3.025,8.088-3.025c3.361,0,5.979,0.905,7.855,2.715C97.935,38.927,98.846,41.305,98.846,44.301z M94.302,45.877
			c0-2.704-0.652-4.9-1.964-6.587c-1.274-1.637-2.893-2.455-4.855-2.455c-1.826,0-3.317,0.645-4.47,1.923
			c-1.154,1.284-1.727,2.847-1.727,4.687c0,2.969,0.668,5.276,2.012,6.925c1.24,1.52,2.858,2.274,4.857,2.274
			c1.893,0,3.394-0.626,4.496-1.884C93.75,49.503,94.302,47.875,94.302,45.877z"/>
	</g>
	<g>
		<path fill="#A89877" d="M122.382,19.474c0,0.726-0.324,1.567-0.982,2.535c-0.651,0.966-1.17,1.439-1.547,1.439
			c-0.466,0-0.956-0.229-1.475-0.689c-1.083-0.778-2.039-1.165-2.865-1.165c-3.275,0-4.908,2.291-4.908,6.874v5.556
			c0,0.858,0.74,1.226,2.22,1.11l3.281-0.265c1.292-0.103,1.999,0.103,2.119,0.621c0.035,0.171,0.052,0.421,0.052,0.749
			c0,0.708-0.172,1.146-0.515,1.318c-0.208,0.122-0.742,0.185-1.603,0.185h-3.282c-1.463,0-2.221,0.306-2.272,0.927
			c-0.035,0.359-0.035,4.107,0,11.237c0,0.965,0.447,1.653,1.343,2.067c0.672,0.327,1.79,0.555,3.357,0.67
			c0.623,0.052,0.995,0.124,1.125,0.22c0.128,0.098,0.194,0.378,0.194,0.841c0,0.533-0.073,0.855-0.22,0.955
			c-0.146,0.108-0.513,0.14-1.099,0.108c-3.805-0.208-7.223-0.161-10.254,0.15c-0.794,0.086-1.275,0.086-1.447,0
			c-0.174-0.086-0.258-0.389-0.258-0.899c0-0.439,0.5-0.789,1.497-1.066c1.188-0.324,1.784-1.186,1.784-2.583V40.322
			c0-1.05-0.166-1.783-0.492-2.198c-0.225-0.271-0.653-0.516-1.292-0.72c-0.997-0.308-1.497-0.802-1.497-1.475
			c0-0.464,0.208-0.756,0.62-0.876c0.134-0.038,0.57-0.062,1.292-0.082c0.618-0.013,1.005-0.15,1.162-0.41
			c0.104-0.19,0.155-0.656,0.155-1.394V29.06c0-3.274,1.342-5.948,4.031-8.033c2.564-1.985,5.715-2.973,9.456-2.973
			C121.609,18.054,122.382,18.526,122.382,19.474z"/>
	</g>
	<g>
		<g>
			<path fill="#F1BF96" d="M44.77,34.026c0,0.315-0.594,0.631-1.782,0.962c-0.774,0.203-1.431,0.911-1.964,2.115
				c-3.101,6.893-5.875,12.446-8.319,16.667c-0.051,0.102-0.181,0.144-0.388,0.127c-0.188-0.021-0.32-0.075-0.387-0.182
				c-0.414-0.62-1.473-2.782-3.177-6.485c-1.568-3.411-2.41-5.114-2.533-5.114c-0.188,0-1.107,1.646-2.763,4.935
				c-1.878,3.669-2.987,5.761-3.33,6.276c-0.053,0.123-0.174,0.17-0.365,0.152c-0.187,0-0.336-0.066-0.438-0.203
				c-1.258-1.964-4.151-7.335-8.678-16.116c-0.516-1.042-1.096-1.689-1.734-1.969c-1.1-0.481-1.651-0.833-1.651-1.061
				c0-0.667,0.368-0.97,1.11-0.903c3.324,0.346,6.235,0.274,8.734-0.205c0.567-0.106,0.853,0.083,0.853,0.568
				c0,0.67-0.389,1.103-1.165,1.293c-1.017,0.24-1.524,0.616-1.524,1.136c0,0.326,0.122,0.809,0.363,1.45
				c0.619,1.598,1.548,3.63,2.791,6.092c1.238,2.467,1.96,3.695,2.167,3.695c0.142,0,0.871-1.281,2.198-3.85
				c1.326-2.567,1.989-3.989,1.989-4.262c0-0.671-0.224-1.397-0.673-2.171c-0.534-1.135-1.153-1.814-1.859-2.042
				c-1.136-0.392-1.706-0.779-1.706-1.164c0-0.688,0.389-0.973,1.164-0.853c2.651,0.361,5.459,0.292,8.422-0.205
				c0.569-0.102,0.853,0.068,0.853,0.517c0,0.658-0.421,1.056-1.268,1.217c-0.998,0.189-1.499,0.696-1.499,1.524
				c0,0.394,0.113,0.859,0.338,1.395c2.65,6.491,4.183,9.736,4.597,9.736c0.156,0,0.844-1.267,2.066-3.792
				c1.308-2.704,2.222-4.885,2.74-6.538C37.985,36.683,38,36.591,38,36.483c0-0.74-0.575-1.32-1.731-1.727
				c-0.895-0.296-1.341-0.626-1.341-0.988c0-0.6,0.283-0.834,0.851-0.696c0.775,0.172,2.172,0.305,4.188,0.392
				c1.892,0.064,3.141,0.062,3.743-0.025C44.417,33.353,44.77,33.549,44.77,34.026z"/>
		</g>
		<g>
			<path fill="#F1BF96" d="M70.502,42.606c0,2.992-1.113,5.533-3.332,7.609c-2.225,2.072-4.979,3.111-8.268,3.111
				c-3.291,0-5.894-0.913-7.801-2.736c-1.844-1.795-2.765-4.16-2.765-7.104c0-3.047,1.162-5.614,3.485-7.699
				c2.258-2.019,4.953-3.025,8.087-3.025c3.357,0,5.976,0.905,7.853,2.715C69.587,37.232,70.502,39.61,70.502,42.606z
				 M65.956,44.183c0-2.704-0.655-4.9-1.964-6.587c-1.275-1.638-2.894-2.455-4.856-2.455c-1.826,0-3.319,0.644-4.468,1.923
				c-1.155,1.285-1.732,2.846-1.732,4.687c0,2.968,0.672,5.277,2.013,6.926c1.24,1.519,2.858,2.273,4.858,2.273
				c1.896,0,3.393-0.626,4.495-1.884C65.403,47.808,65.956,46.181,65.956,44.183z"/>
		</g>
		<g>
			<path fill="#F1BF96" d="M96.798,42.606c0,2.992-1.108,5.533-3.331,7.609c-2.223,2.072-4.976,3.111-8.268,3.111
				c-3.288,0-5.889-0.913-7.801-2.736c-1.843-1.795-2.761-4.16-2.761-7.104c0-3.047,1.162-5.614,3.483-7.699
				c2.259-2.019,4.952-3.025,8.087-3.025c3.36,0,5.979,0.905,7.855,2.715C95.888,37.232,96.798,39.61,96.798,42.606z M92.253,44.183
				c0-2.704-0.652-4.9-1.964-6.587c-1.274-1.638-2.894-2.455-4.855-2.455c-1.825,0-3.316,0.644-4.47,1.923
				c-1.154,1.285-1.728,2.846-1.728,4.687c0,2.968,0.669,5.277,2.012,6.926c1.24,1.519,2.859,2.273,4.858,2.273
				c1.894,0,3.394-0.626,4.495-1.884S92.253,46.181,92.253,44.183z"/>
		</g>
		<g>
			<path fill="#F1BF96" d="M120.334,17.778c0,0.727-0.325,1.568-0.983,2.536c-0.65,0.963-1.17,1.439-1.548,1.439
				c-0.465,0-0.955-0.23-1.473-0.691c-1.083-0.776-2.039-1.165-2.866-1.165c-3.275,0-4.909,2.293-4.909,6.876v5.556
				c0,0.857,0.74,1.225,2.22,1.109l3.281-0.263c1.292-0.104,1.998,0.102,2.118,0.62c0.036,0.171,0.052,0.42,0.052,0.75
				c0,0.706-0.172,1.145-0.515,1.317c-0.208,0.122-0.741,0.185-1.603,0.185h-3.281c-1.464,0-2.222,0.306-2.273,0.927
				c-0.035,0.359-0.035,4.107,0,11.236c0,0.966,0.447,1.653,1.343,2.067c0.672,0.328,1.79,0.555,3.357,0.671
				c0.622,0.051,0.995,0.123,1.125,0.22c0.129,0.097,0.194,0.379,0.194,0.841c0,0.534-0.073,0.855-0.22,0.955
				c-0.145,0.108-0.513,0.14-1.098,0.108c-3.806-0.208-7.223-0.163-10.255,0.148c-0.794,0.088-1.276,0.088-1.446,0
				c-0.174-0.084-0.259-0.388-0.259-0.896c0-0.441,0.5-0.79,1.496-1.068c1.188-0.323,1.785-1.186,1.785-2.581V38.628
				c0-1.05-0.167-1.783-0.493-2.199c-0.224-0.271-0.653-0.514-1.292-0.719c-0.997-0.31-1.496-0.801-1.496-1.476
				c0-0.466,0.208-0.755,0.62-0.875c0.134-0.038,0.57-0.062,1.292-0.082c0.617-0.013,1.005-0.151,1.161-0.412
				c0.104-0.188,0.155-0.655,0.155-1.392v-4.108c0-3.274,1.343-5.948,4.031-8.035c2.565-1.983,5.715-2.971,9.457-2.971
				C119.561,16.359,120.334,16.832,120.334,17.778z"/>
		</g>
	</g>
</g>
<g>
	<g>
		<path fill="#A89877" d="M60.889,70.489c0,0.311-0.591,0.627-1.78,0.95c-0.775,0.209-1.43,0.915-1.965,2.122
			c-3.098,6.888-5.873,12.442-8.313,16.663c-0.054,0.104-0.183,0.147-0.391,0.131c-0.191-0.018-0.318-0.079-0.389-0.185
			c-0.411-0.619-1.472-2.778-3.179-6.482c-1.567-3.41-2.411-5.117-2.531-5.117c-0.189,0-1.11,1.647-2.763,4.938
			c-1.876,3.667-2.99,5.762-3.333,6.276c-0.051,0.123-0.171,0.17-0.362,0.153c-0.189,0-0.337-0.064-0.44-0.207
			c-1.257-1.961-4.15-7.336-8.681-16.118c-0.516-1.033-1.091-1.688-1.73-1.965c-1.103-0.481-1.652-0.835-1.652-1.056
			c0-0.674,0.371-0.973,1.111-0.91c3.325,0.352,6.232,0.285,8.732-0.199c0.567-0.11,0.85,0.086,0.85,0.566
			c0,0.671-0.386,1.098-1.161,1.292c-1.016,0.24-1.522,0.613-1.522,1.137c0,0.321,0.118,0.811,0.36,1.445
			c0.62,1.599,1.55,3.633,2.789,6.096c1.244,2.46,1.964,3.697,2.169,3.697c0.137,0,0.87-1.286,2.196-3.852
			c1.328-2.565,1.991-3.99,1.991-4.262c0-0.674-0.226-1.394-0.67-2.171c-0.539-1.137-1.157-1.816-1.862-2.037
			c-1.138-0.396-1.702-0.787-1.702-1.168c0-0.689,0.384-0.971,1.16-0.854c2.652,0.363,5.461,0.301,8.422-0.203
			c0.569-0.106,0.852,0.067,0.852,0.513c0,0.658-0.422,1.063-1.264,1.219c-1,0.189-1.499,0.7-1.499,1.523
			c0,0.398,0.111,0.864,0.337,1.395c2.651,6.49,4.185,9.741,4.595,9.741c0.157,0,0.848-1.271,2.069-3.799
			c1.309-2.701,2.22-4.884,2.737-6.536c0.035-0.083,0.05-0.18,0.05-0.285c0-0.737-0.574-1.314-1.73-1.73
			c-0.893-0.291-1.342-0.617-1.342-0.982c0-0.604,0.285-0.832,0.854-0.694c0.774,0.171,2.169,0.296,4.183,0.386
			c1.896,0.074,3.143,0.057,3.747-0.026C60.539,69.807,60.889,70.006,60.889,70.489z"/>
	</g>
	<g>
		<path fill="#A89877" d="M85.151,86.996c0,0.363-0.66,0.909-1.98,1.643c-1.314,0.729-2.371,1.093-3.162,1.093
			c-0.671,0-1.267-0.323-1.78-0.98c-0.52-0.655-0.884-0.98-1.09-0.98c-0.154,0-0.974,0.351-2.453,1.061
			c-1.481,0.706-2.971,1.061-4.468,1.061c-1.416,0-2.593-0.414-3.54-1.243c-1.037-0.909-1.552-2.155-1.552-3.718
			c0-2.979,3.412-5.116,10.23-6.411c1.171-0.224,1.766-0.695,1.782-1.417l0.055-1.657c0.102-2.819-1.146-4.235-3.747-4.235
			c-0.743,0-1.445,0.664-2.108,1.99c-0.663,1.331-1.614,2.039-2.854,2.144c-1.414,0.143-2.118-0.456-2.118-1.782
			c0-0.824,1.049-1.79,3.15-2.894c2.205-1.155,4.322-1.729,6.354-1.729c3.499,0,5.229,1.659,5.192,4.985l-0.102,10.644
			c-0.017,1.118,0.456,1.68,1.42,1.68c0.191,0,0.551-0.045,1.085-0.13c0.534-0.088,0.846-0.13,0.929-0.13
			C84.901,85.987,85.151,86.321,85.151,86.996z M77.195,81.103c0.015-0.427-0.083-0.715-0.299-0.847
			c-0.216-0.142-0.555-0.167-1.023-0.075c-4.149,0.731-6.225,2.091-6.225,4.051c0,1.984,1.076,2.968,3.229,2.968
			c0.862,0,1.748-0.161,2.663-0.49c1.067-0.375,1.6-0.832,1.6-1.37L77.195,81.103z"/>
	</g>
	<g>
		<path fill="#A89877" d="M115.428,89.012c0,0.531-0.388,0.773-1.163,0.72c-3.705-0.188-6.509-0.223-8.422-0.104
			c-0.982,0.066-1.513-0.047-1.602-0.357c-0.036-0.105-0.052-0.254-0.052-0.439c0-0.348,0.5-0.659,1.499-0.937
			c0.915-0.253,1.369-1.14,1.369-2.658v-6.872c0-3.942-1.713-5.912-5.141-5.912c-1.532,0-2.954,0.36-4.264,1.082
			c-1.238,0.709-1.86,1.438-1.86,2.194v9.462c0,1.613,1.06,2.52,3.179,2.704c0.81,0.074,1.216,0.334,1.216,0.784
			c0,0.427-0.114,0.688-0.336,0.773c-0.103,0.032-0.396,0.041-0.88,0.025c-2.705-0.106-5.496,0.031-8.369,0.414
			c-0.621,0.081-1.008,0.109-1.163,0.075c-0.344-0.07-0.518-0.339-0.518-0.802c0-0.414,0.494-0.766,1.473-1.061
			c0.913-0.275,1.37-1.418,1.37-3.432v-7.83c0-1.327-0.171-2.169-0.516-2.526c-0.242-0.263-1.043-0.625-2.404-1.091
			c-0.344-0.121-0.514-0.364-0.514-0.724c0-0.349,0.35-0.645,1.058-0.9c0.963-0.363,2.022-0.94,3.177-1.736
			c0.964-0.649,1.585-0.979,1.862-0.979c0.464,0,0.773,0.531,0.927,1.587c0.157,1.062,0.373,1.59,0.649,1.59
			c-0.139,0,0.735-0.502,2.634-1.509c1.894-1.006,3.762-1.515,5.605-1.515c4.462,0,6.71,2.542,6.743,7.621l0.052,8.319
			c0,1.068,0.275,1.831,0.825,2.299c0.415,0.343,1.214,0.637,2.404,0.875C115.04,88.313,115.428,88.598,115.428,89.012z"/>
	</g>
	<g>
		<path fill="#A89877" d="M132.038,87.049c0,0.823-0.757,1.532-2.273,2.116c-1.341,0.519-2.704,0.773-4.081,0.773
			c-3.739,0-5.604-1.987-5.604-5.968v-9.352c0-1.187-0.096-1.916-0.284-2.183c-0.192-0.268-0.821-0.524-1.887-0.788
			c-0.277-0.066-0.414-0.335-0.414-0.8c0-0.504,0.1-0.799,0.309-0.905c1.859-0.912,3.48-2.546,4.856-4.905
			c0.19-0.33,0.56-0.435,1.111-0.313c0.38,0.119,0.577,0.348,0.595,0.67l0.102,3.233c0,0.239,0.044,0.411,0.131,0.515
			c0.118,0.157,0.395,0.229,0.825,0.229h5.763c0.328,0,0.328,0.408,0,1.22c-0.396,0.978-0.982,1.471-1.758,1.471h-3.901
			c-0.672,0-1.083,0.11-1.238,0.334c-0.123,0.158-0.182,0.579-0.182,1.268v8.445c0,2.141,0.188,3.487,0.57,4.062
			c0.497,0.72,1.662,1.086,3.488,1.086c0.602,0,1.332-0.104,2.194-0.303c0.862-0.192,1.318-0.292,1.369-0.292
			C131.936,86.663,132.038,86.793,132.038,87.049z"/>
	</g>
	<g>
		<g>
			<path fill="#F1BF96" d="M58.841,68.794c0,0.313-0.591,0.626-1.78,0.951c-0.775,0.209-1.431,0.914-1.966,2.122
				c-3.098,6.888-5.873,12.442-8.313,16.664c-0.053,0.104-0.183,0.146-0.391,0.129c-0.19-0.017-0.318-0.078-0.388-0.184
				c-0.411-0.621-1.472-2.778-3.178-6.482c-1.567-3.41-2.411-5.117-2.531-5.117c-0.19,0-1.111,1.647-2.763,4.937
				c-1.876,3.668-2.99,5.763-3.333,6.278c-0.051,0.122-0.17,0.169-0.361,0.153c-0.19,0-0.336-0.067-0.44-0.209
				c-1.256-1.96-4.151-7.335-8.681-16.117c-0.517-1.032-1.091-1.688-1.73-1.965c-1.102-0.482-1.651-0.835-1.651-1.056
				c0-0.673,0.37-0.975,1.11-0.911c3.326,0.352,6.233,0.286,8.732-0.198c0.567-0.11,0.851,0.084,0.851,0.565
				c0,0.67-0.386,1.099-1.161,1.292c-1.016,0.241-1.522,0.614-1.522,1.138c0,0.321,0.118,0.812,0.361,1.445
				c0.619,1.599,1.549,3.631,2.789,6.095c1.242,2.461,1.963,3.697,2.169,3.697c0.137,0,0.871-1.285,2.195-3.852
				c1.329-2.564,1.991-3.989,1.991-4.263c0-0.672-0.224-1.391-0.67-2.168c-0.537-1.141-1.157-1.817-1.861-2.038
				c-1.139-0.396-1.702-0.789-1.702-1.168c0-0.689,0.383-0.97,1.159-0.854c2.652,0.364,5.461,0.301,8.421-0.202
				c0.569-0.107,0.853,0.066,0.853,0.511c0,0.658-0.422,1.064-1.265,1.219c-0.999,0.189-1.499,0.699-1.499,1.523
				c0,0.399,0.111,0.866,0.338,1.395c2.649,6.49,4.184,9.742,4.594,9.742c0.158,0,0.848-1.271,2.07-3.799
				c1.308-2.701,2.22-4.884,2.738-6.537c0.034-0.082,0.049-0.18,0.049-0.284c0-0.737-0.574-1.314-1.73-1.729
				C49.449,69.224,49,68.898,49,68.533c0-0.604,0.285-0.832,0.853-0.693c0.775,0.169,2.17,0.294,4.183,0.386
				c1.896,0.072,3.144,0.057,3.747-0.027C58.49,68.11,58.841,68.311,58.841,68.794z"/>
		</g>
		<g>
			<path fill="#F1BF96" d="M83.103,85.302c0,0.363-0.66,0.909-1.979,1.641c-1.315,0.731-2.371,1.094-3.163,1.094
				c-0.669,0-1.266-0.322-1.779-0.979c-0.521-0.656-0.884-0.981-1.09-0.981c-0.154,0-0.975,0.351-2.453,1.061
				c-1.481,0.706-2.97,1.061-4.469,1.061c-1.416,0-2.592-0.415-3.54-1.245c-1.036-0.909-1.551-2.154-1.551-3.716
				c0-2.979,3.412-5.117,10.23-6.41c1.172-0.227,1.767-0.696,1.783-1.417l0.055-1.657c0.101-2.82-1.147-4.235-3.748-4.235
				c-0.743,0-1.444,0.663-2.108,1.989c-0.662,1.331-1.613,2.039-2.853,2.143c-1.413,0.142-2.118-0.455-2.118-1.781
				c0-0.824,1.05-1.79,3.15-2.895c2.206-1.155,4.324-1.729,6.355-1.729c3.499,0,5.23,1.659,5.193,4.985l-0.102,10.643
				c-0.018,1.12,0.456,1.681,1.419,1.681c0.191,0,0.552-0.044,1.087-0.13c0.532-0.089,0.845-0.13,0.929-0.13
				C82.853,84.293,83.103,84.627,83.103,85.302z M75.147,79.408c0.015-0.428-0.083-0.714-0.3-0.849
				c-0.216-0.141-0.554-0.165-1.022-0.074c-4.149,0.732-6.226,2.092-6.226,4.051c0,1.984,1.077,2.97,3.229,2.97
				c0.862,0,1.749-0.162,2.663-0.491c1.067-0.376,1.6-0.831,1.6-1.371L75.147,79.408z"/>
		</g>
		<g>
			<path fill="#F1BF96" d="M113.379,87.317c0,0.531-0.388,0.774-1.163,0.719c-3.705-0.188-6.509-0.222-8.422-0.103
				c-0.981,0.066-1.514-0.047-1.601-0.357c-0.037-0.105-0.052-0.254-0.052-0.439c0-0.348,0.499-0.659,1.498-0.937
				c0.916-0.254,1.37-1.14,1.37-2.658v-6.873c0-3.941-1.714-5.911-5.142-5.911c-1.533,0-2.954,0.36-4.264,1.082
				c-1.237,0.708-1.86,1.438-1.86,2.194v9.461c0,1.614,1.061,2.52,3.178,2.705c0.81,0.074,1.216,0.333,1.216,0.784
				c0,0.428-0.113,0.686-0.336,0.773c-0.102,0.032-0.396,0.041-0.88,0.024c-2.704-0.105-5.495,0.032-8.368,0.415
				c-0.621,0.081-1.009,0.109-1.163,0.076c-0.344-0.071-0.518-0.34-0.518-0.803c0-0.413,0.493-0.767,1.472-1.061
				c0.913-0.276,1.371-1.419,1.371-3.432v-7.829c0-1.329-0.172-2.171-0.516-2.529c-0.242-0.261-1.043-0.623-2.404-1.09
				c-0.343-0.12-0.514-0.363-0.514-0.723c0-0.349,0.35-0.645,1.058-0.902c0.962-0.362,2.022-0.938,3.178-1.735
				c0.963-0.648,1.585-0.978,1.861-0.978c0.463,0,0.773,0.531,0.927,1.588c0.158,1.061,0.374,1.59,0.648,1.59
				c-0.138,0,0.736-0.504,2.634-1.51c1.895-1.006,3.763-1.515,5.607-1.515c4.46,0,6.708,2.542,6.743,7.622l0.052,8.316
				c0,1.071,0.275,1.833,0.824,2.3c0.416,0.342,1.215,0.636,2.404,0.876C112.991,86.618,113.379,86.904,113.379,87.317z"/>
		</g>
		<g>
			<path fill="#F1BF96" d="M129.99,85.354c0,0.823-0.758,1.53-2.274,2.116c-1.34,0.519-2.703,0.774-4.08,0.774
				c-3.739,0-5.605-1.988-5.605-5.968v-9.354c0-1.185-0.095-1.915-0.283-2.181c-0.192-0.268-0.82-0.525-1.886-0.789
				c-0.278-0.066-0.414-0.336-0.414-0.8c0-0.504,0.101-0.8,0.31-0.905c1.859-0.912,3.479-2.547,4.855-4.905
				c0.19-0.33,0.56-0.435,1.111-0.312c0.38,0.117,0.577,0.347,0.596,0.67l0.101,3.232c0,0.239,0.044,0.411,0.131,0.515
				c0.118,0.157,0.394,0.229,0.825,0.229h5.763c0.327,0,0.327,0.408,0,1.22c-0.396,0.978-0.983,1.472-1.759,1.472h-3.9
				c-0.673,0-1.082,0.109-1.238,0.332c-0.122,0.158-0.182,0.58-0.182,1.267v8.447c0,2.14,0.188,3.488,0.571,4.062
				c0.496,0.719,1.662,1.085,3.488,1.085c0.601,0,1.331-0.105,2.193-0.302c0.862-0.194,1.318-0.293,1.369-0.293
				C129.888,84.968,129.99,85.099,129.99,85.354z"/>
		</g>
	</g>
</g>
</svg>
