<!--?xml version="1.0" encoding="utf-8"?-->
<!-- Generator: Adobe Illustrator 16.0.0, SVG Export Plug-In . SVG Version: 6.00 Build 0)  -->

<svg version="1.1" id="圖層_1" xmlns="http://www.w3.org/2000/svg" xmlns:xlink="http://www.w3.org/1999/xlink" x="0px" y="0px" width="1417.323px" height="1355.837px" viewBox="0 0 1417.323 1355.837" enable-background="new 0 0 1417.323 1355.837" xml:space="preserve" style="">
<g>
	<path fill="none" stroke="#A89877" stroke-width="15" stroke-linecap="square" stroke-linejoin="round" stroke-miterlimit="10" d="
		M324.768,952.413c-36.349-40.147-100.007-25.991-142.831-9.334c-26.84,10.439-47.61,13.834-77.324,13.834
		c-19.267,0-66.686-11.704-70.086,16.138c-3.426,28.047,29.957,66.756,50.326,81.703c28.773,21.112,65.003,33.89,100.123,39.392
		c98.697,155.232,216.75,163.824,249.232,170.195c32.484,6.371,44.698-10.908,44.698-10.908
		c344.629,38.533,529.967-77.368,584.382-113.103c54.414-35.734,68.439-141.42,15.258-133.561
		c-53.18,7.859,7.728,106.182,7.728,106.182c-117.45-88.449-114.729-28.132-114.729-28.132c27.309,75.409,121.1,31.881,121.1,31.881
		c234.174-171.878,290.723-403.43,304.746-597.069c14.025-193.64-103.801-443.174-366.512-446.174
		c-86.69-0.989-171.295,25.48-237.804,81.904c-43.024,36.502-101.031,100.699-111.558,157.94
		c-2.184,11.871-2.633,24.097-2.767,36.141c-0.49,44.217,39.933,77.913,73.794,99.995c0.222,7.533,6.627,181.9,91.045,208.162" class="dsZiMXuI_0"></path>
	<path fill="none" stroke="#A89877" stroke-width="15" stroke-linecap="square" stroke-linejoin="round" stroke-miterlimit="10" d="
		M197.389,937.544c0,0,3.179-39.913,10.532-46.271c0,0-79.5,9.004-140.535-166.668c0,0-3.52-10.689,47.393,0
		s101.225,6.863,181.859,64.841c33.451,24.051,74.203,38.629,115.474,32.547c32.264-4.756,71.574-12.079,103.489-4.161
		c23.041,5.717,42.014,14.39,62.752,26.405c40.579,23.513,68.992,40.645,117.317,37.385c70.083-4.727,118.937-8.079,149.858,3.378
		s46.053,12.742,31.139,52.544c-14.915,39.802-82.306,119.069-191.109,114.967" class="dsZiMXuI_1"></path>
	<path fill="none" stroke="#A89877" stroke-width="15" stroke-linecap="square" stroke-linejoin="round" stroke-miterlimit="10" d="
		M860.735,966.267c0,0-9.898,85.849-73.824,101.042s-125.113,12.961-191.256,81.692c-66.141,68.731-96.679,74.782-120.699,86.219
		l3.95,18.213" class="dsZiMXuI_2"></path>
	<path fill="none" stroke="#A89877" stroke-width="15" stroke-linecap="square" stroke-linejoin="round" stroke-miterlimit="10" d="
		M347.929,1060.924c0,0-14.672,49.396-81.021,35.119c-66.351-14.277-81.932-1.897-81.932-1.897s38.284-10.389,41.844,1.897
		s75.842,127.998,248.137,139.177" class="dsZiMXuI_3"></path>
	<path fill="none" stroke="#A89877" stroke-width="15" stroke-linecap="square" stroke-linejoin="round" stroke-miterlimit="10" d="
		M558.561,972.568c-5.149-5.359-6.606-13.569-1.011-24.655c7.941-15.735,26.402-45.454,47.111-35.796
		c24.703,11.534,18.826,46.233,0.087,60.402C591.349,982.65,568.321,982.729,558.561,972.568z" class="dsZiMXuI_4"></path>
	<path fill="none" stroke="#A89877" stroke-width="15" stroke-linecap="square" stroke-linejoin="round" stroke-miterlimit="10" d="
		M752.544,449.438c0.15-42.437,7.809-99.381,38.671-127.053c23.244-20.844,94.376-62.594,120.136-28.786
		c12.988,17.043,20.237,41.195,32.455,59.499c11.596,17.373,24.622,33.83,39.307,48.701
		c45.396,45.977,105.217,72.853,169.838,75.052c32.507,1.108,65.082-3.17,96.393-12.055c26.266-7.453,49.816-14.589,73.506,4.677
		c11.723,9.534,21.837,35.346,17.282,50.566c-4.344,14.514-25.041,24.942-38.065,30.761c0,0-29.125,142.015-131.745,202.557
		c-169.249,99.844-242.317,115.64-300.827-40.802" class="dsZiMXuI_5"></path>
	<path fill="none" stroke="#A89877" stroke-width="15" stroke-linecap="round" stroke-linejoin="round" stroke-miterlimit="10" d="
		M863.417,490.755c21.389,42.9,27.859,86.693,6.148,129.532c-10.442,20.602-42.358,46.188-24.148,70.467
		c15.842,21.121,47.168,26.186,66.379,7.367" class="dsZiMXuI_6"></path>
	<path fill="none" stroke="#A89877" stroke-width="15" stroke-linecap="round" stroke-linejoin="round" stroke-miterlimit="10" d="
		M881.651,742.087c0,0,76.525,32.245,168.551-10.708" class="dsZiMXuI_7"></path>
	<path fill="none" stroke="#A89877" stroke-width="15" stroke-linecap="round" stroke-linejoin="round" stroke-miterlimit="10" d="
		M962.587,580.793c5.915-76.516,114.482,4.615,144.151-28.41c-88.257,90.484-133.233,11.907-137.223,7.478" class="dsZiMXuI_8"></path>
	<path fill="none" stroke="#A89877" stroke-width="15" stroke-linecap="round" stroke-linejoin="round" stroke-miterlimit="10" d="
		M781.969,523.257c0,0,118.903,15.576,70.785,36.887C852.754,560.144,822.636,575.06,781.969,523.257z" class="dsZiMXuI_9"></path>
	<path fill="none" stroke="#A89877" stroke-width="15" stroke-linecap="round" stroke-linejoin="round" stroke-miterlimit="10" d="
		M1013.302,485.454c0,0,39.876-4.986,71.271,27.507" class="dsZiMXuI_10"></path>
	<path fill="none" stroke="#A89877" stroke-width="15" stroke-linecap="square" stroke-linejoin="round" stroke-miterlimit="10" d="
		M198.058,1098.091c0,0,91,161.684,270,155.342c0,0-194-29.342-255-155.342c0,0,113.678,138,261.839,145" class="dsZiMXuI_11"></path>
	<path fill="none" stroke="#A89877" stroke-width="15" stroke-linecap="square" stroke-linejoin="round" stroke-miterlimit="10" d="
		M839.911,893.892c0,0,12.211,28.952,35.942,31.027c0,0-15.874-22.136-23.1-31.027s29.979,14.852,29.705,19.176" class="dsZiMXuI_12"></path>
	<path fill="none" stroke="#A89877" stroke-width="15" stroke-linecap="square" stroke-linejoin="round" stroke-miterlimit="10" d="
		M839.911,886.259c0,0-17.788,36.234,35.942,45.234" class="dsZiMXuI_13"></path>
</g>
<path fill="#A89877" d="M240.698,418.315c0,1.465-2.808,2.972-8.423,4.517c-3.662,0.977-6.756,4.314-9.277,10.01
	c-14.648,32.553-27.752,58.798-39.307,78.735c-0.244,0.488-0.854,0.69-1.831,0.61c-0.896-0.082-1.507-0.366-1.831-0.854
	c-1.953-2.93-6.958-13.142-15.015-30.64c-7.406-16.113-11.395-24.17-11.963-24.17c-0.896,0-5.249,7.772-13.062,23.315
	c-8.871,17.334-14.12,27.222-15.747,29.663c-0.244,0.568-0.814,0.813-1.709,0.732c-0.896,0-1.587-0.326-2.075-0.977
	c-5.941-9.277-19.613-34.668-41.016-76.172c-2.441-4.883-5.169-7.975-8.179-9.277c-5.209-2.277-7.813-3.946-7.813-5.005
	c0-3.174,1.749-4.597,5.249-4.272c15.705,1.629,29.459,1.303,41.26-0.977c2.686-0.488,4.028,0.408,4.028,2.686
	c0,3.174-1.831,5.209-5.493,6.104c-4.803,1.141-7.202,2.93-7.202,5.371c0,1.547,0.568,3.826,1.709,6.836
	c2.93,7.568,7.324,17.172,13.184,28.809c5.859,11.639,9.277,17.456,10.254,17.456c0.65,0,4.108-6.062,10.376-18.188
	c6.266-12.125,9.399-18.839,9.399-20.142c0-3.174-1.059-6.592-3.174-10.254c-2.523-5.371-5.453-8.585-8.789-9.644
	c-5.371-1.871-8.057-3.702-8.057-5.493c0-3.254,1.831-4.597,5.493-4.028c12.531,1.709,25.797,1.385,39.795-0.977
	c2.686-0.488,4.028,0.326,4.028,2.441c0,3.094-1.995,5.005-5.981,5.737c-4.721,0.896-7.08,3.296-7.08,7.202
	c0,1.873,0.528,4.07,1.587,6.592c12.531,30.682,19.775,46.021,21.729,46.021c0.732,0,3.986-5.981,9.766-17.944
	c6.184-12.775,10.498-23.071,12.939-30.884c0.162-0.406,0.244-0.854,0.244-1.343c0-3.498-2.728-6.226-8.179-8.179
	c-4.232-1.383-6.348-2.93-6.348-4.639c0-2.848,1.343-3.946,4.028-3.296c3.662,0.814,10.254,1.425,19.775,1.831
	c8.951,0.326,14.851,0.286,17.7-0.122C239.029,415.102,240.698,416.038,240.698,418.315z" class="dsZiMXuI_14"></path>
<path fill="#A89877" d="M362.28,458.843c0,14.16-5.249,26.144-15.747,35.95s-23.52,14.709-39.063,14.709
	c-15.545,0-27.832-4.313-36.865-12.939c-8.709-8.463-13.062-19.653-13.062-33.569c0-14.404,5.493-26.529,16.479-36.377
	c10.66-9.521,23.396-14.282,38.208-14.282c15.869,0,28.238,4.272,37.109,12.817C357.966,433.452,362.28,444.683,362.28,458.843z
	 M340.796,466.289c0-12.775-3.094-23.151-9.277-31.128c-6.023-7.73-13.672-11.597-22.949-11.597c-8.627,0-15.667,3.032-21.118,9.094
	c-5.453,6.063-8.179,13.449-8.179,22.156c0,13.998,3.174,24.902,9.521,32.715c5.859,7.162,13.508,10.742,22.949,10.742
	c8.951,0,16.031-2.97,21.24-8.911C338.19,483.421,340.796,475.73,340.796,466.289z" class="dsZiMXuI_15"></path>
<path fill="#A89877" d="M486.548,458.843c0,14.16-5.249,26.144-15.747,35.95s-23.52,14.709-39.063,14.709
	c-15.545,0-27.832-4.313-36.865-12.939c-8.709-8.463-13.062-19.653-13.062-33.569c0-14.404,5.493-26.529,16.479-36.377
	c10.66-9.521,23.396-14.282,38.208-14.282c15.869,0,28.238,4.272,37.109,12.817C482.233,433.452,486.548,444.683,486.548,458.843z
	 M465.063,466.289c0-12.775-3.094-23.151-9.277-31.128c-6.023-7.73-13.672-11.597-22.949-11.597c-8.627,0-15.667,3.032-21.118,9.094
	c-5.453,6.063-8.179,13.449-8.179,22.156c0,13.998,3.174,24.902,9.521,32.715c5.859,7.162,13.508,10.742,22.949,10.742
	c8.951,0,16.031-2.97,21.24-8.911C462.458,483.421,465.063,475.73,465.063,466.289z" class="dsZiMXuI_16"></path>
<path fill="#A89877" d="M597.754,341.533c0,3.418-1.547,7.406-4.639,11.963c-3.094,4.559-5.535,6.836-7.324,6.836
	c-2.197,0-4.517-1.099-6.958-3.296c-5.127-3.662-9.644-5.493-13.55-5.493c-15.463,0-23.193,10.824-23.193,32.471v26.245
	c0,4.07,3.498,5.819,10.498,5.249l15.503-1.221c6.104-0.488,9.439,0.488,10.01,2.93c0.162,0.814,0.244,1.995,0.244,3.54
	c0,3.338-0.814,5.413-2.441,6.226c-0.977,0.57-3.5,0.854-7.568,0.854h-15.503c-6.918,0-10.498,1.465-10.742,4.395
	c-0.164,1.709-0.164,19.409,0,53.101c0,4.559,2.115,7.813,6.348,9.766c3.174,1.547,8.463,2.605,15.869,3.174
	c2.93,0.244,4.7,0.591,5.31,1.037c0.61,0.448,0.916,1.771,0.916,3.968c0,2.523-0.347,4.028-1.038,4.517
	c-0.692,0.488-2.422,0.65-5.188,0.488c-17.986-0.977-34.14-0.732-48.462,0.732c-3.744,0.406-6.023,0.406-6.836,0
	c-0.814-0.408-1.221-1.831-1.221-4.272c0-2.033,2.359-3.702,7.08-5.005c5.615-1.545,8.423-5.615,8.423-12.207v-47.485
	c0-4.963-0.774-8.423-2.319-10.376c-1.059-1.301-3.094-2.441-6.104-3.418c-4.721-1.465-7.08-3.784-7.08-6.958
	c0-2.197,0.977-3.58,2.93-4.15c0.65-0.162,2.686-0.284,6.104-0.366c2.93-0.08,4.761-0.732,5.493-1.953
	c0.488-0.895,0.732-3.092,0.732-6.592v-19.409c0-15.461,6.348-28.116,19.043-37.964c12.125-9.357,27.018-14.038,44.678-14.038
	C594.092,334.819,597.754,337.059,597.754,341.533z" class="dsZiMXuI_17"></path>
<path fill="#A89877" d="M338.71,568.315c0,1.465-2.808,2.972-8.423,4.517c-3.662,0.977-6.756,4.314-9.277,10.01
	c-14.648,32.553-27.752,58.798-39.307,78.735c-0.244,0.488-0.854,0.69-1.831,0.61c-0.896-0.082-1.507-0.366-1.831-0.854
	c-1.953-2.93-6.958-13.142-15.015-30.64c-7.406-16.113-11.395-24.17-11.963-24.17c-0.896,0-5.249,7.772-13.062,23.315
	c-8.871,17.334-14.12,27.222-15.747,29.663c-0.244,0.568-0.814,0.813-1.709,0.732c-0.896,0-1.587-0.326-2.075-0.977
	c-5.941-9.277-19.613-34.668-41.016-76.172c-2.441-4.883-5.169-7.975-8.179-9.277c-5.209-2.277-7.813-3.946-7.813-5.005
	c0-3.174,1.749-4.597,5.249-4.272c15.705,1.629,29.459,1.303,41.26-0.977c2.686-0.488,4.028,0.408,4.028,2.686
	c0,3.174-1.831,5.209-5.493,6.104c-4.803,1.141-7.202,2.93-7.202,5.371c0,1.547,0.568,3.826,1.709,6.836
	c2.93,7.568,7.324,17.172,13.184,28.809c5.859,11.639,9.277,17.456,10.254,17.456c0.65,0,4.108-6.062,10.376-18.188
	c6.266-12.125,9.399-18.839,9.399-20.142c0-3.174-1.059-6.592-3.174-10.254c-2.523-5.371-5.453-8.585-8.789-9.644
	c-5.371-1.871-8.057-3.702-8.057-5.493c0-3.254,1.831-4.597,5.493-4.028c12.531,1.709,25.797,1.385,39.795-0.977
	c2.686-0.488,4.028,0.326,4.028,2.441c0,3.094-1.995,5.005-5.981,5.737c-4.721,0.896-7.08,3.296-7.08,7.202
	c0,1.873,0.528,4.07,1.587,6.592c12.531,30.682,19.775,46.021,21.729,46.021c0.732,0,3.986-5.981,9.766-17.944
	c6.184-12.775,10.498-23.071,12.939-30.884c0.162-0.406,0.244-0.854,0.244-1.343c0-3.498-2.728-6.226-8.179-8.179
	c-4.232-1.383-6.348-2.93-6.348-4.639c0-2.848,1.343-3.946,4.028-3.296c3.662,0.814,10.254,1.425,19.775,1.831
	c8.951,0.326,14.851,0.286,17.7-0.122C337.041,565.102,338.71,566.038,338.71,568.315z" class="dsZiMXuI_18"></path>
<path fill="#A89877" d="M453.334,646.318c0,1.709-3.113,4.293-9.338,7.752s-11.211,5.188-14.954,5.188
	c-3.174,0-5.981-1.545-8.423-4.639c-2.441-3.092-4.15-4.639-5.127-4.639c-0.732,0-4.599,1.669-11.597,5.005
	c-7,3.336-14.038,5.005-21.118,5.005c-6.674,0-12.249-1.953-16.724-5.859c-4.883-4.313-7.324-10.172-7.324-17.578
	c0-14.078,16.113-24.17,48.34-30.273c5.533-1.057,8.341-3.296,8.423-6.714l0.244-7.813c0.488-13.346-5.413-20.02-17.7-20.02
	c-3.5,0-6.817,3.134-9.949,9.399c-3.134,6.268-7.629,9.644-13.489,10.132c-6.674,0.652-10.01-2.155-10.01-8.423
	c0-3.906,4.963-8.463,14.893-13.672c10.416-5.451,20.426-8.179,30.029-8.179c16.52,0,24.698,7.854,24.536,23.56l-0.488,50.293
	c-0.082,5.291,2.155,7.935,6.714,7.935c0.895,0,2.604-0.202,5.127-0.61c2.521-0.406,3.986-0.61,4.395-0.61
	C452.153,641.558,453.334,643.145,453.334,646.318z M415.736,618.486c0.08-2.033-0.387-3.376-1.404-4.028
	c-1.019-0.65-2.625-0.772-4.822-0.366c-19.613,3.5-29.419,9.888-29.419,19.165c0,9.359,5.085,14.038,15.259,14.038
	c4.068,0,8.259-0.772,12.573-2.319c5.045-1.789,7.568-3.946,7.568-6.47L415.736,618.486z" class="dsZiMXuI_19"></path>
<path fill="#A89877" d="M596.4,655.84c0,2.521-1.831,3.662-5.493,3.418c-17.498-0.896-30.762-1.059-39.795-0.488
	c-4.639,0.324-7.162-0.244-7.568-1.709c-0.164-0.488-0.244-1.179-0.244-2.075c0-1.627,2.359-3.092,7.08-4.395
	c4.313-1.221,6.47-5.411,6.47-12.573v-32.471c0-18.635-8.099-27.954-24.292-27.954c-7.244,0-13.958,1.709-20.142,5.127
	c-5.859,3.338-8.789,6.796-8.789,10.376v44.678c0,7.65,5.005,11.923,15.015,12.817c3.824,0.326,5.737,1.547,5.737,3.662
	c0,2.035-0.53,3.256-1.587,3.662c-0.488,0.162-1.873,0.202-4.15,0.122c-12.777-0.488-25.961,0.162-39.551,1.953
	c-2.93,0.406-4.761,0.528-5.493,0.366c-1.629-0.326-2.441-1.587-2.441-3.784c0-1.953,2.319-3.62,6.958-5.005
	c4.313-1.301,6.47-6.714,6.47-16.235v-36.987c0-6.266-0.814-10.254-2.441-11.963c-1.141-1.221-4.925-2.93-11.353-5.127
	c-1.629-0.568-2.441-1.709-2.441-3.418c0-1.627,1.667-3.052,5.005-4.272c4.557-1.709,9.562-4.435,15.015-8.179
	c4.557-3.092,7.486-4.639,8.789-4.639c2.197,0,3.662,2.503,4.395,7.507c0.732,5.006,1.749,7.508,3.052,7.508
	c-0.652,0,3.498-2.381,12.451-7.141c8.951-4.762,17.78-7.142,26.489-7.142c21.076,0,31.696,12.005,31.86,36.011l0.244,39.307
	c0,5.047,1.301,8.667,3.906,10.864c1.953,1.629,5.737,3.012,11.353,4.15C594.569,652.544,596.4,653.887,596.4,655.84z" class="dsZiMXuI_20"></path>
<path fill="#A89877" d="M673.473,646.279c0,3.906-3.582,7.244-10.742,10.01c-6.348,2.441-12.777,3.662-19.287,3.662
	c-17.66,0-26.489-9.399-26.489-28.198v-44.189c0-5.615-0.448-9.053-1.343-10.315c-0.896-1.261-3.866-2.502-8.911-3.723
	c-1.303-0.324-1.953-1.587-1.953-3.784c0-2.359,0.488-3.784,1.465-4.272c8.789-4.313,16.438-12.043,22.949-23.193
	c0.895-1.545,2.644-2.033,5.249-1.465c1.789,0.57,2.726,1.629,2.808,3.174l0.488,15.259c0,1.141,0.202,1.953,0.61,2.441
	c0.568,0.732,1.871,1.099,3.906,1.099h27.222c1.545,0,1.545,1.913,0,5.737c-1.873,4.639-4.639,6.958-8.301,6.958h-18.433
	c-3.174,0-5.127,0.53-5.859,1.587c-0.57,0.732-0.854,2.728-0.854,5.981v39.917c0,10.092,0.895,16.479,2.686,19.165
	c2.359,3.418,7.853,5.127,16.479,5.127c2.848,0,6.306-0.468,10.376-1.404c4.068-0.935,6.226-1.403,6.47-1.403
	C672.985,644.448,673.473,645.059,673.473,646.279z" class="dsZiMXuI_21"></path>
<g>
	<path fill="#F1BF96" d="M227.081,410.952c0,1.465-2.808,2.972-8.423,4.517c-3.662,0.977-6.756,4.314-9.277,10.01
		c-14.648,32.553-27.752,58.798-39.307,78.735c-0.244,0.488-0.854,0.69-1.831,0.61c-0.896-0.082-1.507-0.366-1.831-0.854
		c-1.953-2.93-6.958-13.142-15.015-30.64c-7.406-16.113-11.395-24.17-11.963-24.17c-0.896,0-5.249,7.772-13.062,23.315
		c-8.871,17.334-14.12,27.222-15.747,29.663c-0.244,0.568-0.814,0.813-1.709,0.732c-0.896,0-1.587-0.326-2.075-0.977
		c-5.941-9.277-19.613-34.668-41.016-76.172c-2.441-4.883-5.169-7.975-8.179-9.277c-5.209-2.277-7.813-3.946-7.813-5.005
		c0-3.174,1.749-4.597,5.249-4.272c15.705,1.629,29.459,1.303,41.26-0.977c2.686-0.488,4.028,0.408,4.028,2.686
		c0,3.174-1.831,5.209-5.493,6.104c-4.803,1.141-7.202,2.93-7.202,5.371c0,1.547,0.568,3.826,1.709,6.836
		c2.93,7.568,7.324,17.172,13.184,28.809c5.859,11.639,9.277,17.456,10.254,17.456c0.65,0,4.108-6.062,10.376-18.188
		c6.266-12.125,9.399-18.839,9.399-20.142c0-3.174-1.059-6.592-3.174-10.254c-2.523-5.371-5.453-8.585-8.789-9.644
		c-5.371-1.871-8.057-3.702-8.057-5.493c0-3.254,1.831-4.597,5.493-4.028c12.531,1.709,25.797,1.385,39.795-0.977
		c2.686-0.488,4.028,0.326,4.028,2.441c0,3.094-1.995,5.005-5.981,5.737c-4.721,0.896-7.08,3.296-7.08,7.202
		c0,1.873,0.528,4.07,1.587,6.592c12.531,30.682,19.775,46.021,21.729,46.021c0.732,0,3.986-5.981,9.766-17.944
		c6.184-12.775,10.498-23.071,12.939-30.884c0.162-0.406,0.244-0.854,0.244-1.343c0-3.498-2.728-6.226-8.179-8.179
		c-4.232-1.383-6.348-2.93-6.348-4.639c0-2.848,1.343-3.946,4.028-3.296c3.662,0.814,10.254,1.425,19.775,1.831
		c8.951,0.326,14.851,0.286,17.7-0.122C225.412,407.738,227.081,408.675,227.081,410.952z" class="dsZiMXuI_22"></path>
	<path fill="#F1BF96" d="M168.636,505.341c-0.136,0-0.281-0.006-0.434-0.019c-1.056-0.097-1.796-0.458-2.207-1.076
		c-1.96-2.939-7.024-13.271-15.052-30.707c-8.375-18.222-10.865-22.817-11.572-23.764c-0.83,0.803-3.589,5.093-12.552,22.925
		c-8.84,17.273-14.148,27.27-15.778,29.716c-0.178,0.439-0.772,1.084-2.169,0.953c-0.003,0-0.005,0-0.008,0
		c-1.008,0-1.838-0.396-2.423-1.175c-5.943-9.277-19.75-34.919-41.06-76.242c-2.378-4.756-5.046-7.799-7.933-9.048
		c-7.15-3.126-8.114-4.517-8.114-5.464c0-3.461,1.98-5.115,5.795-4.771c6.501,0.675,12.747,1.016,18.569,1.016
		c8.142,0,15.729-0.668,22.55-1.985c3.03-0.549,4.623,0.61,4.623,3.177c0,3.42-1.977,5.637-5.875,6.589
		c-4.527,1.075-6.821,2.719-6.821,4.886c0,1.483,0.564,3.724,1.677,6.659c2.91,7.518,7.339,17.194,13.163,28.761
		c7.068,14.04,9.151,16.706,9.757,17.13c0.611-0.595,2.745-3.865,9.981-17.867c7.723-14.944,9.344-19.077,9.344-19.912
		c0-3.069-1.045-6.435-3.107-10.004c-2.469-5.251-5.325-8.407-8.507-9.417c-5.66-1.972-8.405-3.923-8.405-5.97
		c0-3.551,2.084-5.142,6.07-4.522c12.406,1.69,25.757,1.366,39.635-0.976c2.967-0.537,4.611,0.523,4.611,2.935
		c0,3.354-2.15,5.45-6.391,6.229c-4.487,0.852-6.67,3.047-6.67,6.71c0,1.799,0.521,3.952,1.548,6.398
		c15.674,38.376,20.023,45.195,21.207,45.69c0.573-0.484,2.566-3.541,9.376-17.639c6.146-12.698,10.491-23.066,12.913-30.815
		c0.151-0.383,0.221-0.772,0.221-1.193c0-3.249-2.64-5.843-7.847-7.708c-4.49-1.467-6.679-3.14-6.679-5.109
		c0-3.287,1.724-3.978,3.169-3.978c0.444,0,0.941,0.066,1.477,0.195c3.607,0.803,10.231,1.415,19.679,1.817
		c3.955,0.145,7.358,0.218,10.112,0.218c0,0,0.001,0,0.001,0c3.423,0,5.944-0.112,7.495-0.335c0.533-0.064,1.024-0.097,1.47-0.097
		c3.393,0,4.105,1.849,4.105,3.399c0,1.761-2.793,3.349-8.79,4.999c-3.496,0.932-6.507,4.205-8.953,9.729
		c-14.583,32.409-27.816,58.915-39.331,78.784C170.222,505.037,169.587,505.341,168.636,505.341z M139.435,448.66
		c0.55,0,1.174,0,12.417,24.461c8.006,17.389,13.045,27.674,14.977,30.571c0.235,0.354,0.726,0.566,1.46,0.634
		c0.704,0.06,1.198-0.055,1.338-0.336c11.513-19.866,24.729-46.342,39.298-78.717c2.573-5.813,5.805-9.274,9.604-10.288
		c7.267-1.999,8.052-3.486,8.052-4.033c0-1.03-0.322-2.399-3.105-2.399c-0.406,0-0.856,0.029-1.339,0.088
		c-1.587,0.228-4.156,0.344-7.626,0.344c0,0,0,0-0.001,0c-2.766,0-6.181-0.073-10.151-0.218c-9.509-0.406-16.192-1.026-19.866-1.843
		c-0.468-0.113-0.885-0.17-1.25-0.17c-0.931,0-2.169,0.309-2.169,2.978c0,1.44,2.076,2.88,6.003,4.163
		c5.66,2.028,8.523,4.938,8.523,8.654c0,0.549-0.094,1.063-0.28,1.528c-2.423,7.759-6.786,18.173-12.954,30.916
		c-8.805,18.227-9.621,18.227-10.216,18.227c-0.978,0-3.269,0-22.191-46.331c-1.077-2.565-1.624-4.849-1.624-6.781
		c0-4.161,2.519-6.75,7.487-7.693c3.752-0.689,5.575-2.405,5.575-5.246c0-1.801-1.101-2.378-3.439-1.949
		c-13.99,2.359-27.425,2.688-39.952,0.979c-3.39-0.518-4.925,0.582-4.926,3.533c0,1.063,1.339,2.798,7.721,5.021
		c3.446,1.093,6.504,4.426,9.077,9.902c2.131,3.686,3.221,7.22,3.221,10.467c0,0.891-0.98,3.971-9.455,20.371
		c-9.54,18.459-10.28,18.459-10.82,18.459c-0.62,0-1.774,0-10.701-17.731c-5.838-11.594-10.28-21.302-13.203-28.853
		c-1.173-3.096-1.743-5.39-1.743-7.017c0-2.691,2.553-4.662,7.586-5.857c3.437-0.84,5.109-2.677,5.109-5.617
		c0-1.972-1.094-2.625-3.439-2.193c-6.878,1.328-14.529,2.002-22.734,2.002c-5.856,0-12.137-0.343-18.667-1.021
		c-0.303-0.027-0.597-0.042-0.877-0.042c-2.606,0-3.82,1.213-3.82,3.817c0,0.211,0.362,1.421,7.513,4.547
		c3.107,1.345,5.942,4.545,8.426,9.512c21.292,41.291,35.084,66.905,40.989,76.126c0.372,0.492,0.919,0.746,1.654,0.746
		c0.14,0.011,0.23,0.015,0.316,0.015c0.742,0,0.881-0.323,0.933-0.444c1.652-2.494,6.94-12.458,15.761-29.693
		C137.784,448.66,138.817,448.66,139.435,448.66z" class="dsZiMXuI_23"></path>
</g>
<g>
	<path fill="#F1BF96" d="M348.663,451.479c0,14.16-5.249,26.144-15.747,35.95s-23.52,14.709-39.063,14.709
		c-15.545,0-27.832-4.313-36.865-12.939c-8.709-8.463-13.062-19.653-13.062-33.569c0-14.404,5.493-26.529,16.479-36.377
		c10.66-9.521,23.396-14.282,38.208-14.282c15.869,0,28.238,4.272,37.109,12.817C344.349,426.089,348.663,437.319,348.663,451.479z
		 M327.179,458.926c0-12.775-3.094-23.151-9.277-31.128c-6.023-7.73-13.672-11.597-22.949-11.597
		c-8.627,0-15.667,3.032-21.118,9.094c-5.453,6.063-8.179,13.449-8.179,22.156c0,13.998,3.174,24.902,9.521,32.715
		c5.859,7.162,13.508,10.742,22.949,10.742c8.951,0,16.031-2.97,21.24-8.911C324.573,476.058,327.179,468.367,327.179,458.926z" class="dsZiMXuI_24"></path>
	<path fill="#F1BF96" d="M293.854,502.639c-15.604,0-28.124-4.4-37.21-13.078c-8.771-8.522-13.216-19.938-13.216-33.931
		c0-14.484,5.601-26.849,16.646-36.749c10.705-9.563,23.672-14.41,38.542-14.41c15.928,0,28.53,4.359,37.456,12.957
		c8.688,8.361,13.093,19.817,13.093,34.052c0,14.238-5.352,26.456-15.906,36.315C322.713,497.645,309.456,502.639,293.854,502.639z
		 M298.614,405.471c-14.616,0-27.359,4.763-37.875,14.155c-10.824,9.702-16.313,21.815-16.313,36.004
		c0,13.713,4.344,24.887,12.91,33.211c8.891,8.491,21.178,12.798,36.517,12.798c15.341,0,28.369-4.903,38.721-14.574
		c10.344-9.662,15.588-21.635,15.588-35.585c0-13.951-4.302-25.166-12.786-33.331C326.644,409.736,314.275,405.471,298.614,405.471z
		 M298.126,491.408c-9.554,0-17.405-3.676-23.336-10.926c-6.393-7.868-9.634-18.981-9.634-33.031c0-8.795,2.795-16.361,8.307-22.49
		c5.525-6.145,12.755-9.26,21.49-9.26c9.394,0,17.248,3.967,23.344,11.789c6.226,8.032,9.383,18.608,9.383,31.436
		c0,9.521-2.67,17.394-7.937,23.401C314.459,488.353,307.186,491.408,298.126,491.408z M294.952,416.701
		c-8.438,0-15.418,3.004-20.747,8.928c-5.342,5.94-8.05,13.282-8.05,21.822c0,13.814,3.166,24.715,9.41,32.399
		c5.73,7.005,13.322,10.558,22.561,10.558c8.76,0,15.779-2.94,20.864-8.741c5.102-5.818,7.688-13.471,7.688-22.741
		c0-12.601-3.086-22.971-9.172-30.821C311.611,420.538,304.022,416.701,294.952,416.701z" class="dsZiMXuI_25"></path>
</g>
<g>
	<path fill="#F1BF96" d="M472.931,451.479c0,14.16-5.249,26.144-15.747,35.95s-23.52,14.709-39.063,14.709
		c-15.545,0-27.832-4.313-36.865-12.939c-8.709-8.463-13.062-19.653-13.062-33.569c0-14.404,5.493-26.529,16.479-36.377
		c10.66-9.521,23.396-14.282,38.208-14.282c15.869,0,28.238,4.272,37.109,12.817C468.616,426.089,472.931,437.319,472.931,451.479z
		 M451.446,458.926c0-12.775-3.094-23.151-9.277-31.128c-6.023-7.73-13.672-11.597-22.949-11.597
		c-8.627,0-15.667,3.032-21.118,9.094c-5.453,6.063-8.179,13.449-8.179,22.156c0,13.998,3.174,24.902,9.521,32.715
		c5.859,7.162,13.508,10.742,22.949,10.742c8.951,0,16.031-2.97,21.24-8.911C448.841,476.058,451.446,468.367,451.446,458.926z" class="dsZiMXuI_26"></path>
	<path fill="#F1BF96" d="M418.121,502.639c-15.604,0-28.124-4.4-37.21-13.078c-8.771-8.522-13.216-19.938-13.216-33.931
		c0-14.484,5.601-26.849,16.646-36.749c10.705-9.563,23.672-14.41,38.542-14.41c15.928,0,28.53,4.359,37.456,12.957
		c8.688,8.361,13.093,19.817,13.093,34.052c0,14.238-5.352,26.456-15.906,36.315C446.981,497.645,433.724,502.639,418.121,502.639z
		 M422.882,405.471c-14.616,0-27.359,4.763-37.875,14.155c-10.824,9.702-16.313,21.815-16.313,36.004
		c0,13.713,4.344,24.887,12.91,33.211c8.891,8.491,21.178,12.798,36.517,12.798c15.341,0,28.369-4.903,38.721-14.574
		c10.344-9.662,15.588-21.635,15.588-35.585c0-13.951-4.302-25.166-12.786-33.331C450.911,409.736,438.542,405.471,422.882,405.471z
		 M422.394,491.408c-9.554,0-17.405-3.676-23.336-10.926c-6.393-7.868-9.634-18.981-9.634-33.031c0-8.795,2.795-16.361,8.307-22.49
		c5.525-6.145,12.755-9.26,21.49-9.26c9.394,0,17.248,3.967,23.344,11.789c6.226,8.032,9.383,18.608,9.383,31.436
		c0,9.521-2.67,17.394-7.937,23.401C438.727,488.353,431.454,491.408,422.394,491.408z M419.22,416.701
		c-8.438,0-15.418,3.004-20.747,8.928c-5.342,5.94-8.05,13.282-8.05,21.822c0,13.814,3.166,24.715,9.41,32.399
		c5.73,7.005,13.322,10.558,22.561,10.558c8.76,0,15.779-2.94,20.864-8.741c5.102-5.818,7.688-13.471,7.688-22.741
		c0-12.601-3.086-22.971-9.172-30.821C435.878,420.538,428.29,416.701,419.22,416.701z" class="dsZiMXuI_27"></path>
</g>
<g>
	<path fill="#F1BF96" d="M584.137,334.17c0,3.418-1.547,7.406-4.639,11.963c-3.094,4.559-5.535,6.836-7.324,6.836
		c-2.197,0-4.517-1.099-6.958-3.296c-5.127-3.662-9.644-5.493-13.55-5.493c-15.463,0-23.193,10.824-23.193,32.471v26.245
		c0,4.07,3.498,5.819,10.498,5.249l15.503-1.221c6.104-0.488,9.439,0.488,10.01,2.93c0.162,0.814,0.244,1.995,0.244,3.54
		c0,3.338-0.814,5.413-2.441,6.226c-0.977,0.57-3.5,0.854-7.568,0.854h-15.503c-6.918,0-10.498,1.465-10.742,4.395
		c-0.164,1.709-0.164,19.409,0,53.101c0,4.559,2.115,7.813,6.348,9.766c3.174,1.547,8.463,2.605,15.869,3.174
		c2.93,0.244,4.7,0.591,5.31,1.037c0.61,0.448,0.916,1.771,0.916,3.968c0,2.523-0.347,4.028-1.038,4.517
		c-0.692,0.488-2.422,0.65-5.188,0.488c-17.986-0.977-34.14-0.732-48.462,0.732c-3.744,0.406-6.023,0.406-6.836,0
		c-0.814-0.408-1.221-1.831-1.221-4.272c0-2.033,2.359-3.702,7.08-5.005c5.615-1.545,8.423-5.615,8.423-12.207v-47.485
		c0-4.963-0.774-8.423-2.319-10.376c-1.059-1.301-3.094-2.441-6.104-3.418c-4.721-1.465-7.08-3.784-7.08-6.958
		c0-2.197,0.977-3.58,2.93-4.15c0.65-0.162,2.686-0.284,6.104-0.366c2.93-0.08,4.761-0.732,5.493-1.953
		c0.488-0.895,0.732-3.092,0.732-6.592v-19.409c0-15.461,6.348-28.116,19.043-37.964c12.125-9.357,27.018-14.038,44.678-14.038
		C580.475,327.456,584.137,329.695,584.137,334.17z" class="dsZiMXuI_28"></path>
	<path fill="#F1BF96" d="M497.71,502.455c-1.247,0-2.055-0.113-2.542-0.357c-1.021-0.512-1.497-2.012-1.497-4.72
		c0-2.31,2.436-4.104,7.447-5.487c5.421-1.491,8.056-5.326,8.056-11.725v-47.485c0-4.824-0.744-8.211-2.211-10.065
		c-0.989-1.215-2.964-2.312-5.866-3.253c-4.925-1.528-7.426-4.03-7.426-7.434c0-2.436,1.107-3.993,3.29-4.63
		c0.712-0.179,2.744-0.303,6.231-0.387c2.732-0.074,4.44-0.65,5.077-1.71c0.296-0.544,0.661-2.102,0.661-6.335v-19.409
		c0-15.552,6.472-28.458,19.236-38.359c12.161-9.385,27.295-14.143,44.984-14.143c7.622,0,11.486,2.427,11.486,7.214
		c0,3.504-1.59,7.623-4.725,12.243c-3.222,4.748-5.753,7.056-7.738,7.056c-2.314,0-4.768-1.152-7.292-3.424
		c-4.973-3.549-9.434-5.365-13.215-5.365c-15.271,0-22.693,10.458-22.693,31.971v26.245c0,3.738,3.289,5.287,9.958,4.751
		l15.504-1.221c6.378-0.51,9.901,0.596,10.536,3.314c0.172,0.861,0.257,2.086,0.257,3.653c0,3.527-0.915,5.772-2.718,6.673
		c-1.034,0.605-3.592,0.907-7.792,0.907h-15.503c-6.58,0-10.026,1.324-10.244,3.937c-0.162,1.69-0.161,19.539,0.002,53.057
		c0,4.387,1.981,7.433,6.057,9.313c3.113,1.518,8.392,2.568,15.698,3.129c4.066,0.339,5.125,0.809,5.567,1.133
		c0.765,0.562,1.121,1.95,1.121,4.371c0,2.758-0.397,4.322-1.249,4.925c-0.813,0.574-2.546,0.753-5.506,0.579
		c-7.15-0.388-14.106-0.585-20.675-0.585c-9.849,0-19.17,0.442-27.707,1.315C500.4,502.352,498.862,502.455,497.71,502.455z
		 M573.15,327.956c-17.463,0-32.392,4.688-44.372,13.934c-12.507,9.701-18.849,22.342-18.849,37.568v19.409
		c0,3.618-0.26,5.854-0.793,6.831c-0.845,1.409-2.778,2.128-5.918,2.214c-4.194,0.101-5.576,0.246-5.996,0.352
		c-1.71,0.5-2.551,1.7-2.551,3.665c0,2.956,2.201,5.075,6.728,6.48c3.138,1.019,5.211,2.188,6.343,3.58
		c1.638,2.07,2.432,5.565,2.432,10.691v47.485c0,6.815-2.958,11.084-8.79,12.689c-4.454,1.229-6.713,2.751-6.713,4.522
		c0,2.916,0.592,3.648,0.945,3.825c0.188,0.094,0.71,0.252,2.095,0.252c1.116,0,2.618-0.102,4.463-0.302
		c8.573-0.877,17.929-1.321,27.812-1.321c6.586,0,13.561,0.197,20.731,0.587c0.682,0.04,1.298,0.06,1.852,0.06
		c2.064,0,2.778-0.286,3.021-0.457c0.308-0.219,0.826-1.042,0.826-4.108c0-2.746-0.498-3.407-0.711-3.564
		c-0.3-0.22-1.356-0.634-5.056-0.942c-7.429-0.57-12.829-1.654-16.047-3.223c-4.395-2.028-6.628-5.466-6.628-10.215
		c-0.166-34.021-0.165-51.406,0.002-53.148c0.271-3.259,3.948-4.847,11.24-4.847h15.503c4.934,0,6.702-0.428,7.316-0.786
		c1.465-0.733,2.193-2.677,2.193-5.794c0-1.502-0.079-2.66-0.234-3.442c-0.496-2.12-3.717-2.981-9.479-2.529l-15.504,1.221
		c-7.331,0.603-11.037-1.341-11.037-5.747V376.65c0-21.878,7.972-32.971,23.693-32.971c3.994,0,8.651,1.88,13.84,5.586
		c2.379,2.138,4.608,3.203,6.667,3.203c1.104,0,3.199-1.147,6.911-6.617c3.021-4.451,4.552-8.382,4.552-11.682
		C583.637,329.988,580.207,327.956,573.15,327.956z" class="dsZiMXuI_29"></path>
</g>
<g>
	<path fill="#F1BF96" d="M325.093,560.952c0,1.465-2.808,2.972-8.423,4.517c-3.662,0.977-6.756,4.314-9.277,10.01
		c-14.648,32.553-27.752,58.798-39.307,78.735c-0.244,0.488-0.854,0.69-1.831,0.61c-0.896-0.082-1.507-0.366-1.831-0.854
		c-1.953-2.93-6.958-13.142-15.015-30.64c-7.406-16.113-11.395-24.17-11.963-24.17c-0.896,0-5.249,7.772-13.062,23.315
		c-8.871,17.334-14.12,27.222-15.747,29.663c-0.244,0.568-0.814,0.813-1.709,0.732c-0.896,0-1.587-0.326-2.075-0.977
		c-5.941-9.277-19.613-34.668-41.016-76.172c-2.441-4.883-5.169-7.975-8.179-9.277c-5.209-2.277-7.813-3.946-7.813-5.005
		c0-3.174,1.749-4.597,5.249-4.272c15.705,1.629,29.459,1.303,41.26-0.977c2.686-0.488,4.028,0.408,4.028,2.686
		c0,3.174-1.831,5.209-5.493,6.104c-4.803,1.141-7.202,2.93-7.202,5.371c0,1.547,0.568,3.826,1.709,6.836
		c2.93,7.568,7.324,17.172,13.184,28.809c5.859,11.639,9.277,17.456,10.254,17.456c0.65,0,4.108-6.062,10.376-18.188
		c6.266-12.125,9.399-18.839,9.399-20.142c0-3.174-1.059-6.592-3.174-10.254c-2.523-5.371-5.453-8.585-8.789-9.644
		c-5.371-1.871-8.057-3.702-8.057-5.493c0-3.254,1.831-4.597,5.493-4.028c12.531,1.709,25.797,1.385,39.795-0.977
		c2.686-0.488,4.028,0.326,4.028,2.441c0,3.094-1.995,5.005-5.981,5.737c-4.721,0.896-7.08,3.296-7.08,7.202
		c0,1.873,0.528,4.07,1.587,6.592c12.531,30.682,19.775,46.021,21.729,46.021c0.732,0,3.986-5.981,9.766-17.944
		c6.184-12.775,10.498-23.071,12.939-30.884c0.162-0.406,0.244-0.854,0.244-1.343c0-3.498-2.728-6.226-8.179-8.179
		c-4.232-1.383-6.348-2.93-6.348-4.639c0-2.848,1.343-3.946,4.028-3.296c3.662,0.814,10.254,1.425,19.775,1.831
		c8.951,0.326,14.851,0.286,17.7-0.122C323.424,557.738,325.093,558.675,325.093,560.952z" class="dsZiMXuI_30"></path>
	<path fill="#F1BF96" d="M266.648,655.341c-0.136,0-0.281-0.006-0.434-0.019c-1.056-0.097-1.796-0.458-2.207-1.076
		c-1.96-2.939-7.024-13.271-15.052-30.707c-8.375-18.222-10.865-22.817-11.572-23.764c-0.83,0.803-3.589,5.093-12.552,22.925
		c-8.84,17.273-14.148,27.27-15.778,29.716c-0.178,0.438-0.772,1.086-2.169,0.953c-0.003,0-0.005,0-0.008,0
		c-1.008,0-1.838-0.396-2.423-1.175c-5.943-9.277-19.75-34.919-41.06-76.242c-2.378-4.756-5.046-7.799-7.933-9.048
		c-7.15-3.126-8.114-4.517-8.114-5.464c0-3.461,1.981-5.117,5.795-4.771c6.501,0.675,12.747,1.016,18.569,1.016
		c8.142,0,15.729-0.668,22.55-1.985c3.03-0.548,4.623,0.61,4.623,3.177c0,3.42-1.977,5.637-5.875,6.589
		c-4.527,1.075-6.821,2.719-6.821,4.886c0,1.483,0.564,3.724,1.677,6.659c2.91,7.518,7.339,17.194,13.163,28.761
		c7.068,14.04,9.151,16.706,9.757,17.13c0.611-0.595,2.745-3.865,9.981-17.867c7.723-14.944,9.344-19.077,9.344-19.912
		c0-3.069-1.045-6.435-3.107-10.004c-2.469-5.251-5.325-8.407-8.507-9.417c-5.66-1.972-8.405-3.923-8.405-5.97
		c0-3.551,2.086-5.141,6.07-4.522c12.406,1.691,25.757,1.366,39.635-0.976c2.967-0.54,4.611,0.523,4.611,2.935
		c0,3.354-2.15,5.45-6.391,6.229c-4.487,0.852-6.67,3.047-6.67,6.71c0,1.799,0.521,3.952,1.548,6.398
		c15.674,38.376,20.023,45.195,21.207,45.69c0.573-0.484,2.566-3.541,9.376-17.639c6.146-12.698,10.491-23.066,12.913-30.815
		c0.151-0.383,0.221-0.772,0.221-1.193c0-3.249-2.64-5.843-7.847-7.708c-4.49-1.467-6.679-3.14-6.679-5.109
		c0-3.287,1.724-3.978,3.169-3.978c0.444,0,0.941,0.066,1.477,0.195c3.607,0.803,10.231,1.415,19.679,1.817
		c3.955,0.145,7.358,0.218,10.112,0.218c0,0,0.001,0,0.001,0c3.423,0,5.944-0.112,7.495-0.335c0.533-0.064,1.024-0.097,1.47-0.097
		c3.393,0,4.105,1.849,4.105,3.399c0,1.761-2.793,3.349-8.79,4.999c-3.496,0.932-6.507,4.205-8.953,9.729
		c-14.583,32.409-27.816,58.915-39.331,78.784C268.233,655.037,267.599,655.341,266.648,655.341z M237.446,598.66
		c0.55,0,1.174,0,12.417,24.461c8.006,17.389,13.045,27.674,14.977,30.571c0.235,0.354,0.726,0.566,1.46,0.634
		c0.703,0.056,1.199-0.055,1.338-0.336c11.513-19.866,24.729-46.342,39.298-78.717c2.573-5.813,5.805-9.274,9.604-10.288
		c7.267-1.999,8.052-3.486,8.052-4.033c0-1.03-0.322-2.399-3.105-2.399c-0.406,0-0.856,0.029-1.339,0.088
		c-1.587,0.228-4.156,0.344-7.626,0.344c0,0,0,0-0.001,0c-2.766,0-6.181-0.073-10.151-0.218c-9.509-0.406-16.192-1.026-19.866-1.843
		c-0.468-0.113-0.885-0.17-1.25-0.17c-0.931,0-2.169,0.309-2.169,2.978c0,1.44,2.076,2.88,6.003,4.163
		c5.66,2.028,8.523,4.938,8.523,8.654c0,0.549-0.094,1.063-0.28,1.528c-2.423,7.759-6.786,18.173-12.954,30.916
		c-8.805,18.227-9.621,18.227-10.216,18.227c-0.978,0-3.269,0-22.191-46.331c-1.077-2.565-1.624-4.849-1.624-6.781
		c0-4.161,2.519-6.75,7.487-7.693c3.752-0.689,5.575-2.405,5.575-5.246c0-1.802-1.102-2.376-3.439-1.949
		c-13.989,2.359-27.425,2.688-39.952,0.979c-3.39-0.522-4.925,0.582-4.926,3.533c0,1.063,1.339,2.798,7.721,5.021
		c3.446,1.093,6.504,4.426,9.077,9.902c2.131,3.686,3.221,7.22,3.221,10.467c0,0.891-0.98,3.971-9.455,20.371
		c-9.54,18.459-10.28,18.459-10.82,18.459c-0.62,0-1.774,0-10.701-17.731c-5.838-11.594-10.28-21.302-13.203-28.853
		c-1.173-3.096-1.743-5.39-1.743-7.017c0-2.691,2.553-4.662,7.586-5.857c3.437-0.84,5.109-2.677,5.109-5.617
		c0-1.972-1.092-2.623-3.439-2.193c-6.878,1.328-14.529,2.002-22.734,2.002c-5.856,0-12.137-0.343-18.667-1.021
		c-0.303-0.027-0.597-0.042-0.877-0.042c-2.606,0-3.82,1.213-3.82,3.817c0,0.211,0.362,1.421,7.513,4.547
		c3.107,1.345,5.942,4.545,8.426,9.512c21.292,41.291,35.084,66.905,40.989,76.126c0.372,0.492,0.919,0.746,1.654,0.746
		c0.14,0.011,0.23,0.015,0.316,0.015c0.742,0,0.881-0.323,0.933-0.444c1.652-2.494,6.94-12.458,15.761-29.693
		C235.796,598.66,236.829,598.66,237.446,598.66z" class="dsZiMXuI_31"></path>
</g>
<g>
	<path fill="#F1BF96" d="M439.717,638.955c0,1.709-3.113,4.293-9.338,7.752s-11.211,5.188-14.954,5.188
		c-3.174,0-5.981-1.545-8.423-4.639c-2.441-3.092-4.15-4.639-5.127-4.639c-0.732,0-4.599,1.669-11.597,5.005
		c-7,3.336-14.038,5.005-21.118,5.005c-6.674,0-12.249-1.953-16.724-5.859c-4.883-4.313-7.324-10.172-7.324-17.578
		c0-14.078,16.113-24.17,48.34-30.273c5.533-1.057,8.341-3.296,8.423-6.714l0.244-7.813c0.488-13.346-5.413-20.02-17.7-20.02
		c-3.5,0-6.817,3.134-9.949,9.399c-3.134,6.268-7.629,9.644-13.489,10.132c-6.674,0.652-10.01-2.155-10.01-8.423
		c0-3.906,4.963-8.463,14.893-13.672c10.416-5.451,20.426-8.179,30.029-8.179c16.52,0,24.698,7.854,24.536,23.56l-0.488,50.293
		c-0.082,5.291,2.155,7.935,6.714,7.935c0.895,0,2.604-0.202,5.127-0.61c2.521-0.406,3.986-0.61,4.395-0.61
		C438.536,634.194,439.717,635.781,439.717,638.955z M402.119,611.123c0.08-2.033-0.387-3.376-1.404-4.028
		c-1.019-0.65-2.625-0.772-4.822-0.366c-19.613,3.5-29.419,9.888-29.419,19.165c0,9.359,5.085,14.038,15.259,14.038
		c4.068,0,8.259-0.772,12.573-2.319c5.045-1.789,7.568-3.946,7.568-6.47L402.119,611.123z" class="dsZiMXuI_32"></path>
	<path fill="#F1BF96" d="M369.16,653.127c-6.768,0-12.505-2.013-17.052-5.982c-4.975-4.394-7.496-10.434-7.496-17.955
		c0-14.288,16.401-24.639,48.747-30.765c5.317-1.016,7.94-3.055,8.016-6.234l0.244-7.816c0.248-6.779-1.197-11.846-4.296-15.06
		c-2.843-2.949-7.185-4.444-12.904-4.444c-3.279,0-6.476,3.069-9.501,9.123c-3.202,6.403-7.876,9.905-13.895,10.406
		c-3.753,0.367-6.602-0.364-8.359-2.188c-1.455-1.509-2.192-3.774-2.192-6.733c0-4.146,4.959-8.763,15.16-14.114
		c10.443-5.466,20.624-8.236,30.262-8.236c8.566,0,15.021,2.133,19.184,6.339c3.963,4.005,5.932,9.969,5.852,17.726l-0.488,50.293
		c-0.042,2.692,0.541,4.67,1.732,5.88c1.013,1.028,2.521,1.55,4.482,1.55c0.872,0,2.57-0.203,5.047-0.604
		c3.432-0.554,4.197-0.617,4.475-0.617c1.843,0,4.04,0.913,4.04,5.261c0,1.227-0.995,3.41-9.596,8.189
		c-6.271,3.483-11.383,5.25-15.196,5.25c-3.321,0-6.287-1.625-8.815-4.829c-3.17-4.015-4.367-4.448-4.734-4.448
		c-0.3,0.002-2.01,0.488-11.381,4.956C383.457,651.427,376.279,653.127,369.16,653.127z M384.419,563.87
		c6.001,0,10.585,1.599,13.625,4.75c3.294,3.417,4.833,8.729,4.575,15.788l-0.244,7.81c-0.088,3.667-3.059,6.088-8.829,7.189
		c-31.807,6.023-47.934,16.044-47.934,29.782c0,7.222,2.407,13.01,7.155,17.203c4.358,3.805,9.874,5.734,16.393,5.734
		c6.969,0,14.002-1.668,20.903-4.956c9.396-4.479,11.249-5.054,11.812-5.054c0.732,0,2.102,0.501,5.52,4.829
		c2.329,2.951,5.031,4.448,8.03,4.448c3.641,0,8.591-1.725,14.711-5.125c7.901-4.39,9.081-6.467,9.081-7.314
		c0-3.819-1.735-4.261-3.04-4.261c-0.258,0-1.217,0.104-4.315,0.604c-2.53,0.41-4.282,0.617-5.207,0.617
		c-2.239,0-3.987-0.622-5.194-1.849c-1.386-1.407-2.065-3.626-2.02-6.594l0.488-50.29c0.077-7.481-1.794-13.205-5.563-17.012
		c-3.968-4.01-10.184-6.043-18.473-6.043c-9.475,0-19.5,2.732-29.797,8.122c-9.704,5.09-14.625,9.541-14.625,13.229
		c0,2.691,0.644,4.724,1.913,6.039c1.534,1.592,4.079,2.228,7.548,1.886c5.653-0.471,10.055-3.787,13.09-9.857
		C377.232,567.126,380.73,563.87,384.419,563.87z M381.733,640.432c-10.457,0-15.759-4.892-15.759-14.538
		c0-9.512,10.037-16.125,29.831-19.657c2.316-0.427,4.05-0.283,5.179,0.437c1.172,0.753,1.722,2.256,1.634,4.47l-0.244,20.006
		c0,2.779-2.584,5.05-7.901,6.936C390.128,639.642,385.842,640.432,381.733,640.432z M398.166,606.994
		c-0.637,0-1.371,0.076-2.182,0.226c-19.25,3.436-29.01,9.718-29.01,18.674c0,9.109,4.828,13.538,14.759,13.538
		c3.993,0,8.167-0.771,12.404-2.29c4.803-1.703,7.237-3.722,7.237-5.999l0.244-20.025c0.073-1.849-0.322-3.056-1.174-3.602
		C399.904,607.17,399.137,606.994,398.166,606.994z" class="dsZiMXuI_33"></path>
</g>
<g>
	<path fill="#F1BF96" d="M582.783,648.477c0,2.521-1.831,3.662-5.493,3.418c-17.498-0.896-30.762-1.059-39.795-0.488
		c-4.639,0.324-7.162-0.244-7.568-1.709c-0.164-0.488-0.244-1.179-0.244-2.075c0-1.627,2.359-3.092,7.08-4.395
		c4.313-1.221,6.47-5.411,6.47-12.573v-32.471c0-18.635-8.099-27.954-24.292-27.954c-7.244,0-13.958,1.709-20.142,5.127
		c-5.859,3.338-8.789,6.796-8.789,10.376v44.678c0,7.65,5.005,11.923,15.015,12.817c3.824,0.326,5.737,1.547,5.737,3.662
		c0,2.035-0.53,3.256-1.587,3.662c-0.488,0.162-1.873,0.202-4.15,0.122c-12.777-0.488-25.961,0.162-39.551,1.953
		c-2.93,0.406-4.761,0.528-5.493,0.366c-1.629-0.326-2.441-1.587-2.441-3.784c0-1.953,2.319-3.62,6.958-5.005
		c4.313-1.301,6.47-6.714,6.47-16.235v-36.987c0-6.266-0.814-10.254-2.441-11.963c-1.141-1.221-4.925-2.93-11.353-5.127
		c-1.629-0.568-2.441-1.709-2.441-3.418c0-1.627,1.667-3.052,5.005-4.272c4.557-1.709,9.562-4.435,15.015-8.179
		c4.557-3.092,7.486-4.639,8.789-4.639c2.197,0,3.662,2.503,4.395,7.507c0.732,5.006,1.749,7.508,3.052,7.508
		c-0.652,0,3.498-2.381,12.451-7.141c8.951-4.762,17.78-7.142,26.489-7.142c21.076,0,31.696,12.005,31.86,36.011l0.244,39.307
		c0,5.047,1.301,8.667,3.906,10.864c1.953,1.629,5.737,3.012,11.353,4.15C580.952,645.181,582.783,646.523,582.783,648.477z" class="dsZiMXuI_34"></path>
	<path fill="#F1BF96" d="M460.875,653.563c-0.428,0-0.756-0.026-1.003-0.081c-1.287-0.258-2.833-1.21-2.833-4.272
		c0-2.221,2.393-4.015,7.315-5.484c4.056-1.223,6.113-6.524,6.113-15.756v-36.987c0-6.104-0.775-10.013-2.304-11.618
		c-0.745-0.797-3.281-2.308-11.152-4.999c-1.82-0.635-2.78-1.979-2.78-3.891c0-1.879,1.745-3.43,5.333-4.742
		c4.496-1.686,9.511-4.419,14.903-8.121c6.244-4.236,8.168-4.727,9.072-4.727c2.508,0,4.108,2.596,4.889,7.935
		c0.809,5.525,1.813,6.765,2.325,7.02c0.843-0.723,3.635-2.336,12.449-7.021c8.981-4.777,17.973-7.2,26.724-7.2
		c21.307,0,32.195,12.283,32.36,36.507l0.244,39.308c0,4.872,1.254,8.398,3.729,10.485c1.876,1.564,5.622,2.926,11.129,4.042
		c3.911,0.782,5.894,2.303,5.894,4.519c0,1.802-0.879,3.95-5.067,3.95c-0.305,0-0.625-0.011-0.959-0.033
		c-10.62-0.544-19.806-0.82-27.294-0.82c-4.763,0-8.947,0.111-12.436,0.332c-4.959,0.351-7.595-0.318-8.082-2.074
		c-0.174-0.516-0.262-1.246-0.262-2.209c0-1.898,2.436-3.493,7.447-4.877c4.048-1.146,6.103-5.214,6.103-12.091v-32.471
		c0-18.474-7.782-27.454-23.792-27.454c-7.125,0-13.82,1.704-19.9,5.064c-5.659,3.224-8.531,6.568-8.531,9.938v44.678
		c0,7.414,4.762,11.444,14.559,12.319c4.108,0.351,6.193,1.75,6.193,4.16c0,2.253-0.642,3.643-1.908,4.129
		c-0.264,0.088-0.77,0.195-2.354,0.195c-0.564,0-1.229-0.014-1.993-0.04c-12.702-0.488-25.973,0.171-39.468,1.949
		C463.436,653.414,461.865,653.563,460.875,653.563z M483.54,553.884c-0.821,0-2.963,0.79-8.508,4.553
		c-5.457,3.746-10.544,6.517-15.12,8.232c-3.107,1.137-4.681,2.416-4.681,3.805c0,1.487,0.689,2.451,2.106,2.946
		c6.564,2.243,10.345,3.964,11.553,5.257c1.732,1.82,2.576,5.846,2.576,12.305v36.987c0,9.725-2.296,15.348-6.825,16.714
		c-4.32,1.29-6.603,2.854-6.603,4.526c0,2.586,1.164,3.118,2.04,3.294c0.407,0.09,2.313,0.047,5.326-0.371
		c13.555-1.786,26.888-2.446,39.639-1.958c0.749,0.026,1.401,0.04,1.956,0.04c1.397,0,1.864-0.086,2.018-0.137
		c0.818-0.315,1.245-1.391,1.245-3.188c0-0.671,0-2.714-5.28-3.164c-10.267-0.917-15.472-5.397-15.472-13.315v-44.678
		c0-3.756,3.042-7.393,9.042-10.811c6.235-3.446,13.093-5.192,20.389-5.192c16.451,0,24.792,9.573,24.792,28.454v32.471
		c0,7.379-2.299,11.771-6.833,13.055c-5.552,1.531-6.716,2.974-6.716,3.913c0,0.841,0.073,1.485,0.218,1.916
		c0.332,1.193,2.794,1.667,7.06,1.369c3.513-0.222,7.718-0.334,12.502-0.334c7.506,0,16.708,0.276,27.353,0.822
		c0.319,0.021,0.617,0.031,0.9,0.031c3.646,0,4.067-1.684,4.067-2.95c0-1.672-1.713-2.862-5.091-3.538
		c-5.753-1.167-9.539-2.559-11.575-4.257c-2.712-2.287-4.086-6.07-4.086-11.248l-0.244-39.304
		c-0.163-23.896-10.421-35.514-31.36-35.514c-8.586,0-17.419,2.383-26.254,7.083c-10.165,5.404-12.093,6.659-12.338,6.927
		l-0.348-0.319l-0.001,0.592c0,0-0.001,0-0.001,0h-0.002c0,0-0.001,0-0.001,0l-0.386-0.001l-0.021-0.054
		c-1.422-0.389-2.399-2.864-3.133-7.881C486.752,556.266,485.44,553.884,483.54,553.884z M490.987,567.898l-0.001,0.384l0.394-0.106
		C491.297,567.986,491.118,567.898,490.987,567.898z" class="dsZiMXuI_35"></path>
</g>
<g>
	<path fill="#F1BF96" d="M661.274,638.906c0,3.906-3.582,7.244-10.742,10.01c-6.348,2.441-12.777,3.662-19.287,3.662
		c-17.66,0-26.489-9.399-26.489-28.198V580.19c0-5.615-0.448-9.053-1.343-10.315c-0.896-1.261-3.866-2.502-8.911-3.723
		c-1.303-0.324-1.953-1.587-1.953-3.784c0-2.359,0.488-3.784,1.465-4.272c8.789-4.313,16.438-12.043,22.949-23.193
		c0.895-1.545,2.644-2.033,5.249-1.465c1.789,0.57,2.726,1.629,2.808,3.174l0.488,15.259c0,1.141,0.202,1.953,0.61,2.441
		c0.568,0.732,1.871,1.099,3.906,1.099h27.222c1.545,0,1.545,1.913,0,5.737c-1.873,4.639-4.639,6.958-8.301,6.958h-18.433
		c-3.174,0-5.127,0.53-5.859,1.587c-0.57,0.732-0.854,2.728-0.854,5.981v39.917c0,10.092,0.895,16.479,2.686,19.165
		c2.359,3.418,7.853,5.127,16.479,5.127c2.848,0,6.306-0.468,10.376-1.404c4.068-0.935,6.226-1.403,6.47-1.403
		C660.786,637.075,661.274,637.686,661.274,638.906z" class="dsZiMXuI_36"></path>
	<path fill="#F1BF96" d="M631.245,653.078c-17.909,0-26.989-9.655-26.989-28.698V580.19c0-6.828-0.68-9.221-1.251-10.026
		c-0.563-0.793-2.518-2.049-8.621-3.525c-1.551-0.387-2.335-1.822-2.335-4.271c0-2.59,0.569-4.134,1.741-4.72
		c8.66-4.249,16.31-11.986,22.741-22.998c1.005-1.736,2.951-2.321,5.787-1.701c2.045,0.649,3.106,1.868,3.201,3.636l0.488,15.27
		c0,1.031,0.167,1.744,0.495,2.137c0.332,0.427,1.201,0.919,3.522,0.919h27.222c0.742,0,1.134,0.352,1.333,0.646
		c0.625,0.927,0.349,2.763-0.87,5.778c-1.948,4.824-4.896,7.271-8.764,7.271h-18.433c-3.717,0-5.015,0.746-5.448,1.372
		c-0.296,0.381-0.766,1.596-0.766,5.696v39.917c0,9.944,0.875,16.299,2.602,18.888c2.245,3.252,7.651,4.904,16.063,4.904
		c2.797,0,6.25-0.468,10.264-1.392c6.165-1.416,6.436-1.416,6.582-1.416c0.734,0,1.965,0.303,1.965,2.331
		c0,4.116-3.722,7.641-11.062,10.477C644.336,651.835,637.787,653.078,631.245,653.078z M620.295,533.708
		c-1.388,0-2.337,0.473-2.9,1.445c-6.533,11.186-14.325,19.056-23.162,23.392c-0.774,0.387-1.185,1.71-1.185,3.823
		c0,2.907,1.185,3.202,1.574,3.299c5.21,1.261,8.22,2.543,9.198,3.918c0.966,1.364,1.435,4.833,1.435,10.605v44.189
		c0,18.638,8.501,27.698,25.989,27.698c6.418,0,12.847-1.221,19.107-3.629c6.916-2.671,10.422-5.882,10.422-9.543
		c0-1.17-0.464-1.331-0.965-1.331c-0.154,0.011-1.202,0.206-6.358,1.391c-4.086,0.94-7.615,1.417-10.488,1.417
		c-8.761,0-14.444-1.798-16.891-5.343c-1.868-2.801-2.774-9.161-2.774-19.449v-39.917c0-4.531,0.548-5.76,0.96-6.289
		c0.824-1.189,2.875-1.779,6.254-1.779h18.433c3.468,0,6.032-2.174,7.837-6.646c1.432-3.544,1.154-4.568,0.968-4.844
		c-0.065-0.096-0.18-0.206-0.504-0.206h-27.222c-2.22,0-3.626-0.423-4.301-1.292c-0.478-0.571-0.715-1.475-0.715-2.748
		l-0.488-15.243c-0.07-1.316-0.875-2.208-2.46-2.713C621.443,533.781,620.834,533.708,620.295,533.708z" class="dsZiMXuI_37"></path>
</g>
<g>
	<path fill="none" stroke="#F1BF96" stroke-width="15" stroke-linecap="round" stroke-linejoin="round" stroke-miterlimit="10" d="
		M309.493,944.767c-36.349-40.147-100.007-25.991-142.831-9.334c-26.84,10.439-47.61,13.834-77.324,13.834
		c-19.267,0-66.686-11.704-70.086,16.138c-3.426,28.047,29.957,66.756,50.326,81.703c28.773,21.112,65.003,33.89,100.123,39.392
		c98.697,155.232,216.75,163.824,249.232,170.195c32.484,6.371,44.698-10.908,44.698-10.908
		c344.629,38.533,529.967-77.368,584.382-113.103c54.414-35.734,68.439-141.42,15.258-133.561
		c-53.18,7.859,7.728,106.182,7.728,106.182c-117.45-88.449-114.729-28.132-114.729-28.132c27.309,75.409,121.1,31.881,121.1,31.881
		c234.191-171.878,290.74-403.43,304.764-597.069c14.025-193.64-103.801-443.174-366.529-446.174
		c-86.69-0.989-171.295,25.48-237.804,81.904c-43.024,36.502-101.031,100.699-111.558,157.94
		c-2.184,11.871-2.633,24.097-2.767,36.141c-0.49,44.217,39.933,77.913,73.794,99.995c0.222,7.533,6.627,181.9,91.045,208.162" class="dsZiMXuI_38"></path>
	<path fill="none" stroke="#F1BF96" stroke-width="15" stroke-linecap="round" stroke-linejoin="round" stroke-miterlimit="10" d="
		M182.114,929.897c0,0,3.179-39.913,10.532-46.271c0,0-79.5,9.004-140.535-166.668c0,0-3.52-10.689,47.393,0
		s101.225,6.863,181.859,64.841c33.451,24.051,74.203,38.629,115.474,32.547c32.264-4.756,71.574-12.079,103.489-4.161
		c23.041,5.717,42.014,14.39,62.752,26.405c40.579,23.513,68.992,40.645,117.317,37.385c70.083-4.727,118.937-8.079,149.858,3.378
		s46.053,12.742,31.139,52.544c-14.915,39.802-82.306,119.069-191.109,114.967" class="dsZiMXuI_39"></path>
	<path fill="none" stroke="#F1BF96" stroke-width="15" stroke-linecap="round" stroke-linejoin="round" stroke-miterlimit="10" d="
		M845.461,958.62c0,0-9.898,85.849-73.824,101.042s-125.113,12.961-191.256,81.692c-66.141,68.731-96.679,74.782-120.699,86.219
		l3.95,18.213" class="dsZiMXuI_40"></path>
	<path fill="none" stroke="#F1BF96" stroke-width="15" stroke-linecap="round" stroke-linejoin="round" stroke-miterlimit="10" d="
		M332.654,1053.277c0,0-14.672,49.396-81.021,35.119c-66.351-14.277-81.932-1.897-81.932-1.897s38.284-10.389,41.844,1.897
		s75.842,127.998,248.137,139.177" class="dsZiMXuI_41"></path>
	<path fill="none" stroke="#F1BF96" stroke-width="15" stroke-linecap="round" stroke-linejoin="round" stroke-miterlimit="10" d="
		M543.286,964.922c-5.149-5.359-6.606-13.569-1.011-24.655c7.941-15.735,26.402-45.454,47.111-35.796
		c24.703,11.534,18.826,46.233,0.087,60.402C576.074,975.004,553.047,975.083,543.286,964.922z" class="dsZiMXuI_42"></path>
	<path fill="none" stroke="#F1BF96" stroke-width="15" stroke-linecap="round" stroke-linejoin="round" stroke-miterlimit="10" d="
		M737.27,441.791c0.15-42.437,7.809-99.381,38.671-127.053c23.244-20.844,94.376-62.594,120.136-28.786
		c12.988,17.043,20.237,41.195,32.455,59.499c11.596,17.373,24.622,33.83,39.307,48.701
		c45.396,45.977,105.217,72.853,169.838,75.052c32.529,1.108,65.1-3.17,96.41-12.055c26.266-7.453,49.816-14.589,73.506,4.677
		c11.723,9.534,21.837,35.346,17.282,50.566c-4.344,14.514-25.041,24.942-38.065,30.761c0,0-29.125,142.015-131.738,202.557
		c-169.273,99.844-242.342,115.64-300.852-40.802" class="dsZiMXuI_43"></path>
	<path fill="none" stroke="#F1BF96" stroke-width="15" stroke-linecap="round" stroke-linejoin="round" stroke-miterlimit="10" d="
		M848.143,483.108c21.389,42.9,27.859,86.693,6.148,129.532c-10.442,20.602-42.358,46.188-24.148,70.467
		c15.842,21.121,47.168,26.186,66.379,7.367" class="dsZiMXuI_44"></path>
	<path fill="none" stroke="#F1BF96" stroke-width="15" stroke-linecap="round" stroke-linejoin="round" stroke-miterlimit="10" d="
		M866.377,734.44c0,0,76.525,32.245,168.551-10.708" class="dsZiMXuI_45"></path>
	<path fill="none" stroke="#F1BF96" stroke-width="15" stroke-linecap="round" stroke-linejoin="round" stroke-miterlimit="10" d="
		M947.313,573.146c5.915-76.516,114.482,4.615,144.151-28.41c-88.257,90.484-133.233,11.907-137.223,7.478" class="dsZiMXuI_46"></path>
	<path fill="none" stroke="#F1BF96" stroke-width="15" stroke-linecap="round" stroke-linejoin="round" stroke-miterlimit="10" d="
		M766.694,515.61c0,0,118.903,15.576,70.785,36.887C837.479,552.497,807.361,567.413,766.694,515.61z" class="dsZiMXuI_47"></path>
	<path fill="none" stroke="#F1BF96" stroke-width="15" stroke-linecap="round" stroke-linejoin="round" stroke-miterlimit="10" d="
		M998.027,477.808c0,0,39.876-4.986,71.271,27.507" class="dsZiMXuI_48"></path>
	<path fill="none" stroke="#F1BF96" stroke-width="15" stroke-linecap="round" stroke-linejoin="round" stroke-miterlimit="10" d="
		M182.783,1090.444c0,0,91,161.684,270,155.342c0,0-194-29.342-255-155.342c0,0,113.678,138,261.839,145" class="dsZiMXuI_49"></path>
	<path fill="none" stroke="#F1BF96" stroke-width="15" stroke-linecap="round" stroke-linejoin="round" stroke-miterlimit="10" d="
		M824.637,886.245c0,0,12.211,28.952,35.942,31.027c0,0-15.874-22.136-23.1-31.027s29.979,14.852,29.705,19.176" class="dsZiMXuI_50"></path>
	<path fill="none" stroke="#F1BF96" stroke-width="15" stroke-linecap="round" stroke-linejoin="round" stroke-miterlimit="10" d="
		M824.637,878.612c0,0-17.788,36.234,35.942,45.234" class="dsZiMXuI_51"></path>
</g>
<style data-made-with="vivus-instant">.dsZiMXuI_0{stroke-dasharray:4265 4267;stroke-dashoffset:4266;animation:dsZiMXuI_draw 2000ms linear 0ms forwards;}.dsZiMXuI_1{stroke-dasharray:1407 1409;stroke-dashoffset:1408;animation:dsZiMXuI_draw 2000ms linear 19ms forwards;}.dsZiMXuI_2{stroke-dasharray:514 516;stroke-dashoffset:515;animation:dsZiMXuI_draw 2000ms linear 39ms forwards;}.dsZiMXuI_3{stroke-dasharray:522 524;stroke-dashoffset:523;animation:dsZiMXuI_draw 2000ms linear 58ms forwards;}.dsZiMXuI_4{stroke-dasharray:214 216;stroke-dashoffset:215;animation:dsZiMXuI_draw 2000ms linear 78ms forwards;}.dsZiMXuI_5{stroke-dasharray:1499 1501;stroke-dashoffset:1500;animation:dsZiMXuI_draw 2000ms linear 98ms forwards;}.dsZiMXuI_6{stroke-dasharray:291 293;stroke-dashoffset:292;animation:dsZiMXuI_draw 2000ms linear 117ms forwards;}.dsZiMXuI_7{stroke-dasharray:174 176;stroke-dashoffset:175;animation:dsZiMXuI_draw 2000ms linear 137ms forwards;}.dsZiMXuI_8{stroke-dasharray:332 334;stroke-dashoffset:333;animation:dsZiMXuI_draw 2000ms linear 156ms forwards;}.dsZiMXuI_9{stroke-dasharray:190 192;stroke-dashoffset:191;animation:dsZiMXuI_draw 2000ms linear 176ms forwards;}.dsZiMXuI_10{stroke-dasharray:79 81;stroke-dashoffset:80;animation:dsZiMXuI_draw 2000ms linear 196ms forwards;}.dsZiMXuI_11{stroke-dasharray:943 945;stroke-dashoffset:944;animation:dsZiMXuI_draw 2000ms linear 215ms forwards;}.dsZiMXuI_12{stroke-dasharray:129 131;stroke-dashoffset:130;animation:dsZiMXuI_draw 2000ms linear 235ms forwards;}.dsZiMXuI_13{stroke-dasharray:69 71;stroke-dashoffset:70;animation:dsZiMXuI_draw 2000ms linear 254ms forwards;}.dsZiMXuI_14{stroke-dasharray:821 823;stroke-dashoffset:822;animation:dsZiMXuI_draw 2000ms linear 274ms forwards;}.dsZiMXuI_15{stroke-dasharray:539 541;stroke-dashoffset:540;animation:dsZiMXuI_draw 2000ms linear 294ms forwards;}.dsZiMXuI_16{stroke-dasharray:539 541;stroke-dashoffset:540;animation:dsZiMXuI_draw 2000ms linear 313ms forwards;}.dsZiMXuI_17{stroke-dasharray:618 620;stroke-dashoffset:619;animation:dsZiMXuI_draw 2000ms linear 333ms forwards;}.dsZiMXuI_18{stroke-dasharray:821 823;stroke-dashoffset:822;animation:dsZiMXuI_draw 2000ms linear 352ms forwards;}.dsZiMXuI_19{stroke-dasharray:562 564;stroke-dashoffset:563;animation:dsZiMXuI_draw 2000ms linear 372ms forwards;}.dsZiMXuI_20{stroke-dasharray:639 641;stroke-dashoffset:640;animation:dsZiMXuI_draw 2000ms linear 392ms forwards;}.dsZiMXuI_21{stroke-dasharray:393 395;stroke-dashoffset:394;animation:dsZiMXuI_draw 2000ms linear 411ms forwards;}.dsZiMXuI_22{stroke-dasharray:821 823;stroke-dashoffset:822;animation:dsZiMXuI_draw 2000ms linear 431ms forwards;}.dsZiMXuI_23{stroke-dasharray:1641 1643;stroke-dashoffset:1642;animation:dsZiMXuI_draw 2000ms linear 450ms forwards;}.dsZiMXuI_24{stroke-dasharray:539 541;stroke-dashoffset:540;animation:dsZiMXuI_draw 2000ms linear 470ms forwards;}.dsZiMXuI_25{stroke-dasharray:1077 1079;stroke-dashoffset:1078;animation:dsZiMXuI_draw 2000ms linear 490ms forwards;}.dsZiMXuI_26{stroke-dasharray:539 541;stroke-dashoffset:540;animation:dsZiMXuI_draw 2000ms linear 509ms forwards;}.dsZiMXuI_27{stroke-dasharray:1077 1079;stroke-dashoffset:1078;animation:dsZiMXuI_draw 2000ms linear 529ms forwards;}.dsZiMXuI_28{stroke-dasharray:618 620;stroke-dashoffset:619;animation:dsZiMXuI_draw 2000ms linear 549ms forwards;}.dsZiMXuI_29{stroke-dasharray:1235 1237;stroke-dashoffset:1236;animation:dsZiMXuI_draw 2000ms linear 568ms forwards;}.dsZiMXuI_30{stroke-dasharray:821 823;stroke-dashoffset:822;animation:dsZiMXuI_draw 2000ms linear 588ms forwards;}.dsZiMXuI_31{stroke-dasharray:1641 1643;stroke-dashoffset:1642;animation:dsZiMXuI_draw 2000ms linear 607ms forwards;}.dsZiMXuI_32{stroke-dasharray:562 564;stroke-dashoffset:563;animation:dsZiMXuI_draw 2000ms linear 627ms forwards;}.dsZiMXuI_33{stroke-dasharray:1124 1126;stroke-dashoffset:1125;animation:dsZiMXuI_draw 2000ms linear 647ms forwards;}.dsZiMXuI_34{stroke-dasharray:639 641;stroke-dashoffset:640;animation:dsZiMXuI_draw 2000ms linear 666ms forwards;}.dsZiMXuI_35{stroke-dasharray:1280 1282;stroke-dashoffset:1281;animation:dsZiMXuI_draw 2000ms linear 686ms forwards;}.dsZiMXuI_36{stroke-dasharray:393 395;stroke-dashoffset:394;animation:dsZiMXuI_draw 2000ms linear 705ms forwards;}.dsZiMXuI_37{stroke-dasharray:785 787;stroke-dashoffset:786;animation:dsZiMXuI_draw 2000ms linear 725ms forwards;}.dsZiMXuI_38{stroke-dasharray:4265 4267;stroke-dashoffset:4266;animation:dsZiMXuI_draw 2000ms linear 745ms forwards;}.dsZiMXuI_39{stroke-dasharray:1407 1409;stroke-dashoffset:1408;animation:dsZiMXuI_draw 2000ms linear 764ms forwards;}.dsZiMXuI_40{stroke-dasharray:514 516;stroke-dashoffset:515;animation:dsZiMXuI_draw 2000ms linear 784ms forwards;}.dsZiMXuI_41{stroke-dasharray:522 524;stroke-dashoffset:523;animation:dsZiMXuI_draw 2000ms linear 803ms forwards;}.dsZiMXuI_42{stroke-dasharray:214 216;stroke-dashoffset:215;animation:dsZiMXuI_draw 2000ms linear 823ms forwards;}.dsZiMXuI_43{stroke-dasharray:1499 1501;stroke-dashoffset:1500;animation:dsZiMXuI_draw 2000ms linear 843ms forwards;}.dsZiMXuI_44{stroke-dasharray:291 293;stroke-dashoffset:292;animation:dsZiMXuI_draw 2000ms linear 862ms forwards;}.dsZiMXuI_45{stroke-dasharray:174 176;stroke-dashoffset:175;animation:dsZiMXuI_draw 2000ms linear 882ms forwards;}.dsZiMXuI_46{stroke-dasharray:332 334;stroke-dashoffset:333;animation:dsZiMXuI_draw 2000ms linear 901ms forwards;}.dsZiMXuI_47{stroke-dasharray:190 192;stroke-dashoffset:191;animation:dsZiMXuI_draw 2000ms linear 921ms forwards;}.dsZiMXuI_48{stroke-dasharray:79 81;stroke-dashoffset:80;animation:dsZiMXuI_draw 2000ms linear 941ms forwards;}.dsZiMXuI_49{stroke-dasharray:943 945;stroke-dashoffset:944;animation:dsZiMXuI_draw 2000ms linear 960ms forwards;}.dsZiMXuI_50{stroke-dasharray:129 131;stroke-dashoffset:130;animation:dsZiMXuI_draw 2000ms linear 980ms forwards;}.dsZiMXuI_51{stroke-dasharray:69 71;stroke-dashoffset:70;animation:dsZiMXuI_draw 2000ms linear 1000ms forwards;}@keyframes dsZiMXuI_draw{100%{stroke-dashoffset:0;}}@keyframes dsZiMXuI_fade{0%{stroke-opacity:1;}94.44444444444444%{stroke-opacity:1;}100%{stroke-opacity:0;}}</style></svg>
