<?xml version="1.0" encoding="utf-8"?>
<!-- Generator: Adobe Illustrator 16.0.0, SVG Export Plug-In . SVG Version: 6.00 Build 0)  -->
<!DOCTYPE svg PUBLIC "-//W3C//DTD SVG 1.1//EN" "http://www.w3.org/Graphics/SVG/1.1/DTD/svg11.dtd">
<svg version="1.1" id="圖層_1" xmlns="http://www.w3.org/2000/svg" xmlns:xlink="http://www.w3.org/1999/xlink" x="0px" y="0px"
	 width="1729.348px" height="422px" viewBox="0 0 1729.348 422" enable-background="new 0 0 1729.348 422" xml:space="preserve">
<g>
	<path fill="none" stroke="#F1BF96" stroke-width="7" stroke-linecap="round" stroke-linejoin="round" stroke-miterlimit="10" d="
		M533.861,229.088c0,0-8.628-22.348-23.011-24.715c-14.38-2.37-96.25-6.005-110.252-18.157c-5.058-4.39-8.528,3.566-9.706,7.343
		c-3.064,9.839-0.781,21.698,2.684,31.077c5.583,15.117,16.468,27.667,29.48,36.943c8.729,6.224,18.897,11.854,29.208,14.896
		c23.902,7.041,45.646,33.313,71.53,13.724"/>
	<path fill="none" stroke="#F1BF96" stroke-width="7" stroke-linecap="round" stroke-linejoin="round" stroke-miterlimit="10" d="
		M667.242,257.936c-5.741-2.422-11.963,2.918-16.038,6.387c-3.696,3.147-11.158,8.356-13.359,12.611"/>
	<path fill="none" stroke="#F1BF96" stroke-width="7" stroke-linecap="round" stroke-linejoin="round" stroke-miterlimit="10" d="
		M637.845,276.934c-4.897,9.474,14.589,12.129,21.019,10.87c7.768-1.521,15.912-6.452,16.009-15.188
		c0.046-4.054-2.067-10.392-5.631-13.425c-0.624-0.529-1.29-0.959-1.999-1.256"/>
	<g>
		<path fill="none" stroke="#F1BF96" stroke-width="7" stroke-linecap="round" stroke-linejoin="round" stroke-miterlimit="10" d="
			M685.888,343.389c33.24,6.881,71.962,4.688,94.297-12.263"/>
		<path fill="none" stroke="#F1BF96" stroke-width="7" stroke-linecap="round" stroke-linejoin="round" stroke-miterlimit="10" d="
			M780.208,331.102c-0.004,0.012-0.009,0.02-0.023,0.026c-0.673,1.042-22.67,34.29-45.992,31.312
			c-20.543-2.625-67.131-11.269-99.232,6.203c-32.094,17.476-112.34,23.358-123.7,24.819c-11.364,1.449-67.442-1.606-67.442-1.606"
			/>
		<g>
			<g id="XMLID_1_">
				<g>
					<path fill="#F1BF96" d="M786.542,286.098c6.651,4.29,20.396,5.563,8.354,27.313c0.402-9.427-8.407-6.933-13.087-13.65
						c-3.098-4.438,2.964-14.469,2.964-14.469l0.12-0.215C785.537,285.453,786.086,285.802,786.542,286.098z"/>
				</g>
				<g>
					
						<path fill="none" stroke="#F1BF96" stroke-width="7" stroke-linecap="round" stroke-linejoin="round" stroke-miterlimit="10" d="
						M794.896,313.411c12.043-21.75-1.702-23.022-8.354-27.313c-0.456-0.296-1.006-0.645-1.649-1.021
						c-9.493-5.726-38.618-20.918-69.125-26.175c-32.558-5.618-42.573-34.447-42.573-34.447
						c-38.699-55.38-66.778-29.206-92.698-42.615c-25.907-13.422-39.222-33.912-39.222-33.912
						c-32.463-43.889-86.154-64.15-87.79-64.753c-4.546-1.689-1.637,45.417-0.872,49.815c2.079,12.122,6.222,24.432,14.32,33.912
						c4.01,4.72,8.233,9.642,13.222,13.356c4.104,3.044,7.521,1.596,5.483,6.691c-1.797,4.505-6.047,7.697-7.589,12.578"/>
					
						<path fill="none" stroke="#F1BF96" stroke-width="7" stroke-linecap="round" stroke-linejoin="round" stroke-miterlimit="10" d="
						M780.213,331.098c4.385-3.324,8.139-7.228,11.089-11.746c1.408-2.132,2.603-4.09,3.594-5.927"/>
					
						<path fill="none" stroke="#F1BF96" stroke-width="7" stroke-linecap="round" stroke-linejoin="round" stroke-miterlimit="10" d="
						M784.772,285.292c0,0-6.062,10.03-2.964,14.469c4.681,6.718,13.49,4.224,13.087,13.65c0,0.014,0,0.014,0,0.014v0.013"/>
				</g>
			</g>
		</g>
	</g>
</g>
<g>
	<path fill="none" stroke="#F1BF96" stroke-width="7" stroke-linecap="round" stroke-linejoin="round" stroke-miterlimit="10" d="
		M1179.026,295.873c-7.545-9.749-22.5-22.119-23.934-42.359c-3.25-26.18-0.881-55.416,4.438-81.17
		c2.279-11.044,8.639-23.325,6.74-34.701c-1.473-8.832-4.459-16.442-4.189-25.892c1.244-43.535,34.904-74.893,77.414-81.034"/>
	<path fill="none" stroke="#F1BF96" stroke-width="7" stroke-linecap="round" stroke-linejoin="round" stroke-miterlimit="10" d="
		M1166.163,144.572c0,0,38.811-42.901,67.092-32.166c6.893,2.613,9.559,15.467,11.605,21.467
		c4.791,14.023,9.404,28.103,15.977,41.425c7.791,15.802,18.188,30.471,32.096,41.463c17.164,13.563,38.393,20.203,60.045,21.606
		c6.91,0.451,13.852,0.4,20.762-0.028c7.467-0.468,15.057-1.856,22.43-3.096c4.871-0.813,9.182-2.185,13.83,0.422
		c8.443,4.728,10.832,16.782,10.031,25.624c-0.879,9.691-5.742,19.023-15.4,22.447c-2.861,1.011-6.15,0.527-8.885,1.523
		c-2.258,0.822-2.984,2.492-4.248,4.678c-3.498,6.049-6.238,12.5-9.717,18.568c-12.68,22.11-28.82,41.025-50.971,54.064
		c-11.873,6.99-24.771,12.016-37.717,16.641c-13.66,4.878-27.572,10.188-41.994,12.283c-19.463,2.832-36.965-3.559-50.182-18.152
		c-6.531-7.212-10.984-15.304-13.135-24.82c-2.162-9.568-2.424-19.438-4.16-29.078"/>
	<path fill="none" stroke="#F1BF96" stroke-width="7" stroke-linecap="round" stroke-linejoin="round" stroke-miterlimit="10" d="
		M1200.92,211.984c4.047,10.32,5.719,21.971,5.08,32.996c-0.578,9.941-3.326,19.734-8.609,28.221
		c-8.867,14.219-23.313,18.09-19.68,37.227c1.664,8.758,10.088,11.645,18.141,11.893c3.691,0.111,7.107-1.657,10.723-1.896"/>
	<path fill="none" stroke="#F1BF96" stroke-width="7" stroke-linecap="round" stroke-linejoin="round" stroke-miterlimit="10" d="
		M1195.841,246.834c-6.143,0.595-12.641-1.885-17.628-5.277c-6.758-4.596-11.789-11.453-13.086-19.635"/>
	<path fill="none" stroke="#F1BF96" stroke-width="7" stroke-linecap="round" stroke-linejoin="round" stroke-miterlimit="10" d="
		M1246.116,259.15c3.567,11.082,13.912,16.173,24.631,18.258c13.888,2.7,22.782-0.358,34.963-7.293"/>
	<path fill="none" stroke="#F1BF96" stroke-width="7" stroke-linecap="round" stroke-linejoin="round" stroke-miterlimit="10" d="
		M1258.79,346.915c-12.332,2.299-25.238,3.644-38.141,1.998c-12.537-1.603-21.867-5.666-32.494-10.583"/>
	<path fill="none" stroke="#F1BF96" stroke-width="7" stroke-linecap="round" stroke-linejoin="round" stroke-miterlimit="10" d="
		M1272.542,227.266c0,0,14.896,0.726,27.641,18.168"/>
</g>
<ellipse transform="matrix(0.3576 -0.9339 0.9339 0.3576 -258.0573 278.2329)" fill="#F9EACC" cx="73.205" cy="326.685" rx="13.513" ry="14.022"/>
<ellipse transform="matrix(0.9422 -0.335 0.335 0.9422 -76.4191 117.8891)" fill="#F1BF96" cx="303.536" cy="280.474" rx="15.103" ry="15.672"/>
<ellipse transform="matrix(0.9422 -0.335 0.335 0.9422 -69.9361 56.3835)" fill="#FFFFFF" cx="128.497" cy="230.948" rx="10.423" ry="10.815"/>
<ellipse transform="matrix(0.3576 0.9339 -0.9339 0.3576 1356.4529 -1313.2673)" fill="#F9EACC" cx="1632.805" cy="329.335" rx="13.468" ry="13.975"/>
<ellipse transform="matrix(0.9422 0.3351 -0.3351 0.9422 182.9945 -484.4461)" fill="#F1BF96" cx="1495.476" cy="288.115" rx="15.103" ry="15.673"/>
<ellipse transform="matrix(0.9422 0.3351 -0.3351 0.9422 168.494 -514.6155)" fill="#FFFFFF" cx="1575.523" cy="230.962" rx="10.424" ry="10.816"/>
<g>
	<text transform="matrix(1 0 0 1 821.2949 222.6592)" fill="#F1BF96" font-family="'jf-openhuninn-1.1'" font-size="127.5858">前</text>
</g>
<text transform="matrix(1 0 0 1 952.7837 328.9043)" fill="#F1BF96" font-family="'jf-openhuninn-1.1'" font-size="127.5858">腳</text>
</svg>
