<?xml version="1.0" encoding="utf-8"?>
<!-- Generator: Adobe Illustrator 16.0.0, SVG Export Plug-In . SVG Version: 6.00 Build 0)  -->
<!DOCTYPE svg PUBLIC "-//W3C//DTD SVG 1.1//EN" "http://www.w3.org/Graphics/SVG/1.1/DTD/svg11.dtd">
<svg version="1.1" id="圖層_1" xmlns="http://www.w3.org/2000/svg" xmlns:xlink="http://www.w3.org/1999/xlink" x="0px" y="0px"
	 width="1729.349px" height="422px" viewBox="0 0 1729.349 422" enable-background="new 0 0 1729.349 422" xml:space="preserve">
<g>
	<path fill="none" stroke="#F1BF96" stroke-width="7" stroke-linecap="round" stroke-linejoin="round" stroke-miterlimit="10" d="
		M533.861,229.088c0,0-8.628-22.348-23.01-24.715c-14.38-2.37-96.25-6.005-110.252-18.157c-5.058-4.39-8.529,3.566-9.706,7.343
		c-3.065,9.839-0.782,21.698,2.683,31.077c5.583,15.117,16.468,27.667,29.481,36.943c8.729,6.224,18.897,11.854,29.208,14.896
		c23.902,7.041,45.646,33.313,71.53,13.723"/>
	<path fill="none" stroke="#F1BF96" stroke-width="7" stroke-linecap="round" stroke-linejoin="round" stroke-miterlimit="10" d="
		M669.241,259.191c-0.624-0.529-1.29-0.959-1.999-1.256c-5.741-2.421-11.963,2.919-16.038,6.387
		c-3.696,3.148-11.158,8.357-13.359,12.611c-4.898,9.474,14.589,12.129,21.018,10.871c7.768-1.521,15.912-6.452,16.009-15.188
		C674.918,268.562,672.805,262.224,669.241,259.191z"/>
	<g>
		<path fill="none" stroke="#F1BF96" stroke-width="7" stroke-linecap="round" stroke-linejoin="round" stroke-miterlimit="10" d="
			M685.888,343.388c33.24,6.882,71.962,4.688,94.297-12.262"/>
		<path fill="none" stroke="#F1BF96" stroke-width="7" stroke-linecap="round" stroke-linejoin="round" stroke-miterlimit="10" d="
			M780.208,331.102c-0.004,0.011-0.009,0.019-0.023,0.026c-0.673,1.042-22.67,34.29-45.993,31.311
			c-20.543-2.625-67.131-11.268-99.232,6.203c-32.094,17.476-112.34,23.359-123.7,24.82c-11.365,1.449-67.443-1.607-67.443-1.607"/>
		<g>
			<g id="XMLID_1_">
				<g>
					<path fill="#F1BF96" d="M786.542,286.097c6.651,4.291,20.396,5.564,8.354,27.314c0.402-9.427-8.408-6.933-13.087-13.65
						c-3.098-4.438,2.963-14.469,2.963-14.469l0.121-0.215C785.537,285.453,786.086,285.802,786.542,286.097z"/>
				</g>
				<g>
					
						<path fill="none" stroke="#F1BF96" stroke-width="7" stroke-linecap="round" stroke-linejoin="round" stroke-miterlimit="10" d="
						M794.896,313.411c12.042-21.75-1.703-23.023-8.354-27.314c-0.456-0.295-1.006-0.644-1.649-1.02
						c-9.494-5.726-38.619-20.918-69.125-26.174c-32.558-5.619-42.574-34.448-42.574-34.448
						c-38.699-55.38-66.778-29.206-92.698-42.615c-25.907-13.422-39.222-33.912-39.222-33.912
						c-32.463-43.889-86.154-64.15-87.79-64.753c-4.546-1.689-1.636,45.417-0.872,49.815c2.079,12.122,6.222,24.432,14.321,33.912
						c4.009,4.72,8.233,9.642,13.221,13.356c4.104,3.044,7.522,1.596,5.484,6.691c-1.797,4.505-6.047,7.697-7.589,12.578"/>
					
						<path fill="none" stroke="#F1BF96" stroke-width="7" stroke-linecap="round" stroke-linejoin="round" stroke-miterlimit="10" d="
						M780.213,331.098c4.385-3.325,8.139-7.228,11.089-11.746c1.408-2.132,2.602-4.09,3.594-5.927"/>
					
						<path fill="none" stroke="#F1BF96" stroke-width="7" stroke-linecap="round" stroke-linejoin="round" stroke-miterlimit="10" d="
						M784.772,285.292c0,0-6.061,10.03-2.963,14.469c4.68,6.718,13.49,4.224,13.087,13.65c0,0.014,0,0.014,0,0.014v0.013"/>
				</g>
			</g>
		</g>
	</g>
</g>
<g>
	<path fill="none" stroke="#F1BF96" stroke-width="7" stroke-miterlimit="10" d="M1179.025,295.873
		c-7.544-9.749-22.499-22.119-23.933-42.359c-3.25-26.18-0.88-55.416,4.437-81.17c2.281-11.044,8.639-23.325,6.741-34.701
		c-1.473-8.832-4.458-16.442-4.189-25.892c1.243-43.535,34.904-74.893,77.414-81.034"/>
	<path fill="none" stroke="#F1BF96" stroke-width="7" stroke-miterlimit="10" d="M1166.163,144.572c0,0,38.81-42.901,67.092-32.166
		c6.893,2.613,9.559,15.467,11.605,21.467c4.791,14.023,9.404,28.103,15.977,41.425c7.791,15.802,18.186,30.471,32.096,41.463
		c17.164,13.562,38.391,20.203,60.045,21.606c6.91,0.451,13.85,0.401,20.76-0.028c7.467-0.468,15.057-1.857,22.43-3.096
		c4.871-0.814,9.182-2.185,13.83,0.422c8.443,4.727,10.832,16.782,10.031,25.624c-0.879,9.691-5.742,19.023-15.4,22.447
		c-2.861,1.011-6.15,0.527-8.885,1.524c-2.258,0.822-2.984,2.492-4.248,4.678c-3.498,6.049-6.238,12.5-9.717,18.568
		c-12.678,22.11-28.82,41.025-50.969,54.064c-11.873,6.991-24.773,12.016-37.717,16.641c-13.66,4.878-27.572,10.187-41.994,12.283
		c-19.463,2.832-36.965-3.559-50.183-18.152c-6.531-7.212-10.984-15.304-13.135-24.82c-2.161-9.569-2.422-19.438-4.16-29.078"/>
	<path fill="none" stroke="#F1BF96" stroke-width="7" stroke-miterlimit="10" d="M1200.92,211.984
		c4.047,10.321,5.72,21.971,5.08,32.997c-0.578,9.941-3.325,19.734-8.609,28.22c-8.867,14.219-23.312,18.09-19.679,37.227
		c1.664,8.757,10.087,11.644,18.14,11.893c3.692,0.111,7.107-1.658,10.723-1.897"/>
	<path fill="none" stroke="#F1BF96" stroke-width="7" stroke-miterlimit="10" d="M1163.836,221.841
		c11.454,5.247,27.634,8.954,34.919,21.499c-14.173,10.395-30.844-9.015-33.627-21.418"/>
	<path fill="none" stroke="#F1BF96" stroke-width="7" stroke-miterlimit="10" d="M1305.552,269.754
		c-5.9,2.434-12.342,0.982-17.9-1.687c-9.051-4.342-16.176-10.489-26.541-11.702c-5.039-0.591-23.193-0.256-21.471,9.041"/>
	<path fill="none" stroke="#F1BF96" stroke-width="7" stroke-miterlimit="10" d="M1246.115,259.15
		c4.295,13.341,14.406,21.941,28.703,21.305c10.889-0.485,21.529-5.01,30.891-10.34"/>
	<path fill="none" stroke="#F1BF96" stroke-width="7" stroke-miterlimit="10" d="M1258.789,346.915
		c-12.332,2.299-25.238,3.644-38.139,1.998c-12.538-1.603-21.868-5.666-32.495-10.583"/>
	<path fill="none" stroke="#F1BF96" stroke-width="7" stroke-miterlimit="10" d="M1272.541,227.266c0,0,14.898,0.725,27.641,18.167"
		/>
</g>
<ellipse transform="matrix(0.9339 0.3576 -0.3576 0.9339 121.6662 -4.5722)" fill="#F9EACC" cx="73.196" cy="326.676" rx="14.022" ry="13.513"/>
<ellipse transform="matrix(0.335 0.9422 -0.9422 0.335 466.1222 -99.4954)" fill="#F1BF96" cx="303.551" cy="280.488" rx="15.673" ry="15.104"/>
<ellipse transform="matrix(0.335 0.9422 -0.9422 0.335 303.0565 32.5053)" fill="#FFFFFF" cx="128.5" cy="230.956" rx="10.815" ry="10.423"/>
<ellipse transform="matrix(-0.9339 0.3576 -0.3576 -0.9339 3275.5024 53.018)" fill="#F9EACC" cx="1632.849" cy="329.36" rx="13.975" ry="13.468"/>
<ellipse transform="matrix(-0.3351 0.9422 -0.9422 -0.3351 2268.0601 -1024.3984)" fill="#F1BF96" cx="1495.494" cy="288.096" rx="15.673" ry="15.103"/>
<ellipse transform="matrix(-0.3351 0.9422 -0.9422 -0.3351 2321.103 -1176.1462)" fill="#FFFFFF" cx="1575.569" cy="230.956" rx="10.816" ry="10.424"/>
<g>
	<text transform="matrix(1 0 0 1 821.2954 222.6587)" fill="#F1BF96" font-family="'jf-openhuninn-1.1'" font-size="127.5858">後</text>
</g>
<text transform="matrix(1 0 0 1 952.7842 328.9043)" fill="#F1BF96" font-family="'jf-openhuninn-1.1'" font-size="127.5858">腿</text>
</svg>
