<?xml version="1.0" encoding="utf-8"?>
<!-- Generator: Adobe Illustrator 16.0.0, SVG Export Plug-In . SVG Version: 6.00 Build 0)  -->
<!DOCTYPE svg PUBLIC "-//W3C//DTD SVG 1.1//EN" "http://www.w3.org/Graphics/SVG/1.1/DTD/svg11.dtd">
<svg version="1.1" id="圖層_1" xmlns="http://www.w3.org/2000/svg" xmlns:xlink="http://www.w3.org/1999/xlink" x="0px" y="0px"
	 width="708.661px" height="1417.322px" viewBox="0 0 708.661 1417.322" enable-background="new 0 0 708.661 1417.322"
	 xml:space="preserve">
<path fill="none" stroke="#F1BF96" stroke-width="4" stroke-linecap="round" stroke-linejoin="round" stroke-miterlimit="10" d="
	M469.438,734.933c0,0-4.367-16.554-6.85-23.557s1.117-20.904,0.391-25.12c-0.728-4.217,20.257,31.424,20.628,28.034
	c0.372-3.389,2.636-8.617,2.268-17.641c-0.37-9.021,3.596-13.09-0.479-14.737"/>
<g>
	<path fill="#F3DEB8" stroke="#F3DEB8" stroke-miterlimit="10" d="M467.975,739.409l5.739-4.068
		C473.714,735.341,466.414,716.047,467.975,739.409z"/>
	<path fill="#F3DEB8" stroke="#F3DEB8" stroke-miterlimit="10" d="M467.975,740.804c-0.201,0-0.403-0.045-0.591-0.139
		c-0.442-0.216-0.737-0.657-0.77-1.157c-0.616-9.238,0.17-11.436,1.02-12.362c0.403-0.443,0.932-0.687,1.491-0.687
		c1.788,0,3.761,2.82,5.862,8.376c0.229,0.604,0.024,1.284-0.494,1.653l-5.74,4.068C468.52,740.721,468.247,740.804,467.975,740.804
		z M469.402,729.723c-0.197,0.895-0.397,2.86-0.206,7.123l2.844-2.018C471.152,732.664,470.111,730.66,469.402,729.723z"/>
</g>
<path fill="none" stroke="#F1BF96" stroke-width="5" stroke-linecap="round" stroke-linejoin="round" stroke-miterlimit="10" d="
	M175.153,663.017c-5.449,9.438,5.224,10.159,10.894,13.346c9.072,5.098,24.766,32.478,33.866,32.639
	c8.92,0.157,8.556-16.625,10.597-23.803c2.214-7.788,16.675,28.157,19.409,31.773s6.599-41.469,6.599-41.469l6.091-26.878"/>
<path fill="none" stroke="#F1BF96" stroke-width="5" stroke-linecap="round" stroke-linejoin="round" stroke-miterlimit="10" d="
	M284.336,728.688c0,0,11.258-21.881,11.788-29.881s11.719,24.611,12.791,25.973s-1.072-1.361-1.072-1.361"/>
<path fill="none" stroke="#F1BF96" stroke-width="4" stroke-linecap="round" stroke-linejoin="round" stroke-miterlimit="10" d="
	M292.025,713.117c0,0,4.951,0.665,5.467,0"/>
<path fill="none" stroke="#F1BF96" stroke-width="4" stroke-linecap="round" stroke-linejoin="round" stroke-miterlimit="10" d="
	M504.409,754.16c0,0,20.707-8.83,30.744-32.337c10.037-23.508-15.054,3.503,0,40.178c15.054,36.676,2.445,16.135,2.445,16.135
	l14.617-18.631"/>
<g>
	<g>
		<path fill="#F3DEB8" stroke="#F3DEB8" stroke-miterlimit="10" d="M308.686,878.351c-0.19,0-0.383-0.042-0.566-0.128
			c-0.686-0.322-0.987-1.15-0.673-1.853c0.088-0.189,0.29-0.745,0.605-1.597c10.301-27.891,26.508-60.309,45.049-56.383
			c13.104,2.76,26.361,25.314,30.112,32.158c1.288,2.35,7.664,14.228,6.639,17.131c-0.257,0.72-1.038,1.092-1.747,0.838
			c-0.708-0.262-1.074-1.06-0.819-1.787c0.365-4.239-19.143-42.324-34.737-45.613c-13.006-2.725-27.915,16.656-41.944,54.638
			c-0.35,0.95-0.581,1.566-0.676,1.782C309.697,878.047,309.203,878.351,308.686,878.351z"/>
		<path fill="#F3DEB8" stroke="#F3DEB8" stroke-miterlimit="10" d="M308.686,880.351c-0.49,0-0.965-0.106-1.414-0.316
			c-1.667-0.783-2.406-2.792-1.651-4.48c0.08-0.179,0.21-0.54,0.407-1.072l0.149-0.402c14.217-38.494,28.969-58.014,43.845-58.014
			c1.164,0,2.339,0.124,3.493,0.368c13.549,2.854,26.509,24.136,31.452,33.154c5.406,9.86,7.684,16.172,6.771,18.758
			c-0.481,1.35-1.757,2.252-3.176,2.252c-0.386,0-0.767-0.066-1.131-0.197c-1.615-0.597-2.508-2.307-2.143-3.945
			c-0.368-4.727-19.001-40.396-33.152-43.381c-11.734-2.456-26.324,17.28-39.655,53.374c-0.372,1.01-0.621,1.666-0.722,1.896
			C311.201,879.57,309.999,880.351,308.686,880.351z"/>
	</g>
</g>
<g>
	<g>
		<path fill="#F3DEB8" stroke="#F3DEB8" stroke-miterlimit="10" d="M287.703,917.628c-0.1,0-0.202-0.006-0.304-0.034
			c-0.737-0.17-1.196-0.917-1.027-1.667c7.441-33.415,35.387-58.449,65.132-58.449c0.163,0,0.323,0,0.487,0.001
			c25.796,0.242,57.862,16.4,69.234,46.821c0.269,0.719-0.082,1.522-0.787,1.801c-0.703,0.27-1.491-0.086-1.763-0.807
			c-10.935-29.252-41.835-44.794-66.707-45.025c-28.093-0.208-55.851,24.46-62.937,56.277
			C288.887,917.19,288.325,917.628,287.703,917.628z"/>
		<path fill="#F3DEB8" stroke="#F3DEB8" stroke-miterlimit="10" d="M287.703,919.628c-0.194,0-0.493-0.011-0.838-0.107
			c-1.719-0.395-2.854-2.213-2.444-4.033c7.618-34.209,36.458-60.01,67.083-60.01l0.499,0.001
			c26.487,0.249,59.409,16.857,71.096,48.121c0.647,1.729-0.217,3.687-1.926,4.361c-1.77,0.677-3.728-0.263-4.368-1.961
			c-10.622-28.415-40.666-43.507-64.854-43.731l-0.334-0.001c-27.166,0-53.799,24.032-60.631,54.713
			C290.633,918.541,289.284,919.628,287.703,919.628z M287.699,915.628l0.003,2v-2C287.702,915.628,287.7,915.628,287.699,915.628
			L287.699,915.628z"/>
	</g>
</g>
<g>
	<g>
		<path fill="#F3DEB8" stroke="#F3DEB8" stroke-miterlimit="10" d="M315.244,967.908c-0.453-0.614-1.307-0.748-1.909-0.28
			c-20.02,15.294-31.244,12.497-44.245,9.243c-4.934-1.234-10.032-2.509-15.898-2.874c-21.394-1.325-41.984-14.974-52.9-27.908
			c-5.2-6.163-5.649-9.642-5.112-11.474c0.503-1.713,2.02-2.444,2.583-2.66c17.956,2.148,32.179-0.382,44.184-4.493
			c0.107-0.083,0.216-0.165,0.347-0.237c2.872-1.571,5.874-2.69,8.981-3.403c2.922-1.271,5.718-2.594,8.41-3.911
			c14.429-7.061,40.364,3.301,40.625,3.403c0.698,0.274,1.493-0.065,1.771-0.782c0.277-0.717-0.065-1.529-0.766-1.812
			c-1.107-0.445-27.303-10.908-42.805-3.323c-15.18,7.425-33.648,15.063-60.722,11.752c-0.171-0.023-0.346-0.004-0.515,0.036
			c-0.147,0.039-3.618,1.025-4.69,4.581c-1.101,3.642,0.799,8.404,5.644,14.145c11.291,13.38,32.615,27.496,54.8,28.872
			c5.623,0.352,10.602,1.594,15.417,2.797c5.315,1.329,10.509,2.628,16.212,2.628c8.353,0,17.801-2.787,30.314-12.348
			C315.572,969.399,315.694,968.526,315.244,967.908z"/>
		<path fill="#F3DEB8" stroke="#F3DEB8" stroke-miterlimit="10" d="M284.654,984.207c-5.948,0-11.412-1.366-16.696-2.688
			c-4.724-1.18-9.608-2.4-15.059-2.741c-22.774-1.412-44.638-15.873-56.203-29.578c-5.311-6.293-7.34-11.681-6.03-16.014
			c1.4-4.644,5.902-5.885,6.093-5.936c0.508-0.121,0.893-0.139,1.298-0.084c4.204,0.514,8.405,0.776,12.457,0.776
			c20.189-0.001,34.905-6.372,47.115-12.344c4.005-1.96,8.973-2.953,14.765-2.953c13.811,0,28.083,5.581,29.666,6.218
			c1.708,0.688,2.554,2.656,1.885,4.388c-0.507,1.311-1.739,2.156-3.138,2.156c-0.422,0-0.836-0.078-1.23-0.233
			c-0.604-0.239-14.611-5.727-27.29-5.727c-4.717,0-8.661,0.76-11.724,2.259c-3.206,1.569-5.904,2.824-8.491,3.948l-0.35,0.115
			c-2.976,0.683-5.825,1.763-8.468,3.209c-0.021,0.015-0.052,0.04-0.084,0.065l-0.262,0.202l-0.313,0.107
			c-10.577,3.622-21.052,5.383-32.024,5.383c-4.057,0-8.251-0.245-12.477-0.729c-0.357,0.206-0.82,0.577-0.995,1.171
			c-0.205,0.7-0.472,3.465,4.722,9.62c10.643,12.611,30.693,25.913,51.495,27.202c6.057,0.377,11.244,1.675,16.26,2.93
			c5.132,1.285,9.979,2.498,15.116,2.498c8.66-0.001,17.119-3.514,27.429-11.39c0.578-0.449,1.283-0.691,2.027-0.691
			c1.06,0,2.071,0.514,2.706,1.373c1.093,1.499,0.788,3.616-0.672,4.729C304.791,980.153,294.772,984.207,284.654,984.207z"/>
	</g>
</g>
<g>
	<g>
		<path fill="#F3DEB8" stroke="#F3DEB8" stroke-miterlimit="10" d="M469.074,979.593c-20.131,0-39.334-5.651-58.094-11.197
			c-1.642,0.039-3.292,0.341-5.033,0.653c-3.786,0.687-7.7,1.397-11.754-0.627c-6.275-3.122-11.837-9.35-15.664-17.533
			c-0.324-0.695-0.037-1.525,0.642-1.858c0.681-0.337,1.493-0.042,1.82,0.657c3.56,7.615,8.673,13.382,14.397,16.229
			c3.259,1.623,6.574,1.021,10.082,0.387c1.842-0.331,3.746-0.677,5.678-0.695c0.124-0.011,0.266,0.014,0.393,0.053
			c26.723,7.896,54.358,16.063,83.916,7.483c4.4-1.556,8.288-5.108,9.834-9.033c0.583-1.482,1.07-3.646,0.163-5.649
			c-7.754-7.72-17.049-13.776-26.042-19.637c-13.403-8.738-27.265-17.771-37.247-32.751c-7.726-7.691-16.505-10.318-26.671-7.786
			c-0.727,0.16-1.469-0.281-1.646-1.025c-0.178-0.751,0.271-1.505,1.003-1.687c11-2.72,20.891,0.204,29.396,8.718
			c9.841,14.713,23.461,23.59,36.632,32.178c9.174,5.979,18.661,12.162,26.652,20.163c0.104,0.107,0.191,0.23,0.258,0.361
			c1.171,2.338,1.183,5.229,0.032,8.155c-1.857,4.712-6.28,8.798-11.546,10.652C487,978.494,477.947,979.593,469.074,979.593z"/>
		<path fill="#F3DEB8" stroke="#F3DEB8" stroke-miterlimit="10" d="M469.074,981.593c-20.393,0-39.689-5.671-58.35-11.188
			c-1.363,0.063-2.798,0.32-4.312,0.592l-0.112,0.021c-1.992,0.361-4.052,0.734-6.22,0.734c-2.486,0-4.705-0.504-6.781-1.541
			c-6.674-3.32-12.564-9.882-16.582-18.476c-0.78-1.675-0.074-3.692,1.572-4.501c0.453-0.224,0.964-0.344,1.472-0.344
			c1.293,0,2.486,0.766,3.041,1.949c3.371,7.212,8.157,12.64,13.477,15.285c1.141,0.568,2.355,0.833,3.822,0.833
			c1.565,0,3.231-0.302,4.995-0.62c1.957-0.352,3.902-0.701,5.953-0.729l0.159-0.004c0.301,0,0.611,0.049,0.921,0.145
			c18.39,5.433,37.416,11.055,56.985,11.055c9.03,0,17.446-1.166,25.728-3.564c3.826-1.37,7.272-4.523,8.587-7.862
			c0.403-1.026,0.767-2.484,0.323-3.786c-7.549-7.436-16.633-13.356-25.422-19.085c-13.544-8.829-27.52-17.941-37.716-33.153
			c-7.26-7.156-15.248-9.462-24.637-7.125c-0.293,0.065-0.539,0.092-0.783,0.093c-1.575,0-2.929-1.068-3.292-2.597
			c-0.43-1.812,0.677-3.646,2.467-4.09c11.669-2.886,22.321,0.266,31.292,9.246l0.248,0.301
			c9.608,14.366,23.046,23.128,36.042,31.602c9.281,6.05,18.856,12.29,26.995,20.438c0.265,0.273,0.468,0.559,0.626,0.869
			c1.433,2.86,1.47,6.335,0.11,9.793c-2.066,5.242-6.949,9.766-12.743,11.807l-0.107,0.034
			C487.86,980.327,478.781,981.593,469.074,981.593z"/>
	</g>
</g>
<g>
	<g>
		<path fill="#F3DEB8" stroke="#F3DEB8" stroke-miterlimit="10" d="M359.628,818.912c-3.669-4.441-12.768-6.871-16.107-1.123
			c-3.598,6.201,2.998,10.154,6.715,9.709C356.319,826.769,364.737,825.094,359.628,818.912z"/>
		<path fill="#F3DEB8" stroke="#F3DEB8" stroke-miterlimit="10" d="M349.643,829.532c-2.74,0-6.432-1.593-8.185-4.636
			c-1.405-2.439-1.287-5.32,0.333-8.111c1.637-2.817,4.514-4.368,8.101-4.368c4.166,0,8.698,2.099,11.278,5.222
			c1.91,2.312,2.483,4.473,1.703,6.425c-1.456,3.641-7.085,4.783-12.399,5.42C350.207,829.516,349.929,829.532,349.643,829.532z
			 M349.892,816.417c-2.164,0-3.726,0.8-4.642,2.377c-0.909,1.565-1.015,2.909-0.326,4.106c1.01,1.754,3.518,2.798,5.073,2.612
			c7.572-0.908,8.929-2.354,9.161-2.935c0.185-0.462-0.216-1.356-1.072-2.392C356.283,818.002,352.836,816.417,349.892,816.417z"/>
	</g>
	<g>
		<path fill="#F3DEB8" stroke="#F3DEB8" stroke-miterlimit="10" d="M349.645,828.925c-2.594,0-6.065-1.515-7.679-4.406
			c-1.243-2.23-1.106-4.874,0.381-7.438c1.521-2.615,4.2-4.057,7.545-4.057c3.919,0,8.351,2.049,10.778,4.99
			c1.747,2.113,2.295,4.059,1.625,5.789c-1.302,3.374-6.747,4.461-11.901,5.084C350.153,828.911,349.902,828.925,349.645,828.925z
			 M349.892,815.812c-1.658,0-3.906,0.47-5.199,2.688c-0.994,1.717-1.113,3.271-0.355,4.637c1.132,2.03,3.951,3.225,5.74,2.977
			c7.275-0.876,9.278-2.294,9.682-3.336c0.337-0.871-0.452-2.093-1.172-2.966C356.671,817.496,353.015,815.812,349.892,815.812z"/>
		<path fill="#F3DEB8" stroke="#F3DEB8" stroke-miterlimit="10" d="M349.645,830.925c-3.08,0-7.342-1.7-9.425-5.432
			c-1.577-2.83-1.432-6.262,0.397-9.416c1.895-3.26,5.188-5.054,9.275-5.054c4.547,0,9.499,2.298,12.321,5.717
			c2.793,3.379,2.601,6.099,1.948,7.784c-1.677,4.345-7.492,5.618-13.527,6.348C350.291,830.907,349.971,830.925,349.645,830.925z
			 M349.892,817.812c-1.647,0-2.815,0.57-3.471,1.695c-0.924,1.597-0.496,2.369-0.334,2.66c0.693,1.242,2.615,2.123,3.717,1.965
			c5.647-0.68,7.438-1.62,7.951-2c-0.097-0.205-0.298-0.55-0.709-1.048C355.501,819.22,352.425,817.812,349.892,817.812z"/>
	</g>
</g>
<g>
	<g>
		<path fill="#F3DEB8" stroke="#F3DEB8" stroke-miterlimit="10" d="M286.069,1036.888c-0.215,0-0.435-0.052-0.637-0.164
			c-3.365-1.819-5.638-4.753-6.758-8.714c-2.838-10.027,2.497-22.947,4.59-26.681c3.33-5.947-0.102-20.028-0.139-20.167
			c-0.184-0.748,0.257-1.508,0.988-1.696c0.736-0.193,1.474,0.259,1.658,1.009c0.152,0.624,3.737,15.322-0.139,22.237
			c-2.444,4.362-6.722,16.097-4.337,24.522c0.907,3.209,2.728,5.571,5.413,7.026c0.666,0.361,0.919,1.205,0.567,1.888
			C287.031,1036.617,286.56,1036.888,286.069,1036.888z"/>
		<path fill="#F3DEB8" stroke="#F3DEB8" stroke-miterlimit="10" d="M286.069,1038.888c-0.563,0-1.119-0.144-1.608-0.416
			c-3.837-2.074-6.438-5.415-7.711-9.918c-3.024-10.683,2.571-24.281,4.77-28.203c2.447-4.371,0.532-15.235-0.333-18.696
			c-0.447-1.821,0.643-3.665,2.427-4.125c0.27-0.071,0.556-0.108,0.843-0.108c1.544,0,2.884,1.06,3.257,2.576
			c0.657,2.688,3.722,16.453-0.336,23.692c-2.22,3.963-6.349,15.255-4.157,23c0.765,2.707,2.218,4.608,4.441,5.813
			c1.614,0.876,2.238,2.923,1.392,4.563C288.463,1038.193,287.322,1038.888,286.069,1038.888z"/>
	</g>
</g>
<g>
	<g>
		<path fill="#F3DEB8" stroke="#F3DEB8" stroke-miterlimit="10" d="M284.449,1003.416c-0.325,0-0.65-0.119-0.912-0.358
			c-0.56-0.515-0.607-1.394-0.104-1.969c0.35-0.399,8.682-9.789,17.378-9.789c0.754,0,1.363,0.625,1.363,1.395
			c0,0.771-0.609,1.394-1.363,1.394c-7.472,0-15.269,8.772-15.348,8.862C285.195,1003.259,284.823,1003.416,284.449,1003.416z"/>
		<path fill="#F3DEB8" stroke="#F3DEB8" stroke-miterlimit="10" d="M284.449,1005.416c-0.836,0-1.639-0.313-2.261-0.882
			c-1.354-1.246-1.468-3.381-0.259-4.763c0.938-1.071,9.438-10.472,18.883-10.472c1.854,0,3.363,1.522,3.363,3.395
			c0,1.871-1.509,3.394-3.363,3.394c-5.409,0-11.831,5.909-13.849,8.187C286.335,1004.996,285.415,1005.416,284.449,1005.416z"/>
	</g>
</g>
<g>
	<g>
		<path fill="#F3DEB8" stroke="#F3DEB8" stroke-miterlimit="10" d="M458.038,1178.762c-2.06-29.369-4.188-59.732-4.879-89.36
			c0-6.781,1.987-14.891,5.291-21.648c3.327-6.235,6.82-12.45,10.197-18.458c13.713-24.399,26.668-47.449,31.766-75.631
			c0.137-0.759-0.353-1.486-1.095-1.623c-0.745-0.161-1.452,0.356-1.588,1.117c-5.013,27.712-17.853,50.559-31.448,74.743
			c-3.386,6.025-6.885,12.252-10.25,18.559c-1.684,3.444-5.602,12.573-5.602,22.974c0.694,29.729,2.824,60.127,4.886,89.526
			c4.342,61.973,8.763,125.452,0.092,187.379"/>
		<path fill="#F3DEB8" stroke="#F3DEB8" stroke-miterlimit="10" d="M499.741,970.086c-0.229-0.049-0.463-0.074-0.696-0.074
			c-1.613,0-2.994,1.175-3.283,2.79c-4.955,27.392-17.714,50.089-31.263,74.189c-3.377,6.011-6.87,12.226-10.264,18.591
			c-1.746,3.57-5.805,13.043-5.805,23.898c0.696,29.867,2.838,60.342,4.891,89.619c3.9,55.575,1.358,170.309-7.877,238.223
			c2.087,2.266,2.768-2.813,4.535-0.283c9.621-63.899,14.507-174.869,10.055-238.417c-2.058-29.341-4.185-59.68-4.874-89.221
			c0-6.49,1.902-14.254,5.056-20.707c3.339-6.258,6.814-12.44,10.177-18.422c13.799-24.551,26.832-47.74,31.99-76.253
			C502.714,972.18,501.502,970.41,499.741,970.086z"/>
	</g>
</g>
<g>
	<g>
		<path fill="#F3DEB8" stroke="#F3DEB8" stroke-miterlimit="10" d="M513.148,783.567c-0.116-5.765-2.057-16.312-6.014-21.714
			c-0.601-0.818-3.697-3.879-6.139-4.244c-1.208-6.467-3.483-14.039-9.931-17.096c-1.676-0.794-5.956-1.428-8.839-0.525
			c-0.82-1.422-1.92-2.179-2.74-2.57c-3.328-1.597-8.201-0.291-11.843,3.173c-3.324,3.162-4.794,7.28-4.181,11.411
			c-0.969-0.4-1.915-0.85-2.833-1.357c-0.424-0.234-0.935-0.225-1.348,0.03c-0.412,0.249-0.664,0.706-0.664,1.194
			c0,1.065-0.594,2.279-1.221,3.562c-0.741,1.516-1.507,3.083-1.494,5.006c5.437,38.904,2.666,78.534,0.013,116.69
			c-0.8,4.083-1.844,7.957-2.854,11.703c-2.445,9.066-4.753,17.637-3.199,27.52c0.119,0.762,0.799,1.256,1.564,1.157
			c0.744-0.124,1.25-0.837,1.131-1.597c-1.461-9.291,0.772-17.57,3.135-26.339c1.023-3.793,2.08-7.717,2.921-12.073
			c2.689-38.472,5.467-78.254,0.004-117.258c0-1.063,0.592-2.278,1.22-3.562c0.431-0.887,0.872-1.786,1.164-2.726
			c1.309,0.617,2.66,1.141,4.041,1.563c0.493,0.147,1.035,0,1.39-0.392c0.354-0.386,0.459-0.948,0.274-1.443
			c-2.089-5.586,1.259-9.585,2.792-11.045c2.761-2.627,6.557-3.795,8.831-2.691c0.729,0.349,1.244,0.896,1.599,1.55
			c-0.699,0.992-1.061,2.684,1.037,5.155c0.365,0.433,0.945,0.587,1.474,0.405c0.526-0.18,0.89-0.678,0.919-1.243
			c0.066-1.243-0.014-2.312-0.194-3.231c1.795-0.471,5.24-0.254,6.751,0.462c5.628,2.669,7.497,9.821,8.578,16.069
			c-0.317,1.23,0.326,2.775,0.588,3.404c0.27,0.648,0.97,0.996,1.633,0.796c0.663-0.191,1.078-0.86,0.969-1.56
			c-0.052-0.337-0.104-0.682-0.16-1.032c1.111,0.6,2.717,1.837,3.428,2.808c3.219,4.392,5.344,13.85,5.469,20.09
			c0.223,11.232-2.739,23.055-5.603,34.486c-1.817,7.254-3.697,14.749-4.715,21.962c-3.06,21.643-1.992,44.002-0.958,65.625
			c0.757,15.846,1.535,32.224,0.672,48.125c0.82,0.512,1.486,1.134,1.996,1.843c0.39-0.227,0.676-0.626,0.704-1.117
			c0.919-16.229,0.125-32.882-0.646-48.987c-1.028-21.491-2.088-43.712,0.933-65.092c0.998-7.06,2.859-14.485,4.658-21.665
			C510.369,807.185,513.377,795.172,513.148,783.567z"/>
		<path fill="#F3DEB8" stroke="#F3DEB8" stroke-miterlimit="10" d="M501.248,958.299l-1.06-1.473
			c-0.365-0.507-0.846-0.949-1.432-1.314l-1.002-0.625l0.064-1.18c0.86-15.853,0.081-32.155-0.672-47.921
			c-1.038-21.715-2.111-44.169,0.976-66.001c1.031-7.302,2.918-14.837,4.744-22.123c2.844-11.352,5.772-23.041,5.554-34.005
			c-0.119-5.964-2.189-15.001-5.083-18.947c-0.111-0.151-0.269-0.327-0.46-0.513c-0.413,0.481-0.963,0.85-1.608,1.036
			c-0.289,0.087-0.611,0.135-0.936,0.135c-1.355,0-2.572-0.818-3.099-2.084c-0.49-1.174-1-2.681-0.775-4.192
			c-1.038-5.855-2.757-12.04-7.401-14.243c-0.544-0.257-1.915-0.519-3.48-0.519c-0.071,0-0.141,0.001-0.209,0.002
			c0.02,0.514,0.016,1.044-0.014,1.586c-0.073,1.394-0.964,2.584-2.271,3.029c-1.276,0.438-2.77,0.035-3.648-1.009
			c-2.195-2.586-2.258-4.712-1.848-6.125c-0.039-0.023-0.079-0.045-0.121-0.064c-0.299-0.146-0.685-0.219-1.127-0.219
			c-1.688,0-3.832,1.002-5.462,2.555c-1.549,1.475-3.907,4.591-2.297,8.896c0.451,1.211,0.193,2.55-0.673,3.495
			c-0.844,0.932-2.22,1.318-3.438,0.956c-0.801-0.245-1.594-0.521-2.376-0.83c-0.139,0.298-0.281,0.591-0.421,0.88
			c-0.485,0.992-0.994,2.031-1.049,2.654c5.461,39.169,2.678,78.99-0.014,117.502l-0.031,0.239
			c-0.857,4.442-1.923,8.394-2.954,12.215c-2.309,8.564-4.485,16.642-3.091,25.508c0.287,1.837-0.959,3.577-2.778,3.88
			c-0.224,0.03-0.374,0.04-0.522,0.04c-1.68,0-3.087-1.203-3.347-2.86c-1.621-10.308,0.742-19.071,3.244-28.35
			c0.99-3.671,2.013-7.465,2.799-11.446l0.005-0.081c2.647-38.073,5.385-77.441-0.013-116.069l-0.019-0.262
			c-0.017-2.393,0.893-4.254,1.695-5.896c0.479-0.979,1.02-2.084,1.02-2.687c0-1.185,0.624-2.298,1.629-2.905
			c0.916-0.566,2.146-0.642,3.149-0.172c0.351-3.563,2.037-6.957,4.869-9.65c2.94-2.796,6.606-4.398,10.058-4.398
			c1.468,0,2.823,0.293,4.029,0.871c0.783,0.375,1.81,1.026,2.732,2.124c2.778-0.464,6.814,0.009,8.838,0.968
			c6.983,3.311,9.545,11.189,10.803,17.323c2.758,1.084,5.414,3.813,6.022,4.641c4.452,6.077,6.289,17.245,6.401,22.857
			c0.234,11.876-2.807,24.016-5.748,35.756c-1.791,7.146-3.636,14.511-4.617,21.459c-2.997,21.204-1.939,43.324-0.916,64.716
			c0.772,16.15,1.571,32.851,0.645,49.196c-0.063,1.131-0.697,2.153-1.696,2.733L501.248,958.299z"/>
	</g>
</g>
<g>
	<g>
		<path fill="#F3DEB8" stroke="#F3DEB8" stroke-miterlimit="10" d="M483.173,757.449c-0.203,0-0.409-0.046-0.605-0.145
			c-0.652-0.329-0.934-1.125-0.647-1.8c0.047-0.157,0.669-2.437-1.238-9.392c-0.204-0.742,0.22-1.514,0.946-1.723
			c0.724-0.209,1.478,0.229,1.681,0.969c2.258,8.239,1.303,10.87,1.088,11.314C484.159,757.165,483.675,757.449,483.173,757.449z"/>
		<path fill="#F3DEB8" stroke="#F3DEB8" stroke-miterlimit="10" d="M483.173,759.449c-0.518,0-1.038-0.124-1.503-0.357
			c-1.535-0.774-2.238-2.585-1.66-4.19c0.041-0.263,0.325-2.493-1.256-8.26c-0.492-1.791,0.55-3.663,2.321-4.173
			c0.299-0.086,0.609-0.13,0.92-0.13c1.507,0,2.84,1.024,3.243,2.491c2.237,8.163,1.562,11.47,0.96,12.715
			C485.626,758.721,484.468,759.449,483.173,759.449z"/>
	</g>
</g>
<g>
	<g>
		<path fill="#F3DEB8" stroke="#F3DEB8" stroke-miterlimit="10" d="M470.509,769.306c-0.028,0-0.057,0-0.085-0.004
			c-0.753-0.046-1.325-0.711-1.278-1.479c0.22-3.639-3.444-10.553-4.874-12.91c-0.396-0.651-0.199-1.513,0.44-1.916
			c0.641-0.408,1.48-0.209,1.877,0.446c0.231,0.375,5.596,9.289,5.28,14.556C471.826,768.734,471.225,769.306,470.509,769.306z"/>
		<path fill="#F3DEB8" stroke="#F3DEB8" stroke-miterlimit="10" d="M470.509,771.306l-0.22-0.009
			c-0.901-0.058-1.725-0.469-2.318-1.157c-0.584-0.678-0.876-1.544-0.821-2.44c0.158-2.625-2.587-8.452-4.587-11.75
			c-0.96-1.577-0.475-3.662,1.083-4.645c0.532-0.339,1.153-0.521,1.789-0.521c1.18,0,2.251,0.606,2.866,1.623
			c0.234,0.38,5.926,9.697,5.566,15.711C473.759,769.905,472.284,771.306,470.509,771.306z M470.507,768.701l0.002,0.604v-0.619
			L470.507,768.701z"/>
	</g>
</g>
<g>
	<g>
		<path fill="#F3DEB8" stroke="#F3DEB8" stroke-miterlimit="10" d="M500.335,777.674c-0.633,0-1.203-0.456-1.334-1.113
			c-1.289-6.456-0.065-14.472-0.009-14.811c0.118-0.761,0.827-1.269,1.56-1.156c0.745,0.121,1.251,0.834,1.132,1.6
			c-0.011,0.074-1.197,7.857-0.01,13.806c0.153,0.754-0.324,1.491-1.062,1.648C500.518,777.666,500.427,777.674,500.335,777.674z"/>
		<path fill="#F3DEB8" stroke="#F3DEB8" stroke-miterlimit="10" d="M500.335,779.674c-1.593,0-2.979-1.144-3.295-2.72
			c-1.396-6.989-0.036-15.443-0.022-15.528c0.275-1.779,2-3.089,3.836-2.809c1.843,0.299,3.093,2.041,2.805,3.885
			c-0.01,0.067-1.127,7.583-0.025,13.105c0.368,1.816-0.801,3.611-2.606,3.996C500.778,779.653,500.557,779.674,500.335,779.674z"/>
	</g>
</g>
<g>
	<g>
		<path fill="#F3DEB8" stroke="#F3DEB8" stroke-miterlimit="10" d="M286.261,763.186c-1.824-2.392-5.663-0.773-6.926-0.24
			c-0.697,0.291-1.028,1.104-0.742,1.817c0.289,0.712,1.094,1.06,1.781,0.753c2.522-1.058,3.546-0.865,3.735-0.613
			c1.916,2.507-7.163,18.466-14.008,27.917c-1.087,1.503-2.187,3.001-3.286,4.503c-6.926,9.453-14.086,19.229-19.01,30.179
			c-5.967,13.27-7.556,27.315-4.724,41.756c3.391,17.283,5.209,34.85,5.722,55.224c0.894-0.275,1.798-0.512,2.711-0.715
			c-0.54-20.268-2.373-37.796-5.758-55.059c-2.716-13.849-1.193-27.319,4.529-40.039c4.802-10.688,11.873-20.338,18.712-29.677
			c1.104-1.502,2.204-3.005,3.296-4.509C272.479,794.226,290.671,768.966,286.261,763.186z"/>
		<path fill="#F3DEB8" stroke="#F3DEB8" stroke-miterlimit="10" d="M246.872,927.169l-0.066-2.638
			c-0.511-20.283-2.317-37.725-5.685-54.89c-2.914-14.853-1.278-29.307,4.862-42.961c5.013-11.149,12.236-21.008,19.221-30.54
			l0.64-0.875c0.883-1.206,1.765-2.411,2.639-3.619c6.798-9.386,12.818-20.676,13.77-24.697c-0.301,0.095-0.666,0.228-1.104,0.411
			c-0.383,0.171-0.833,0.268-1.297,0.268c-1.37,0-2.591-0.83-3.111-2.114c-0.693-1.728,0.126-3.705,1.825-4.414
			c0.835-0.353,2.808-1.186,4.836-1.186c2.38,0,3.734,1.119,4.45,2.059c4.765,6.246-8.152,25.626-13.926,33.669
			c-1.106,1.523-2.208,3.029-3.315,4.534c-6.796,9.28-13.792,18.833-18.499,29.312c-5.548,12.334-7.025,25.399-4.391,38.835
			c3.41,17.387,5.251,34.987,5.795,55.39l0.043,1.648l-1.609,0.357c-0.88,0.196-1.74,0.423-2.556,0.674L246.872,927.169z"/>
	</g>
</g>
<g>
	<g>
		<path fill="#F3DEB8" stroke="#F3DEB8" stroke-miterlimit="10" d="M200.459,929.68c-0.023,0-0.048,0-0.07-0.004
			c-0.752-0.035-1.331-0.688-1.295-1.46c2.823-57.699,7.73-124.354,30.409-185.208c0.066-0.188,0.174-0.354,0.31-0.492
			c3.517-3.595,9.584-5.93,15.219-3.05c0.129,0.066,0.25,0.153,0.354,0.259c0.088,0.091,0.171,0.182,0.254,0.277
			c0.557-2.668,1.542-5.233,2.936-7.419c3.055-4.794,7.583-7.133,12.76-6.576c2.845,0.308,4.957,1.624,6.279,3.921
			c0.564,0.984,0.951,2.092,1.192,3.281c1.13-1.942,2.471-3.493,4.064-4.246c1.631-0.762,3.416-0.666,5.171,0.275
			c0.246,0.135,0.445,0.337,0.572,0.591c0.769,1.509,1.603,2.975,2.431,4.43c4.797,8.446,9.757,17.177-0.092,30.802
			c-0.448,0.62-1.298,0.749-1.909,0.293c-0.605-0.456-0.735-1.331-0.287-1.947c8.786-12.158,4.681-19.38-0.071-27.745
			c-0.773-1.359-1.549-2.728-2.279-4.131c-0.867-0.383-1.635-0.392-2.392-0.034c-2.111,0.995-3.792,4.468-5.054,8.183
			c-0.448,3.993-1.688,7.976-2.773,10.579c-0.276,0.661-1.004,1-1.677,0.778c-0.673-0.221-1.066-0.938-0.907-1.644l0.237-1.063
			c0.523-2.379,1.292-5.875,2.432-9.276c0.302-2.953,0.104-5.771-1.01-7.71c-0.873-1.515-2.25-2.353-4.213-2.563
			c-5.253-0.563-8.442,2.584-10.19,5.327c-1.852,2.902-2.879,6.666-3.015,10.293c0.125,0.431,0.238,0.871,0.342,1.321
			c1.008,1.353,1.579,4.136,1.568,7.862c0.001,0.109-0.01,0.224-0.034,0.331c-0.035,0.144-0.088,0.284-0.163,0.408
			c-0.111,0.19-0.27,0.354-0.463,0.475c-0.082,0.051-0.169,0.092-0.26,0.124c-0.198,0.07-0.401,0.089-0.606,0.065l0,0
			c-0.003,0-0.006,0-0.008,0h-0.002c-0.101-0.014-0.204-0.037-0.299-0.077l0,0c-0.004,0-0.006,0-0.006,0
			c-0.001-0.006-0.003-0.002-0.006-0.002h-0.001c-0.002-0.004-0.004-0.004-0.005-0.004l0,0c-0.282-0.108-0.527-0.316-0.688-0.599
			h-0.001c0,0-0.001-0.002-0.002-0.006l-0.002-0.005c-2.127-3.8-2.902-7.003-2.101-8.542c-0.008-0.331-0.008-0.659-0.002-0.993
			c-0.365-1.155-0.835-2.156-1.5-2.901c-4.824-2.329-9.487,0.333-11.659,2.428c-22.443,60.401-27.319,126.676-30.125,184.07
			C201.783,929.1,201.181,929.68,200.459,929.68z"/>
		<path fill="#F3DEB8" stroke="#F3DEB8" stroke-miterlimit="10" d="M200.459,931.68l-0.261-0.012
			c-0.87-0.065-1.665-0.461-2.249-1.119c-0.592-0.668-0.896-1.529-0.854-2.427c2.831-57.858,7.758-124.7,30.533-185.813
			c0.149-0.426,0.408-0.839,0.754-1.193c3.028-3.095,7.258-4.943,11.315-4.943c1.605,0,3.167,0.276,4.664,0.822
			c0.632-1.995,1.488-3.859,2.526-5.487c3.448-5.409,8.757-8.122,14.66-7.489c3.468,0.375,6.165,2.073,7.799,4.911
			c0.024,0.042,0.047,0.084,0.071,0.126c0.82-0.836,1.688-1.471,2.597-1.901c2.21-1.032,4.667-0.915,6.972,0.321
			c0.624,0.342,1.108,0.843,1.416,1.459c0.743,1.458,1.575,2.921,2.38,4.335c4.872,8.578,10.392,18.297-0.209,32.963
			c-0.63,0.872-1.646,1.394-2.717,1.394c-0.728,0-1.422-0.231-2.009-0.67c-1.48-1.114-1.795-3.232-0.708-4.727
			c8.027-11.108,4.581-17.177-0.189-25.575c-0.567-0.996-1.246-2.189-1.9-3.411c-0.047,0.009-0.105,0.026-0.181,0.062
			c-0.577,0.272-2.105,1.48-3.946,6.818c-0.417,3.494-1.491,7.552-2.889,10.904c-0.527,1.262-1.745,2.076-3.103,2.076
			c-0.355,0-0.708-0.057-1.046-0.168c-1.659-0.544-2.621-2.256-2.232-3.981l0.236-1.06c0.511-2.322,1.279-5.817,2.416-9.26
			c0.261-2.783-0.006-4.956-0.775-6.294c-0.552-0.958-1.357-1.429-2.693-1.572c-0.342-0.036-0.675-0.054-0.998-0.054
			c-2.949,0-5.403,1.503-7.292,4.468c-1.542,2.417-2.516,5.676-2.688,8.984c0.066,0.242,0.13,0.488,0.19,0.736
			c1.417,2.252,1.715,5.926,1.707,8.687c0.002,0.242-0.025,0.506-0.082,0.76c-0.093,0.389-0.227,0.717-0.405,1.011
			c-0.258,0.441-0.648,0.843-1.114,1.134c-0.207,0.128-0.423,0.231-0.65,0.313c-0.437,0.153-0.9,0.216-1.366,0.181l-0.188-0.018
			c-0.11-0.016-0.217-0.035-0.322-0.06h-1.271l-0.153-0.604h-0.556l-0.317-1.269c-1.374-2.504-3.271-6.761-2.231-9.675
			c0-0.098,0-0.194,0-0.292c-0.229-0.665-0.479-1.188-0.757-1.586c-0.852-0.353-1.739-0.53-2.643-0.53
			c-2.387,0-4.626,1.23-6.047,2.478c-22.204,60.02-27.044,125.933-29.836,183.022C203.729,930.264,202.253,931.68,200.459,931.68z
			 M246.789,747.25c0,0.646,0.201,1.748,0.814,3.28C247.425,748.956,247.113,747.876,246.789,747.25z"/>
	</g>
</g>
<g>
	<g>
		<path fill="#F3DEB8" stroke="#F3DEB8" stroke-miterlimit="10" d="M261.838,1094.98c-0.48,0-0.958-0.169-1.292-0.494
			c-6.881-6.717-15.597-12.589-24.027-18.271c-14.201-9.57-28.887-19.463-35.372-33.744c-8.774-19.932-6.324-41.043-3.955-61.461
			c1.304-11.236,2.653-22.856,1.988-33.83c-0.046-0.766,0.671-1.424,1.603-1.46c0.883-0.137,1.724,0.553,1.772,1.319
			c0.676,11.176-0.685,22.9-2.001,34.237c-2.335,20.108-4.747,40.9,3.761,60.226c6.16,13.564,19.848,22.787,34.339,32.554
			c8.547,5.759,17.388,11.716,24.469,18.626c0.602,0.588,0.513,1.469-0.2,1.968C262.609,1094.871,262.222,1094.98,261.838,1094.98z"
			/>
		<path fill="#F3DEB8" stroke="#F3DEB8" stroke-miterlimit="10" d="M261.838,1096.98c-1.235,0-2.4-0.443-3.195-1.215
			c-6.727-6.566-15.338-12.371-23.665-17.985c-14.509-9.777-29.444-19.843-36.154-34.621c-8.967-20.367-6.491-41.703-4.096-62.336
			c1.297-11.177,2.636-22.72,1.98-33.546c-0.054-0.896,0.32-1.757,1.053-2.427c0.712-0.65,1.68-1.045,2.739-1.119
			c2.309-0.266,4.406,1.279,4.528,3.206c0.684,11.32-0.685,23.114-2.008,34.52c-2.31,19.896-4.698,40.462,3.628,59.375
			c5.922,13.039,19.358,22.094,33.583,31.681c8.644,5.824,17.571,11.839,24.801,18.894c1.452,1.418,1.234,3.551-0.486,4.755
			C263.795,1096.688,262.832,1096.98,261.838,1096.98z"/>
	</g>
</g>
<g>
	<path fill="#F3DEB8" stroke="#F3DEB8" stroke-miterlimit="10" d="M276.83,729.656c0,0,8.042-6.932,9.19-3.053
		c1.148,3.876-1.571,15.497-1.571,15.497L276.83,729.656z"/>
</g>
<g>
	<path fill="#F3DEB8" stroke="#F3DEB8" stroke-miterlimit="10" d="M230.18,745.734l11.29-5.912
		C241.47,739.822,230.492,718.219,230.18,745.734z"/>
</g>
<g>
	<g>
		<path fill="#F3DEB8" stroke="#F3DEB8" stroke-miterlimit="10" d="M286.302,762.708l-1.853,10.927
			C284.449,773.635,298.171,762.391,286.302,762.708z"/>
	</g>
	<g>
		<path fill="#F3DEB8" stroke="#F3DEB8" stroke-miterlimit="10" d="M284.449,775.028c-0.238,0-0.478-0.063-0.694-0.195
			c-0.488-0.292-0.747-0.866-0.65-1.438l1.854-10.927c0.11-0.653,0.66-1.138,1.309-1.153l0.513-0.009c1.155,0,4.662,0,5.543,2.561
			c1.269,3.692-5.053,9.24-7.02,10.853C285.056,774.927,284.753,775.028,284.449,775.028z M287.45,764.109l-0.981,5.787
			c2.138-2.213,3.551-4.317,3.279-5.107C289.674,764.578,289.092,764.192,287.45,764.109z"/>
	</g>
</g>
<g>
	<g>
		<path fill="#F3DEB8" stroke="#F3DEB8" stroke-miterlimit="10" d="M457.433,756.514l1.492-6.866
			C458.924,749.647,443.969,741.28,457.433,756.514z"/>
	</g>
	<g>
		<path fill="#F3DEB8" stroke="#F3DEB8" stroke-miterlimit="10" d="M457.433,757.907c-0.382,0-0.75-0.162-1.013-0.46
			c-5.683-6.429-6.423-8.727-5.785-10.197c0.209-0.483,0.776-1.289,2.217-1.289c2.212,0,5.992,2.049,6.728,2.463
			c0.531,0.297,0.807,0.92,0.677,1.524l-1.492,6.867c-0.11,0.512-0.491,0.912-0.984,1.049
			C457.666,757.893,457.547,757.907,457.433,757.907z M453.375,748.811c0.318,0.707,1.149,2.109,3.309,4.715l0.682-3.135
			C456.052,749.727,454.413,749.021,453.375,748.811z"/>
	</g>
</g>
<g>
	<path fill="#F3DEB8" stroke="#F3DEB8" stroke-miterlimit="10" d="M484.672,739.409l9.227,6.325
		C493.899,745.734,479.348,719.977,484.672,739.409z"/>
	<path fill="#F3DEB8" stroke="#F3DEB8" stroke-miterlimit="10" d="M493.899,747.131c-0.264,0-0.529-0.078-0.76-0.237l-9.227-6.324
		c-0.271-0.188-0.466-0.462-0.554-0.782c-1.546-5.646-1.427-7.36-0.731-8.295c0.345-0.467,0.868-0.732,1.436-0.732
		c0.729,0,2.953,0,11.017,14.28c0.317,0.559,0.214,1.271-0.249,1.714C494.571,747.004,494.237,747.131,493.899,747.131z
		 M485.852,738.539l3.657,2.51c-1.719-2.741-3.39-5.174-4.54-6.505C485.093,735.384,485.346,736.646,485.852,738.539z"/>
</g>
<g>
	<g>
		<path fill="#F3DEB8" stroke="#F3DEB8" stroke-miterlimit="10" d="M500.337,756.466l5.41,4.579
			C505.747,761.045,507.949,740.838,500.337,756.466z"/>
	</g>
	<g>
		<path fill="#F3DEB8" stroke="#F3DEB8" stroke-miterlimit="10" d="M505.747,762.438c-0.311,0-0.621-0.107-0.87-0.319l-5.41-4.58
			c-0.49-0.409-0.634-1.116-0.353-1.695c2.711-5.561,4.185-6.703,5.561-6.703c0.594,0,1.152,0.264,1.571,0.741
			c1.678,1.916,1.158,8.554,0.858,11.318c-0.056,0.509-0.381,0.946-0.845,1.136C506.094,762.409,505.92,762.438,505.747,762.438z
			 M502.049,756.105l2.556,2.162c0.146-2.607,0.074-4.951-0.196-6.027C504.034,752.682,503.268,753.72,502.049,756.105z"/>
	</g>
</g>
<g>
	<g>
		<path fill="#F3DEB8" stroke="#F3DEB8" stroke-miterlimit="10" d="M256.417,1226.979c-9.396,43.096-18.271,83.803-13.675,128.438
			c2.036,16.647,5.66,30.508,9.497,45.184c1.36,5.208,2.768,10.594,4.177,16.348c0.115,0.469,0.238,0.927,0.37,1.377h2.87
			c-0.217-0.667-0.421-1.345-0.594-2.052c-1.411-5.77-2.823-11.175-4.188-16.392c-3.976-15.215-7.412-28.355-9.421-44.785
			c-4.546-44.156,4.282-84.644,13.627-127.514c1.827-8.374,3.674-16.854,5.468-25.569c5.963-42.682-4.416-83.98-14.125-115.192
			c-0.231-0.734-0.998-1.134-1.714-0.906c-0.717,0.234-1.115,1.02-0.886,1.751c9.621,30.931,19.909,71.834,14.039,113.868
			C260.088,1210.145,258.241,1218.613,256.417,1226.979z"/>
		<path fill="#F3DEB8" stroke="#F3DEB8" stroke-miterlimit="10" d="M254.462,1226.553c-9.431,43.255-18.339,84.111-13.706,129.106
			c2.053,16.781,5.693,30.705,9.547,45.446l0.04,0.152c1.346,5.153,2.738,10.482,4.129,16.164c0.076,0.312,0.171,0.6,0.254,0.902
			h7.038c-0.288-0.815-0.547-1.654-0.761-2.526c-1.443-5.902-2.906-11.492-4.207-16.462c-3.955-15.132-7.37-28.2-9.356-44.445
			c-4.513-43.833,4.28-84.168,13.592-126.882c1.7-7.791,3.626-16.621,5.473-25.593l0.022-0.127
			c6.018-43.075-4.426-84.652-14.198-116.069c-0.55-1.747-2.42-2.784-4.243-2.207c-1.752,0.573-2.727,2.479-2.175,4.246
			c9.554,30.716,19.775,71.303,13.977,112.935C258.128,1209.741,256.275,1218.242,254.462,1226.553z"/>
	</g>
</g>
<g>
	<path fill="#F3DEB8" stroke="#F3DEB8" stroke-miterlimit="10" d="M311.924,1417.452c15.43-1.735,39.046-21.934,48.526-35.077
		c9.775-13.554,13.688-32.858,10.21-50.381c-2.93-14.764-10.733-26.361-21.973-32.659c-6.428-3.598-10.863-3.549-16.001-3.487
		c-1.927,0.021-3.92,0.046-6.25-0.108c-4.413-0.284-6.981-1.033-7.631-2.221c-0.381-0.695,0.003-1.877,0.392-2.745
		c2.212-4.931,15.313-6.767,20.908-7.55c1.051-0.146,1.972-0.275,2.713-0.4c38.856-6.41,78.056,17.813,85.6,52.906
		c6.584,30.633-29.442,60.264-67.758,82.878l3.408,4.542c12.499-8.144,42.977-26.885,50.674-36.666
		c13.993-17.781,22.259-32.5,18.09-51.894c-3.799-17.675-15.553-33.937-32.247-44.616c-17.265-11.045-38.004-15.273-58.398-11.908
		c-0.712,0.118-1.599,0.242-2.609,0.383c-10.243,1.436-21.425,3.533-24.463,10.305c-1.252,2.793-1.331,5.227-0.233,7.232
		c4.026,7.354,19.537,5.436,26.353,7.521c14.663,4.487,22.083,14.877,24.995,29.548c3.211,16.181-0.374,33.97-9.357,46.425
		c-8.775,12.166-31.342,31.607-45.359,33.184c-1.245,0.139-2.163,1.324-2.05,2.648
		C309.578,1416.635,310.681,1417.589,311.924,1417.452z"/>
</g>
<g>
	<path fill="#F3DEB8" stroke="#F3DEB8" stroke-miterlimit="10" d="M353.21,1210.609"/>
</g>
<path fill="#F1BF96" d="M422.739,1031.472c4.874-7.278,8.237-15.174,2.069-16.784c-6.573-1.713-14.689,8.026-19.968,10.697
	c-23.39,11.839-52.983,12.283-78.785,7.9c-7.383-1.254-14.717-3.861-21.895-5.938c-6.021-1.742-20.93-9.625-26.663-5.821
	c-1.078,0.717-4.443,7.173-3.192,7.766c9.975,4.723,18.666,11.837,25.284,20.58c14.391,3.852,31.397,5.148,40.901,5.579
	c3.283,0.152,6.588,0.363,10.258,0.603c5.888,0.387,12.561,0.824,19.001,0.824c12.411,0,28.434-1.42,42.299-12.49
	C413.567,1043.175,418.678,1037.538,422.739,1031.472z"/>
<path fill="#F3DEB8" stroke="#F3DEB8" stroke-miterlimit="10" d="M301.621,1057.588c0.639-0.014,1.281-0.06,1.948-0.112
	c-1.458-11.563-12.803-15.888-18.841-24.309c-0.827-1.154-1.654-2.304-2.473-3.439l-0.108-0.151
	c-12.127-16.821-24.667-34.217-26.84-55.132c-0.18-1.732-1.633-3.038-3.381-3.038c-0.083,0-0.167,0.003-0.331,0.017
	c-1.836,0.206-3.172,1.878-2.979,3.728c1.578,15.191,8.306,28.724,16.322,41.48c5.314,8.457,12.733,17.249,19.65,24.444
	c5.124,5.33,12.773,9.081,15.082,16.428C300.331,1057.583,300.974,1057.603,301.621,1057.588z"/>
<path fill="none" stroke="#F3DEB8" stroke-width="5" stroke-linecap="round" stroke-linejoin="round" stroke-miterlimit="10" d="
	M417.497,1275.707c-2.229-12.723-14.2-27.147-25.333-25.374"/>
<path fill="none" stroke="#F3DEB8" stroke-width="5" stroke-linecap="round" stroke-linejoin="round" stroke-miterlimit="10" d="
	M426.44,1258.685c4.774,1.828,7.078,13.28,4.207,18.361"/>
<path fill="#F3DEB8" stroke="#F3DEB8" stroke-miterlimit="10" d="M251.692,726.459c0,0,3.234-19.438,8.985-2.512
	c0.216,0.635,0.435,1.32,0.658,2.06"/>
<path fill="none" d="M396.331,1028.981c4.196-3.031,11.504-3.442,16.625-5.084c4.839-1.551,10.323-4.616,13.875-8.416"/>
<path fill="none" d="M389.831,1031.981c6.85-0.797,13.685-4.805,19.776-8.012c6.089-3.205,12.4-5.824,18.224-9.488"/>
<g>
	<g>
		<path fill="#F3DEB8" stroke="#F3DEB8" stroke-miterlimit="10" d="M424.905,996.847c2.421,5.58,5.881,13.559,2.495,19.94
			c0.615,0.978,1.018,2.088,1.198,3.242c5.944-7.849,1.537-18.009-1.2-24.314l-0.723-1.685c-1.409-3.366-0.932-6.585-0.377-10.315
			c0.437-2.933,0.887-5.967,0.478-9.424c-0.089-0.764-0.755-1.336-1.518-1.219c-0.748,0.092-1.28,0.785-1.191,1.552
			c0.365,3.082-0.057,5.925-0.466,8.676c-0.564,3.801-1.148,7.732,0.566,11.829L424.905,996.847z"/>
		<path fill="#F3DEB8" stroke="#F3DEB8" stroke-miterlimit="10" d="M429.236,994.926l-0.716-1.668
			c-1.194-2.853-0.775-5.676-0.244-9.248c0.456-3.063,0.927-6.228,0.486-9.951c-0.2-1.711-1.622-3.002-3.306-3.002
			c-0.165,0-0.333,0.013-0.442,0.03c-1.832,0.225-3.148,1.914-2.934,3.772c0.334,2.818-0.069,5.527-0.458,8.152
			c-0.576,3.881-1.229,8.28,0.708,12.907l0.741,1.724c2.271,5.234,5.217,12.03,2.897,17.477c2.235,1.919,3.106,5.08,2.604,7.969
			C437.558,1014.11,432.168,1001.681,429.236,994.926z"/>
	</g>
</g>
</svg>
