<?xml version="1.0" encoding="utf-8"?>
<!-- Generator: Adobe Illustrator 16.0.0, SVG Export Plug-In . SVG Version: 6.00 Build 0)  -->
<!DOCTYPE svg PUBLIC "-//W3C//DTD SVG 1.1//EN" "http://www.w3.org/Graphics/SVG/1.1/DTD/svg11.dtd">
<svg version="1.1" id="圖層_1" xmlns="http://www.w3.org/2000/svg" xmlns:xlink="http://www.w3.org/1999/xlink" x="0px" y="0px"
	 width="1856.797px" height="1133.858px" viewBox="0 0 1856.797 1133.858" enable-background="new 0 0 1856.797 1133.858"
	 xml:space="preserve">
<rect x="-0.567" y="-0.284" fill="#F9EACC" width="1862.989" height="1139.743"/>
<path fill="#FFFFFF" stroke="#FFFFFF" stroke-miterlimit="10" d="M1692.453,359.5c19.252-42.931,17.844-99.924-3.44-138.596
	c-17.035-30.949-51.162-52.884-89.069-57.262c-37.066-4.299-72.488,8.496-97.171,35.035
	c-29.781,32.044-14.275,93.477,10.715,119.253c0.752,0.78,2.75,2.982,5.479,5.999c11.129,12.297,18.743,20.486,24.045,25.911
	c-0.697-0.261-1.385-0.512-2.071-0.765c-8.863-3.243-18.024-6.604-27.558-9.046c-21.381-5.479-43.119-9.361-64.598-11.541
	c-82.02-8.314-166.121,4.864-237.572,18.855c-14.292,2.803-28.786,6.173-42.804,9.424c-20.831,4.843-42.334,9.833-63.658,13.077
	c-1.197,0.19-2.388,0.363-3.577,0.536c-8.675,1.251-16.963-1.598-25.743-4.606c-4.378-1.496-8.902-3.047-13.482-4.045
	c-11.354-2.465-23.81-4.56-39.211-6.59c-17.351-2.283-35.512-4.165-54.238-5.583c-30.145,0.362-44.292-10.557-47.917-17.014
	c-5.203-9.258-16.914-18.131-19.527-20.045c-8.539-14.455-52.322-46.042-57.104-49.467c-15.521-20.917-33.505-34.246-50.896-47.135
	c-17.149-12.707-33.344-24.713-43.557-42.334c-17.893-30.869-38.061-34.947-44.647-35.42c-6.645-15.651-36.054-52.821-42.091-60.37
	c-4.306-5.386-10.764-27.658-12.844-35.556c-0.09-0.551-0.209-1.063-0.364-1.527c-0.656-2.024-1.845-3.221-3.553-3.574
	c-3.432-0.701-6.435,2.976-7.405,4.399c-5.325,6.308-6.968,24.131-7.04,43.011c-8.286-11.243-26.578-38.129-31.449-52.45
	c-2.84-8.37-6.66-13.385-11.33-14.904c-0.575-0.188-1.134-0.314-1.659-0.386c-3.229-0.457-5.511,0.937-5.794,1.126l-0.729,0.465
	l-0.313,0.787c-0.859,2.118-20.209,52.121,17.342,121.591c-6.094,2.559-11.979,5.606-18.703,9.274
	c-14.64,7.983-29.935,17.085-42.641,29.485l-0.478,0.48c-6.653,6.504-13.53,13.219-18.299,21.21
	c-1.383,2.323-1.788,5.527-2.151,8.354c-0.098,0.71-0.179,1.377-0.276,1.977c-0.428,2.629-0.614,5.195-0.793,7.684
	c-0.266,3.764-1.14,6.968-2.84,10.377c-4.524,9.093-10.569,16.674-18.509,23.17c-5.042,4.126-10.981,7.661-17.65,10.518
	l-0.663,0.293c-55.242,23.626-70.797,31.02-72.317,34.239c-0.172,0.205-0.851,0.7-1.327,1.063
	c-8.319,6.156-14.163,16.078,5.445,43.034c12.568,17.289,35.674,37.988,74.333,38.437c0.065,0,0.13,0,0.195,0
	c5.592,0,20.797-2.583,39.986-5.835c27.013-4.582,72.229-12.249,77.335-8.935c8.246,6.959,55.873,75.4,58.785,91.571
	c3.376,18.706,33.012,59.568,55.631,72.432c3.795,8.866,33.399,77.274,53.105,100.445c13.257,15.604,19.011,35.61,24.57,54.953
	c2.905,10.086,5.64,19.611,9.355,28.272c7.38,17.219,16.638,87.918,22.757,134.692c2.809,21.446,5.025,38.381,6.516,46.544
	c5.073,27.981,7.241,102.436-10.983,123.363c-5.293-1.11-20.45-3.739-27.136,0.787c-1.439,0.984-4.588,2.196-8.237,3.59
	c-11.679,4.487-31.231,11.99-36.014,28.649l-0.818,2.851l3.068,0.48c0.503,0.087,12.487,1.944,19.875-0.063
	c0.697-0.188,0.705-0.188,1.798,1.087c3.342,3.896,7.292,5.479,15.83,1.401c0.08,0.118,0.161,0.244,0.258,0.362
	c1.537,2.016,4.832,4.243,14.988,4.237c5.285,0,12.423-0.6,22.134-2.143c4.055,1.024,24.861,5.504,33.012-8.045
	c9.994-16.613,32.177-56.435,31.132-80.864c1.845,0.135,4.056-0.047,6.159-1.142c3.367-1.755,5.462-5.22,6.224-10.298
	c0.283-1.865,0.542-3.376,0.752-4.621c1.061-6.196,1.117-7.913-4.184-10.235c-0.987-0.432-2.259-0.991-3.763-1.772
	c-3.65-3.486,0.267-34.389,6.353-64.448c4.822,28.281,9.057,55.144,12.034,74.094c3.544,22.509,5.883,37.381,6.862,40.854
	c2.873,10.234-7.056,37.909-11.945,49.756c-39.186,0.206-70.512,33.965-71.848,35.43l-0.324,0.432
	c-1.505,2.536-6.094,10.251-1.958,14.692c4.329,4.645,14.786,1.66,19.657-0.087c5.164,3.566,12.618,6.991,12.966,7.148
	c2.848,1.315,6.175,1.78,9.468,1.78c6.765,0,13.41-1.977,15.578-2.692c43.815,6.25,57.015-13.676,64.128-24.408l0.761-1.14
	c3.06-4.567,3.65-13.243,4.41-24.226c1.094-15.983,4.986-34.334,12.165-48.333c6.092-11.88,7.129-22.855,7.129-29.091
	c0-3.212-0.274-5.172-0.274-5.338c-5.585-17.69-1.96-80.714-2.372-84.69c1.336-26.769-0.874-60.575-2.832-90.406
	c-2.226-33.886-4.322-65.881-0.292-76.416c2.551-6.668,3.44-12.432,3.432-17.226c41.314,18.982,156.76-16.471,189.818-38.358
	c19.083-12.643,34.774-16.02,52.942-19.926c11.913-2.558,25.404-5.464,41.493-11.416l23.809-5.787
	c31.651-3.071,115.251-6.188,125.383,15.644l0.072-0.032c22.604,65.543,110.038,140.534,146.975,172.215
	c7.68,6.589,13.223,11.344,15.83,13.951c18.273,18.272,29.045,65.346,38.537,106.868c2.921,12.771,2.793,27.155,1.198,40.987
	c-3.392,10.558-11.558,27.367-19.48,28.524c-13.247,1.928-38.692,14.611-38.692,26.878l4.071,2.386
	c0.049-0.023,5.998,2.843,8.093-0.094c0.729-1.016,1.846,1.693,2.703,2.937c0.543,0.786,1.143,1.645,1.895,2.456
	c-8.627,3.471-18.639,14.644-21.615,18.131c-6.103,2.803-9.089,5.818-9.138,9.213c-0.041,2.502,1.554,4.289,2.921,5.353
	c-0.429,3.37,0.503,6.4,2.72,8.858c7.219,8.022,26.683,8.1,35.147,7.721c-0.122,2.103,0.518,3.694,1.893,4.772
	c1.095,0.842,2.438,1.172,3.861,1.172c2.662,0,5.593-1.14,7.608-2.109c7.057,2.346,24.487-1.583,36.288-7.173
	c12.494-5.92,18.88-13.226,18.467-21.137c-0.987-18.834,10.318-77.952,21.511-121.348c11.192-43.435,14.826-75.566-3.82-91.193
	c-15.902-13.337-34.313-69.087-34.499-69.645l-0.34-0.686c-16.113-22.965-5.139-67.448-1.53-82.069
	c1.457-5.904,5.908-12.478,10.213-18.833c2.963-4.393,5.771-8.533,7.754-12.597c5.6-11.471,9.84-22.933,12.6-34.081
	c11.266-45.483,2.632-95.083-4.847-128.433c-1.392-6.221-2.121-12.542-2.823-18.659c-1.83-15.786-3.546-30.697-15.685-44.003
	c-9.122-9.999-8.756-17.707-8.198-20.509C1657.207,409.574,1679.017,389.45,1692.453,359.5z M1553.917,301.256
	c-8.384-10.983-16.306-21.36-16.734-33.185c-0.364-10.093,2.728-28.28,16.63-32.461c4.128-1.236,12.116-2.732,21.584-2.732
	c11.742,0,25.768,2.307,37.494,10.259c15.651,10.612,23.923,28.932,24.595,54.458c0.356,13.825-12.495,32.964-31.255,46.529
	c-10.966,7.937-22.231,12.598-31.935,13.456C1578.391,333.299,1565.419,316.318,1553.917,301.256z"/>
<path fill="#F1BF96" d="M1677.843,366.362c18.808-43.111,17.432-100.343-3.361-139.177c-16.642-31.079-49.981-53.106-87.014-57.502
	c-36.21-4.317-70.815,8.531-94.928,35.182c-29.094,32.178-13.946,93.869,10.468,119.753c0.735,0.783,2.687,2.995,5.353,6.024
	c10.872,12.349,18.31,20.571,23.489,26.02c-0.681-0.262-1.353-0.515-2.024-0.768c-8.658-3.256-17.608-6.632-26.921-9.084
	c-20.887-5.502-42.124-9.4-63.107-11.589c-80.126-8.35-162.287,4.885-232.089,18.934c-13.962,2.815-28.122,6.199-41.815,9.463
	c-20.351,4.863-41.357,9.875-62.189,13.132c-1.17,0.19-2.333,0.364-3.495,0.538c-8.475,1.257-16.571-1.604-25.149-4.625
	c-4.276-1.502-8.697-3.06-13.171-4.062c-11.092-2.476-23.26-4.579-38.305-6.618c-16.95-2.293-34.692-4.182-52.986-5.606
	c-29.449,0.364-43.27-10.601-46.811-17.085c-5.083-9.297-16.524-18.207-19.077-20.129c-8.341-14.515-51.114-46.234-55.786-49.674
	c-15.163-21.005-32.731-34.39-49.721-47.333c-16.753-12.76-32.574-24.817-42.551-42.511c-17.479-31-37.182-35.094-43.617-35.569
	c-6.491-15.717-35.222-53.042-41.12-60.624c-4.206-5.408-10.515-27.774-12.547-35.704c-0.087-0.554-0.205-1.067-0.355-1.534
	c-0.641-2.032-1.803-3.234-3.471-3.589c-3.352-0.704-6.286,2.988-7.234,4.419c-5.202,6.333-6.807,24.231-6.878,43.191
	c-8.095-11.29-25.964-38.289-30.723-52.67c-2.774-8.405-6.506-13.441-11.068-14.966c-0.562-0.189-1.107-0.315-1.621-0.388
	c-3.155-0.458-5.384,0.941-5.661,1.131l-0.712,0.467l-0.307,0.791c-0.839,2.126-19.742,52.338,16.942,122.101
	c-5.953,2.569-11.701,5.63-18.271,9.313c-14.302,8.017-29.244,17.157-41.657,29.609l-0.466,0.481
	c-6.5,6.531-13.219,13.275-17.877,21.299c-1.351,2.333-1.747,5.55-2.102,8.389c-0.095,0.712-0.174,1.383-0.27,1.984
	c-0.418,2.64-0.6,5.217-0.774,7.716c-0.26,3.78-1.114,6.997-2.775,10.421c-4.419,9.13-10.325,16.744-18.082,23.267
	c-4.926,4.144-10.728,7.693-17.243,10.562l-0.647,0.293c-53.967,23.726-69.163,31.15-70.648,34.383
	c-0.167,0.206-0.831,0.704-1.297,1.067c-8.127,6.182-13.836,16.145,5.32,43.215c12.278,17.361,34.851,38.146,72.618,38.598
	c0.063,0,0.126,0,0.19,0c5.462,0,20.317-2.594,39.063-5.859c26.39-4.602,70.562-12.301,75.55-8.973
	c8.056,6.989,54.584,75.716,57.429,91.955c3.297,18.784,32.25,59.817,54.347,72.735c3.707,8.902,32.628,77.598,51.879,100.866
	c12.951,15.669,18.572,35.759,24.003,55.184c2.838,10.128,5.509,19.694,9.139,28.391c7.21,17.291,16.254,88.287,22.231,135.257
	c2.745,21.536,4.91,38.542,6.365,46.74c4.957,28.098,7.075,102.866-10.729,123.88c-5.171-1.114-19.979-3.755-26.51,0.791
	c-1.406,0.988-4.482,2.205-8.048,3.605c-11.409,4.506-30.51,12.041-35.182,28.77l-0.799,2.863l2.997,0.482
	c0.491,0.087,12.199,1.952,19.417-0.063c0.681-0.189,0.689-0.189,1.756,1.091c3.265,3.913,7.123,5.501,15.464,1.407
	c0.079,0.119,0.158,0.245,0.252,0.364c1.502,2.024,4.721,4.261,14.643,4.254c5.163,0,12.135-0.602,21.623-2.151
	c3.961,1.028,24.287,5.526,32.249-8.08c9.764-16.682,31.435-56.671,30.414-81.204c1.802,0.136,3.962-0.047,6.017-1.146
	c3.29-1.762,5.336-5.241,6.081-10.341c0.276-1.874,0.529-3.391,0.734-4.641c1.036-6.222,1.092-7.946-4.086-10.278
	c-0.965-0.434-2.207-0.996-3.676-1.779c-3.565-3.501,0.26-34.533,6.206-64.718c4.711,28.399,8.848,55.375,11.757,74.404
	c3.462,22.603,5.747,37.538,6.704,41.024c2.807,10.277-6.894,38.068-11.67,49.965c-38.28,0.206-68.885,34.108-70.189,35.579
	l-0.317,0.434c-1.471,2.546-5.953,10.294-1.913,14.754c4.229,4.664,14.445,1.667,19.204-0.087
	c5.044,3.582,12.327,7.021,12.666,7.178c2.783,1.32,6.033,1.788,9.25,1.788c6.608,0,13.101-1.985,15.219-2.704
	c42.804,6.276,55.699-13.734,62.648-24.51l0.743-1.145c2.989-4.586,3.566-13.298,4.309-24.328
	c1.067-16.05,4.87-34.479,11.883-48.536c5.952-11.93,6.965-22.951,6.965-29.213c0-3.226-0.268-5.194-0.268-5.36
	c-5.456-17.765-1.915-81.052-2.317-85.046c1.305-26.881-0.854-60.829-2.767-90.785c-2.174-34.028-4.222-66.158-0.285-76.736
	c2.491-6.696,3.36-12.483,3.352-17.298c40.361,19.062,153.141-16.54,185.437-38.519c18.643-12.695,33.972-16.087,51.721-20.01
	c11.637-2.569,24.817-5.487,40.535-11.464l23.259-5.811c30.921-3.084,112.591-6.215,122.489,15.709l0.07-0.031
	c22.082,65.817,107.499,141.123,143.583,172.937c7.502,6.617,12.918,11.392,15.464,14.009
	c17.852,18.349,28.374,65.62,37.648,107.316c2.854,12.824,2.728,27.269,1.17,41.159c-3.313,10.603-11.291,27.481-19.031,28.644
	c-12.941,1.937-37.799,14.673-37.799,26.991l3.977,2.396c0.048-0.024,5.859,2.854,7.906-0.095c0.712-1.02,1.803,1.7,2.641,2.949
	c0.53,0.79,1.116,1.651,1.851,2.466c-8.428,3.486-18.208,14.705-21.117,18.208c-5.962,2.814-8.878,5.843-8.927,9.251
	c-0.04,2.513,1.518,4.308,2.854,5.375c-0.419,3.384,0.49,6.428,2.657,8.895c7.052,8.056,26.066,8.135,34.336,7.754
	c-0.119,2.112,0.506,3.709,1.85,4.792c1.068,0.846,2.38,1.177,3.771,1.177c2.601,0,5.464-1.145,7.433-2.118
	c6.894,2.356,23.922-1.589,35.45-7.203c12.207-5.945,18.444-13.281,18.041-21.227c-0.964-18.913,10.081-78.278,21.015-121.856
	c10.934-43.617,14.484-75.882-3.732-91.576c-15.536-13.393-33.522-69.376-33.703-69.937l-0.332-0.688
	c-15.742-23.062-5.021-67.73-1.495-82.413c1.423-5.929,5.771-12.53,9.977-18.911c2.895-4.411,5.638-8.569,7.575-12.65
	c5.471-11.519,9.613-23.029,12.309-34.225c11.006-45.673,2.57-95.481-4.735-128.971c-1.36-6.246-2.072-12.595-2.759-18.737
	c-1.787-15.853-3.463-30.826-15.322-44.187c-8.911-10.042-8.554-17.782-8.009-20.596
	C1643.411,416.646,1664.718,396.437,1677.843,366.362z M1542.506,307.874c-8.19-11.029-15.93-21.449-16.349-33.324
	c-0.356-10.135,2.665-28.398,16.246-32.597c4.033-1.241,11.837-2.743,21.086-2.743c11.472,0,25.173,2.316,36.629,10.302
	c15.29,10.657,23.371,29.054,24.027,54.686c0.348,13.882-12.207,33.103-30.533,46.724c-10.713,7.97-21.719,12.65-31.198,13.513
	C1566.415,340.051,1553.742,322.999,1542.506,307.874z"/>
<path opacity="0.5" fill="#FFFFFF" d="M1669.033,930.021c0,43.56-37.359,78.871-83.444,78.871h-452.986
	c-46.085,0-83.445-35.312-83.445-78.871v-51.829c0-43.56,37.359-78.871,83.445-78.871h452.986c46.085,0,83.444,35.312,83.444,78.871
	V930.021z"/>
<path opacity="0.5" fill="#FFFFFF" d="M1647.149,924.816c0,34.809-34.722,63.028-77.553,63.028h-421.001
	c-42.831,0-77.553-28.219-77.553-63.028v-41.419c0-34.809,34.722-63.027,77.553-63.027h421.001
	c42.831,0,77.553,28.218,77.553,63.027V924.816z"/>
<rect x="1027.124" y="875.823" fill="none" width="663.943" height="81.299"/>
<text transform="matrix(1 0 0 1 1110.6812 920.043)" fill="#A89477" stroke="#A89477" stroke-miterlimit="10" font-family="'MicrosoftJhengHeiLight'" font-size="49.6828">測量範圍三：最大胸圍</text>
<path fill="none" stroke="#538F97" stroke-width="9" stroke-miterlimit="10" stroke-dasharray="12" d="M768.36,195.65
	c0,0-245.777,182.598-357.633,121.478"/>
<path fill="none" stroke="#538F97" stroke-width="9" stroke-miterlimit="10" stroke-dasharray="12" d="M848.924,269.489
	c-4.193,16.06-13.899,31.211-22.696,45.024c-21.689,34.055-50.971,60.693-85.407,81.435c-30.164,18.169-66.765,42.965-103.327,43.71
	c-19.507,0.397-12.436-22.132,0.617-26.945"/>
<path fill="none" stroke="#538F97" stroke-width="9" stroke-miterlimit="10" stroke-dasharray="12" d="M936.638,353.374
	c20.782,19.119,37.295,43.698,52.448,67.272c33.131,51.546,61.209,109.22,66.631,171.022c2.366,26.968,1.944,54.179-1.494,81.028
	c-1.809,14.131-1.229,46.067-19.888,49.188c-9.302,1.556-23.227-1.164-28.866-9.278"/>
<path opacity="0.5" fill="#FFFFFF" d="M704.721,619.805c0,50.544-37.796,91.516-84.42,91.516H162.014
	c-46.624,0-84.421-40.972-84.421-91.516v-60.14c0-50.543,37.797-91.516,84.421-91.516h458.287c46.624,0,84.42,40.972,84.42,91.516
	V619.805z"/>
<path opacity="0.5" fill="#FFFFFF" d="M682.581,613.765c0,40.391-35.129,73.134-78.461,73.134H178.192
	c-43.331,0-78.459-32.743-78.459-73.134v-48.06c0-40.39,35.128-73.132,78.459-73.132H604.12c43.332,0,78.461,32.742,78.461,73.132
	V613.765z"/>
<rect x="174.486" y="536.096" fill="none" width="433.342" height="150.802"/>
<text transform="matrix(1 0 0 1 247.1572 578.8228)"><tspan x="0" y="0" fill="#A89477" stroke="#A89477" stroke-miterlimit="10" font-family="'MicrosoftJhengHeiLight'" font-size="48">測量範圍一：</tspan><tspan x="-72" y="71.749" fill="#A89477" stroke="#A89477" stroke-miterlimit="10" font-family="'MicrosoftJhengHeiLight'" font-size="48">後腦杓到鼻子繞一圈</tspan></text>
<path opacity="0.5" fill="#FFFFFF" d="M650.875,928.899c0,41.673-32.608,75.454-72.832,75.454H182.666
	c-40.223,0-72.832-33.781-72.832-75.454v-49.585c0-41.672,32.608-75.454,72.832-75.454h395.377
	c40.224,0,72.832,33.782,72.832,75.454V928.899z"/>
<path opacity="0.5" fill="#FFFFFF" d="M631.774,923.919c0,33.301-30.307,60.298-67.689,60.298h-367.46
	c-37.384,0-67.69-26.997-67.69-60.298v-39.626c0-33.301,30.306-60.297,67.69-60.297h367.46c37.383,0,67.689,26.996,67.689,60.297
	V923.919z"/>
<rect x="109.834" y="877.587" fill="none" width="541.042" height="77.777"/>
<text transform="matrix(0.8518 0 0 1 216.813 920.3135)" fill="#A89477" stroke="#A89477" stroke-miterlimit="10" font-family="'MicrosoftJhengHeiLight'" font-size="48">測量範圍二：脖圍</text>
<path opacity="0.5" fill="#FFFFFF" stroke="#FFFFFF" stroke-miterlimit="10" d="M1505.727,189.78
	c0,42.893-35.947,77.665-80.292,77.665H989.563c-44.343,0-80.291-34.771-80.291-77.665v-51.037
	c0-42.893,35.948-77.665,80.291-77.665h435.873c44.344,0,80.292,34.771,80.292,77.665V189.78z"/>
<path opacity="0.5" fill="#FFFFFF" d="M1466.863,184.3c0,32.074-31.265,58.076-69.829,58.076h-379.07
	c-38.565,0-69.829-26.002-69.829-58.076v-38.166c0-32.075,31.264-58.076,69.829-58.076h379.07c38.563,0,69.829,26.001,69.829,58.076
	V184.3z"/>
<rect x="901.606" y="132.06" fill="none" width="611.787" height="74.913"/>
<text transform="matrix(1 0 0 1 966.9995 197.9297)" fill="#A89477" stroke="#A89477" stroke-width="2" stroke-miterlimit="10" font-family="'MicrosoftJhengHeiLight'" font-size="74" letter-spacing="7">測量尺寸方式</text>
<g>
	<path fill="#FFFFFF" d="M121.159,106.307c0,0.537-1.03,1.088-3.087,1.655c-1.343,0.358-2.476,1.582-3.401,3.668
		c-5.367,11.931-10.17,21.551-14.406,28.859c-0.09,0.178-0.312,0.254-0.67,0.223c-0.329-0.028-0.554-0.133-0.673-0.313
		c-0.716-1.074-2.549-4.816-5.501-11.229c-2.715-5.905-4.176-8.858-4.386-8.858c-0.327,0-1.922,2.848-4.787,8.546
		c-3.252,6.352-5.175,9.978-5.771,10.871c-0.09,0.208-0.298,0.3-0.627,0.269c-0.329,0-0.582-0.118-0.76-0.356
		c-2.178-3.401-7.188-12.708-15.032-27.919c-0.895-1.791-1.896-2.923-2.999-3.4c-1.91-0.836-2.864-1.446-2.864-1.835
		c0-1.163,0.642-1.684,1.924-1.566c5.755,0.598,10.798,0.479,15.124-0.357c0.983-0.179,1.477,0.149,1.477,0.984
		c0,1.163-0.672,1.909-2.014,2.237c-1.761,0.417-2.639,1.073-2.639,1.968c0,0.567,0.208,1.402,0.625,2.506
		c1.073,2.773,2.684,6.294,4.83,10.56c2.149,4.266,3.401,6.397,3.76,6.397c0.238,0,1.506-2.221,3.803-6.667
		c2.296-4.443,3.445-6.906,3.445-7.382c0-1.164-0.389-2.417-1.164-3.759c-0.924-1.968-1.999-3.146-3.221-3.533
		c-1.969-0.687-2.954-1.358-2.954-2.014c0-1.192,0.672-1.685,2.014-1.477c4.594,0.626,9.456,0.508,14.585-0.357
		c0.983-0.178,1.476,0.119,1.476,0.894c0,1.134-0.731,1.835-2.192,2.104c-1.729,0.327-2.596,1.208-2.596,2.639
		c0,0.688,0.195,1.491,0.582,2.416c4.594,11.245,7.247,16.868,7.965,16.868c0.268,0,1.461-2.193,3.577-6.577
		c2.268-4.683,3.849-8.457,4.744-11.32c0.06-0.149,0.089-0.313,0.089-0.492c0-1.284-1-2.282-2.998-2.998
		c-1.551-0.508-2.326-1.074-2.326-1.7c0-1.044,0.491-1.446,1.477-1.209c1.342,0.3,3.759,0.522,7.249,0.672
		c3.28,0.119,5.443,0.104,6.488-0.045C120.548,105.128,121.159,105.472,121.159,106.307z"/>
	<path fill="#FFFFFF" d="M165.721,121.16c0,5.189-1.923,9.583-5.771,13.176c-3.848,3.595-8.622,5.392-14.316,5.392
		c-5.697,0-10.201-1.58-13.511-4.743c-3.192-3.102-4.788-7.203-4.788-12.302c0-5.281,2.013-9.725,6.039-13.333
		c3.908-3.491,8.577-5.237,14.005-5.237c5.818,0,10.349,1.566,13.601,4.698C164.14,111.854,165.721,115.972,165.721,121.16z
		 M157.846,123.89c0-4.683-1.133-8.486-3.399-11.409c-2.208-2.833-5.013-4.25-8.412-4.25c-3.162,0-5.742,1.111-7.74,3.332
		c-2,2.222-2.998,4.93-2.998,8.121c0,5.132,1.164,9.127,3.489,11.993c2.149,2.623,4.953,3.936,8.412,3.936
		c3.281,0,5.875-1.09,7.785-3.267C156.893,130.169,157.846,127.35,157.846,123.89z"/>
	<path fill="#FFFFFF" d="M211.267,121.16c0,5.189-1.924,9.583-5.771,13.176c-3.848,3.595-8.619,5.392-14.318,5.392
		c-5.695,0-10.199-1.58-13.509-4.743c-3.193-3.102-4.79-7.203-4.79-12.302c0-5.281,2.014-9.725,6.042-13.333
		c3.907-3.491,8.573-5.237,14.004-5.237c5.815,0,10.349,1.566,13.601,4.698C209.686,111.854,211.267,115.972,211.267,121.16z
		 M203.392,123.89c0-4.683-1.13-8.486-3.399-11.409c-2.207-2.833-5.012-4.25-8.41-4.25c-3.162,0-5.741,1.111-7.74,3.332
		c-1.998,2.222-3,4.93-3,8.121c0,5.132,1.165,9.127,3.49,11.993c2.148,2.623,4.951,3.936,8.41,3.936c3.283,0,5.877-1.09,7.787-3.267
		C202.439,130.169,203.392,127.35,203.392,123.89z"/>
	<path fill="#FFFFFF" d="M252.027,78.164c0,1.252-0.567,2.715-1.701,4.385c-1.133,1.671-2.028,2.505-2.685,2.505
		c-0.806,0-1.655-0.402-2.551-1.208c-1.878-1.341-3.535-2.012-4.966-2.012c-5.666,0-8.5,3.967-8.5,11.901v9.619
		c0,1.492,1.281,2.132,3.849,1.924l5.681-0.447c2.238-0.18,3.461,0.178,3.668,1.073c0.062,0.299,0.09,0.731,0.09,1.298
		c0,1.223-0.299,1.984-0.896,2.282c-0.356,0.208-1.28,0.314-2.772,0.314h-5.684c-2.535,0-3.847,0.536-3.937,1.609
		c-0.06,0.628-0.06,7.115,0,19.463c0,1.67,0.774,2.863,2.325,3.579c1.164,0.567,3.104,0.954,5.816,1.164
		c1.076,0.089,1.725,0.216,1.946,0.378c0.226,0.166,0.337,0.649,0.337,1.455c0,0.924-0.127,1.478-0.381,1.655
		c-0.252,0.181-0.887,0.239-1.902,0.181c-6.59-0.358-12.511-0.27-17.759,0.268c-1.374,0.148-2.209,0.148-2.507,0
		c-0.299-0.148-0.448-0.672-0.448-1.564c0-0.748,0.865-1.358,2.595-1.836c2.057-0.566,3.086-2.059,3.086-4.473v-17.406
		c0-1.82-0.281-3.089-0.849-3.803c-0.39-0.479-1.134-0.894-2.237-1.253c-1.729-0.538-2.595-1.388-2.595-2.551
		c0-0.804,0.358-1.313,1.073-1.52c0.238-0.06,0.986-0.105,2.236-0.135c1.074-0.03,1.746-0.267,2.014-0.714
		c0.181-0.328,0.27-1.134,0.27-2.418v-7.112c0-5.667,2.325-10.306,6.979-13.914c4.442-3.431,9.905-5.146,16.375-5.146
		C250.686,75.704,252.027,76.526,252.027,78.164z"/>
</g>
<g>
	<path fill="#FFFFFF" d="M121.159,176.436c0,0.536-1.03,1.089-3.087,1.655c-1.341,0.355-2.476,1.579-3.4,3.668
		c-5.368,11.931-10.171,21.549-14.407,28.861c-0.089,0.175-0.312,0.252-0.672,0.219c-0.326-0.027-0.55-0.133-0.67-0.313
		c-0.715-1.071-2.549-4.815-5.503-11.229c-2.715-5.905-4.176-8.855-4.385-8.855c-0.328,0-1.924,2.848-4.787,8.543
		c-3.25,6.354-5.175,9.979-5.772,10.875c-0.088,0.208-0.298,0.295-0.625,0.266c-0.328,0-0.582-0.117-0.76-0.355
		c-2.179-3.398-7.189-12.706-15.033-27.92c-0.895-1.787-1.894-2.92-2.998-3.4c-1.911-0.832-2.863-1.441-2.863-1.83
		c0-1.168,0.641-1.688,1.924-1.565c5.756,0.596,10.797,0.476,15.122-0.361c0.985-0.179,1.478,0.151,1.478,0.984
		c0,1.165-0.672,1.907-2.015,2.237c-1.759,0.418-2.639,1.072-2.639,1.971c0,0.568,0.208,1.4,0.625,2.504
		c1.074,2.771,2.686,6.294,4.834,10.563c2.146,4.266,3.4,6.396,3.758,6.396c0.237,0,1.505-2.226,3.802-6.667
		c2.296-4.443,3.444-6.906,3.444-7.38c0-1.162-0.386-2.42-1.162-3.761c-0.926-1.967-2-3.148-3.222-3.533
		c-1.971-0.688-2.953-1.358-2.953-2.014c0-1.195,0.671-1.688,2.013-1.479c4.593,0.629,9.455,0.508,14.585-0.355
		c0.985-0.183,1.477,0.117,1.477,0.896c0,1.13-0.73,1.832-2.192,2.101c-1.73,0.327-2.596,1.207-2.596,2.641
		c0,0.686,0.195,1.492,0.582,2.417c4.594,11.243,7.25,16.866,7.964,16.866c0.268,0,1.461-2.194,3.58-6.578
		c2.269-4.682,3.847-8.457,4.742-11.32c0.062-0.146,0.09-0.311,0.09-0.491c0-1.278-1-2.278-3-2.996
		c-1.549-0.506-2.325-1.071-2.325-1.7c0-1.045,0.493-1.444,1.477-1.207c1.342,0.299,3.758,0.523,7.247,0.668
		c3.282,0.123,5.446,0.106,6.489-0.043C120.549,175.256,121.159,175.599,121.159,176.436z"/>
	<path fill="#FFFFFF" d="M163.172,205.026c0,0.628-1.143,1.572-3.424,2.843c-2.281,1.268-4.107,1.898-5.48,1.898
		c-1.162,0-2.191-0.568-3.087-1.7c-0.895-1.136-1.521-1.698-1.879-1.698c-0.268,0-1.686,0.608-4.251,1.832
		c-2.564,1.225-5.145,1.832-7.74,1.832c-2.445,0-4.489-0.713-6.128-2.145c-1.79-1.579-2.685-3.727-2.685-6.446
		c0-5.157,5.905-8.854,17.718-11.093c2.028-0.387,3.057-1.209,3.086-2.459l0.09-2.867c0.179-4.889-1.985-7.335-6.489-7.335
		c-1.28,0-2.496,1.147-3.645,3.443c-1.149,2.299-2.797,3.534-4.945,3.714c-2.446,0.238-3.668-0.79-3.668-3.086
		c0-1.432,1.819-3.1,5.456-5.014c3.82-1.996,7.487-2.994,11.009-2.994c6.054,0,9.05,2.877,8.994,8.634l-0.182,18.437
		c-0.027,1.938,0.79,2.906,2.46,2.906c0.33,0,0.955-0.078,1.881-0.227c0.923-0.146,1.462-0.226,1.61-0.226
		C162.738,203.277,163.172,203.863,163.172,205.026z M149.391,194.824c0.03-0.746-0.142-1.236-0.515-1.474s-0.961-0.286-1.766-0.137
		c-7.189,1.278-10.784,3.622-10.784,7.024c0,3.43,1.863,5.144,5.592,5.144c1.493,0,3.027-0.282,4.609-0.851
		c1.851-0.656,2.774-1.445,2.774-2.373L149.391,194.824z"/>
	<path fill="#FFFFFF" d="M215.607,208.517c0,0.921-0.67,1.341-2.015,1.25c-6.412-0.329-11.274-0.39-14.585-0.179
		c-1.698,0.12-2.624-0.091-2.773-0.628c-0.059-0.178-0.088-0.432-0.088-0.76c0-0.596,0.863-1.134,2.596-1.609
		c1.58-0.447,2.371-1.982,2.371-4.607v-11.902c0-6.832-2.969-10.246-8.905-10.246c-2.651,0-5.114,0.628-7.382,1.878
		c-2.146,1.224-3.221,2.493-3.221,3.802v16.379c0,2.803,1.834,4.368,5.504,4.698c1.4,0.121,2.104,0.563,2.104,1.341
		c0,0.746-0.196,1.191-0.583,1.344c-0.179,0.059-0.687,0.074-1.521,0.045c-4.685-0.182-9.518,0.058-14.496,0.713
		c-1.076,0.15-1.748,0.197-2.014,0.137c-0.598-0.117-0.895-0.581-0.895-1.387c0-0.717,0.85-1.328,2.55-1.832
		c1.58-0.48,2.371-2.465,2.371-5.955v-13.557c0-2.297-0.3-3.758-0.896-4.383c-0.418-0.451-1.804-1.075-4.162-1.882
		c-0.597-0.205-0.894-0.626-0.894-1.25c0-0.597,0.61-1.119,1.833-1.567c1.672-0.627,3.505-1.623,5.504-2.994
		c1.67-1.138,2.746-1.703,3.223-1.703c0.806,0,1.342,0.918,1.609,2.754c0.268,1.832,0.643,2.752,1.117,2.752
		c-0.238,0,1.283-0.873,4.564-2.617c3.279-1.746,6.519-2.62,9.709-2.62c7.724,0,11.617,4.401,11.676,13.198l0.09,14.41
		c0,1.846,0.479,3.173,1.433,3.979c0.714,0.6,2.101,1.105,4.159,1.523C214.938,207.306,215.607,207.797,215.607,208.517z"/>
	<path fill="#FFFFFF" d="M244.375,205.113c0,1.436-1.313,2.654-3.938,3.67c-2.326,0.895-4.683,1.342-7.068,1.342
		c-6.473,0-9.709-3.445-9.709-10.334v-16.195c0-2.061-0.164-3.319-0.491-3.78c-0.328-0.464-1.416-0.917-3.269-1.366
		c-0.475-0.117-0.713-0.58-0.713-1.384c0-0.866,0.178-1.391,0.535-1.567c3.221-1.58,6.023-4.416,8.412-8.502
		c0.328-0.566,0.969-0.746,1.924-0.537c0.656,0.209,1,0.597,1.03,1.164l0.178,5.593c0,0.418,0.074,0.715,0.224,0.896
		c0.209,0.269,0.686,0.401,1.433,0.401h9.978c0.566,0,0.566,0.703,0,2.104c-0.688,1.699-1.701,2.551-3.043,2.551h-6.754
		c-1.164,0-1.882,0.195-2.148,0.578c-0.207,0.269-0.313,1.002-0.313,2.193v14.633c0,3.695,0.328,6.039,0.983,7.022
		c0.866,1.254,2.878,1.879,6.042,1.879c1.044,0,2.311-0.172,3.803-0.515c1.492-0.344,2.282-0.514,2.371-0.514
		C244.197,204.445,244.375,204.666,244.375,205.113z"/>
</g>
<ellipse fill="#FFFFFF" cx="89.787" cy="80.292" rx="18.089" ry="14.88"/>
</svg>
