<?xml version="1.0" encoding="utf-8"?>
<!-- Generator: Adobe Illustrator 16.0.0, SVG Export Plug-In . SVG Version: 6.00 Build 0)  -->
<!DOCTYPE svg PUBLIC "-//W3C//DTD SVG 1.1//EN" "http://www.w3.org/Graphics/SVG/1.1/DTD/svg11.dtd">
<svg version="1.1" id="圖層_1" xmlns="http://www.w3.org/2000/svg" xmlns:xlink="http://www.w3.org/1999/xlink" x="0px" y="0px"
	 width="1814.451px" height="422px" viewBox="0 0 1814.451 422" enable-background="new 0 0 1814.451 422" xml:space="preserve">
<g>
	<g>
		<path fill="#F1BF96" d="M892.017,99.424c1.536,1.704,2.306,4.382,2.306,8.037v85.223c0,4.318-0.935,7.455-2.804,9.407
			c-1.868,1.951-4.797,2.928-8.783,2.928h-5.731c-3.24,0-4.858-1.579-4.858-4.734c0-3.24,1.619-4.859,4.858-4.859h3.488
			c2.907,0,4.36-1.62,4.36-4.859v-27.66h-13.58c-0.499,17.942-2.7,30.61-6.604,38.002c-0.666,1.328-1.476,2.346-2.43,3.052
			c-0.956,0.705-1.932,1.059-2.929,1.059c-0.996,0-1.952-0.333-2.865-0.997c-1.246-0.915-1.869-2.161-1.869-3.738
			c0-0.832,0.249-1.912,0.748-3.24c1.661-4.734,2.844-8.472,3.551-11.213c0.705-2.741,1.349-6.686,1.931-11.836
			c0.83-7.558,1.246-17.36,1.246-29.405v-36.382c0-7.558,3.321-11.338,9.968-11.338h12.584
			C888.008,96.87,890.479,97.723,892.017,99.424z M884.852,110.7c0-3.072-1.453-4.61-4.36-4.61h-4.734
			c-2.825,0-4.236,1.579-4.236,4.735v14.453h13.332L884.852,110.7L884.852,110.7z M884.852,153.686v-19.188h-13.331v19.188H884.852z
			 M896.813,142.597V132.38c0-2.741,0.726-4.838,2.18-6.292c1.453-1.452,3.551-2.18,6.292-2.18h20.06v-9.594H907.03
			c-3.656,0-5.482-1.536-5.482-4.61c0-2.99,1.826-4.485,5.482-4.485h18.314v-7.351c0-3.654,1.577-5.482,4.735-5.482
			c3.072,0,4.61,1.828,4.61,5.482v7.351h21.929c3.57,0,5.357,1.495,5.357,4.485c0,3.074-1.788,4.61-5.357,4.61H934.69v9.594h23.175
			c2.741,0,4.838,0.728,6.292,2.18c1.452,1.454,2.181,3.551,2.181,6.292v9.968c0,4.154-1.62,6.23-4.858,6.23
			c-3.24,0-4.859-1.869-4.859-5.607v-6.105c0-2.573-1.289-3.862-3.862-3.862h-42.86c-2.492,0-3.738,1.289-3.738,3.862v6.23
			c0,3.656-1.538,5.482-4.61,5.482C898.39,148.578,896.813,146.584,896.813,142.597z M967.958,173.248
			c0,2.908-1.787,4.361-5.358,4.361h-27.784v15.574c0,4.069-0.915,6.978-2.741,8.722c-2.077,1.994-5.192,2.99-9.344,2.99h-4.236
			c-3.573,0-5.358-1.538-5.358-4.61c0-3.158,1.62-4.735,4.859-4.735h3.364c2.989,0,4.484-1.538,4.484-4.61v-13.332H902.42
			c-3.489,0-5.233-1.453-5.233-4.361c0-2.823,1.745-4.236,5.233-4.236h23.424c0-3.489,0.27-5.73,0.811-6.729
			c0.54-0.997,1.577-1.951,3.114-2.866c1.536-0.913,2.637-1.577,3.303-1.993c2.323-1.412,4.174-2.617,5.544-3.613
			c1.371-0.997,2.056-1.661,2.056-1.994c0-0.415-0.292-0.623-0.872-0.623h-27.162c-3.239,0-4.858-1.411-4.858-4.236
			c0-2.906,1.62-4.361,4.858-4.361h35.884c4.734,0,7.102,1.663,7.102,4.984c0,1.495-1.682,3.635-5.046,6.417
			c-3.364,2.784-7.207,5.379-11.525,7.787c-1.414,0.831-2.451,1.807-3.115,2.928c-0.666,1.122-1.04,2.554-1.122,4.299H962.6
			C966.17,169.011,967.958,170.424,967.958,173.248z"/>
		<path fill="#F1BF96" d="M1016.799,203.275c-0.997-0.915-1.495-2.327-1.495-4.236c0-3.656,2.118-5.482,6.354-5.482h7.351
			c4.069,0,6.063-1.951,5.98-5.856v-32.893h-45.478c-4.154,0-6.229-1.702-6.229-5.108c0-1.661,0.499-2.885,1.495-3.675
			c0.997-0.789,2.573-1.184,4.734-1.184h45.478v-8.597c0-4.236,0.83-7.476,2.492-9.719c0.996-1.328,5.938-4.318,14.826-8.971
			c5.315-2.741,8.909-4.735,10.778-5.979c1.869-1.246,2.803-2.159,2.803-2.741c0-0.331-0.167-0.623-0.499-0.872
			c-0.333-0.25-0.707-0.374-1.121-0.374h-63.544c-2.077,0-3.594-0.393-4.547-1.184c-0.956-0.789-1.433-2.013-1.433-3.676
			c0-1.661,0.477-2.885,1.433-3.675c0.954-0.789,2.47-1.184,4.547-1.184h75.754c2.907,0,5.048,0.52,6.417,1.557
			c1.37,1.04,2.057,2.638,2.057,4.797c0,1.579-2.057,3.987-6.167,7.227c-4.112,3.24-9.906,6.978-17.381,11.214l-5.233,2.99
			c-5.899,3.239-9.096,5.233-9.594,5.98c-0.915,1.33-1.37,3.282-1.37,5.856v7.351h44.355c4.236,0,6.354,1.62,6.354,4.859
			c0,3.407-2.118,5.108-6.354,5.108h-44.355v34.887c0,5.149-1.205,8.928-3.613,11.338c-2.41,2.408-5.939,3.613-10.591,3.613h-9.345
			C1019.416,204.646,1017.796,204.188,1016.799,203.275z"/>
		<path fill="#F1BF96" d="M995.244,357.748c-0.915-0.747-1.37-1.911-1.37-3.488c0-3.406,1.951-5.107,5.856-5.107h8.472
			c2.492,0,4.153-0.418,4.984-1.246c0.829-0.831,1.245-2.532,1.245-5.108v-21.431c-14.039,10.136-29.446,18.357-46.225,24.67
			c-16.281,6.063-26.956,9.096-32.021,9.096c-2.077,0-3.552-0.374-4.424-1.121c-0.873-0.748-1.309-2.035-1.309-3.861
			c0-1.994,0.81-3.405,2.43-4.236c1.62-0.83,4.797-1.785,9.532-2.866c0.58-0.081,1.536-0.29,2.866-0.623
			c9.302-2.157,18.771-5.024,28.408-8.597c10.217-3.819,19.437-8.225,27.659-13.207c-12.958,1.828-24.296,3.281-34.015,4.359
			c-9.718,1.082-20.103,2.078-31.148,2.99c-2.161,0.168-3.697-0.164-4.61-0.996c-0.915-0.83-1.371-2.117-1.371-3.861
			c0-1.577,0.664-2.762,1.994-3.553c1.328-0.787,3.405-1.265,6.229-1.433l9.097-0.747v-48.468c0-4.402,0.954-7.601,2.865-9.595
			c1.91-1.993,4.984-2.822,9.221-2.491h13.581l1.869-4.734c1.743-4.567,3.902-6.854,6.479-6.854c1.91,0,3.342,0.438,4.298,1.31
			c0.954,0.872,1.434,2.056,1.434,3.552c0,0.996-1.08,3.239-3.239,6.729h28.159c4.401,0,7.6,0.956,9.594,2.865
			c1.994,1.912,2.823,4.983,2.492,9.221v34.264l7.352-7.975c1.661-1.744,2.99-3.031,3.987-3.862
			c0.997-0.829,1.826-1.246,2.492-1.246c3.155,0,4.734,1.579,4.734,4.735c0,2.824-6.188,9.22-18.564,19.188v31.771
			c0,4.318-1.289,7.725-3.862,10.217c-2.161,2.075-5.276,3.031-9.345,2.866h-11.341C997.652,358.87,996.157,358.496,995.244,357.748
			z M1014.432,271.279c0-2.243-0.374-3.738-1.122-4.485c-0.748-0.748-2.242-1.122-4.484-1.122h-45.728
			c-2.242,0-3.737,0.374-4.484,1.122c-0.748,0.747-1.121,2.242-1.121,4.485v4.734h56.939V271.279L1014.432,271.279z
			 M1014.432,295.201v-10.467h-56.939v10.467H1014.432z M967.958,315.635c20.599-1.826,36.09-3.445,46.474-4.857v-6.854h-56.939
			v12.709L967.958,315.635z"/>
		<path fill="#F1BF96" d="M1058.414,301.182v-10.84c0-2.408,0.518-4.275,1.557-5.605c1.038-1.327,2.554-2.075,4.548-2.242V258.82
			c0-6.146,3.115-9.221,9.346-9.221h19.438c6.229,0,9.344,3.074,9.344,9.221v23.674c1.91,0.167,3.427,0.915,4.549,2.242
			c1.121,1.33,1.724,3.197,1.808,5.605v8.723c0,3.322-1.371,4.983-4.113,4.983c-2.74,0-4.11-1.661-4.11-4.983v-4.858
			c0-2.075-1.039-3.115-3.115-3.115h-27.784c-2.078,0-3.158,1.04-3.24,3.115v6.978c0,3.239-1.371,4.858-4.112,4.858
			C1059.785,306.041,1058.414,304.422,1058.414,301.182z M1068.444,357.873c-0.791-0.831-1.185-2.077-1.185-3.738V306.54
			c0-5.897,3.031-8.847,9.097-8.847h15.698c5.98,0,8.972,2.949,8.972,8.847v41.489c0,3.57-0.832,6.25-2.492,8.037
			c-1.662,1.785-4.236,2.679-7.726,2.679h-4.235c-1.496,0-2.617-0.354-3.365-1.06c-0.746-0.707-1.121-1.807-1.121-3.302
			c0-2.989,1.453-4.485,4.361-4.485h2.119c1.162,0,2.073-0.332,2.739-0.996c0.664-0.666,0.996-1.62,0.996-2.866v-8.349h-16.071
			v16.446c0,3.321-1.494,4.984-4.485,4.984C1070.333,359.119,1069.232,358.702,1068.444,357.873z M1079.096,273.396
			c0-5.064,2.492-7.601,7.478-7.601h8.223v-4.11c0-2.076-1.08-3.156-3.238-3.24h-15.698c-2.078,0-3.199,1.121-3.365,3.363v20.56
			h6.603L1079.096,273.396L1079.096,273.396z M1092.303,309.156c0-2.159-1.08-3.239-3.237-3.239h-9.595
			c-2.162,0-3.239,1.08-3.239,3.239v4.859h16.071V309.156z M1092.303,329.715v-7.726h-16.071v7.726H1092.303z M1094.795,273.646
			h-4.733c-1.994,0-2.99,0.955-2.99,2.864v5.856h7.725L1094.795,273.646L1094.795,273.646z M1103.766,352.891
			c0-2.742,1.371-4.113,4.111-4.113h14.703l-2.242-9.594c-2.908,0-5.151-0.643-6.729-1.931c-1.578-1.287-2.367-3.178-2.367-5.67
			v-7.974c0-2.574,0.727-4.549,2.18-5.918c1.453-1.371,3.593-2.058,6.418-2.058h36.506c5.813,0,8.722,2.576,8.722,7.726v7.851
			c0,5.315-3.033,7.974-9.095,7.974l-2.118,9.594h13.332c2.739,0,4.11,1.371,4.11,4.113c0,2.739-1.371,4.11-4.11,4.11h-59.31
			C1105.137,357.001,1103.766,355.63,1103.766,352.891z M1109.374,308.97c-0.748-0.704-1.121-1.683-1.121-2.929
			c0-2.741,1.451-4.111,4.361-4.111h54.697c2.655,0,3.985,1.37,3.985,4.111c0,2.659-1.33,3.986-3.985,3.986h-54.697
			C1111.2,310.027,1110.122,309.676,1109.374,308.97z M1112.053,293.831c-1.621-1.577-2.307-4.111-2.057-7.601v-20.186
			c0-3.654,0.789-6.313,2.367-7.975c1.575-1.66,4.11-2.366,7.6-2.117h6.479v-6.229c0-1.412,0.312-2.431,0.935-3.054
			s1.557-0.935,2.803-0.935c2.574,0,3.863,1.328,3.863,3.986v6.229h8.348v-6.229c0-2.658,1.287-3.986,3.863-3.986
			c2.492,0,3.736,1.328,3.736,3.986v6.229h7.227c3.654,0,6.293,0.79,7.912,2.366c1.621,1.58,2.346,4.154,2.182,7.726v20.185
			c0,3.572-0.811,6.189-2.43,7.851c-1.621,1.663-4.174,2.367-7.664,2.118h-37.254
			C1116.307,296.198,1113.672,295.41,1112.053,293.831z M1126.567,263.928h-5.107c-1.744,0-2.701,0.956-2.865,2.866v5.606h7.974
			L1126.567,263.928L1126.567,263.928z M1126.567,279.503h-7.974v5.979c0,1.828,0.953,2.783,2.865,2.865h5.107L1126.567,279.503
			L1126.567,279.503z M1155.848,328.967v-3.115c0-1.826-0.916-2.78-2.741-2.864h-29.902c-1.828,0-2.74,0.956-2.74,2.864v3.115
			c0,1.744,0.912,2.7,2.74,2.866h29.902C1154.768,331.833,1155.68,330.879,1155.848,328.967z M1145.381,348.777l1.744-9.221v-0.373
			h-18.191l1.994,8.722l0.125,0.872H1145.381L1145.381,348.777z M1142.516,272.4v-8.474h-8.598v8.474H1142.516z M1142.516,288.35
			v-8.847h-8.598v8.847H1142.516z M1158.588,266.794c0-1.91-0.955-2.866-2.865-2.866h-5.854v8.473h8.721L1158.588,266.794
			L1158.588,266.794z M1158.588,285.482v-5.979h-8.721v8.847h5.854C1157.633,288.35,1158.588,287.395,1158.588,285.482z"/>
	</g>
</g>
<path fill="none" stroke="#F1BF96" stroke-width="7" stroke-linecap="round" stroke-linejoin="round" stroke-miterlimit="10" d="
	M533.861,229.088c0,0-8.628-22.348-23.011-24.715c-14.38-2.37-96.25-6.005-110.252-18.157c-5.058-4.39-8.528,3.566-9.706,7.343
	c-3.064,9.839-0.781,21.698,2.684,31.077c5.583,15.117,16.468,27.667,29.48,36.943c8.729,6.224,18.897,11.854,29.208,14.896
	c23.902,7.041,45.646,33.313,71.53,13.724"/>
<path fill="none" stroke="#F1BF96" stroke-width="7" stroke-linecap="round" stroke-linejoin="round" stroke-miterlimit="10" d="
	M635.726,277.5c7.183-0.43,14.405-2.1,20.135-6.849c4.783-3.964,6.899-10.286,11.865-13.651"/>
<g>
	<path fill="none" stroke="#F1BF96" stroke-width="7" stroke-linecap="round" stroke-linejoin="round" stroke-miterlimit="10" d="
		M685.888,343.389c33.24,6.881,71.962,4.688,94.297-12.263"/>
	<path fill="none" stroke="#F1BF96" stroke-width="7" stroke-linecap="round" stroke-linejoin="round" stroke-miterlimit="10" d="
		M780.208,331.102c-0.004,0.012-0.009,0.02-0.023,0.026c-0.673,1.042-22.67,34.29-45.992,31.312
		c-20.543-2.625-67.131-11.269-99.232,6.203c-32.094,17.476-112.34,23.358-123.7,24.819c-11.364,1.449-67.442-1.606-67.442-1.606"/>
	<g>
		<g id="XMLID_7_">
			<g>
				<path fill="#F1BF96" d="M786.542,286.098c6.651,4.29,20.396,5.564,8.354,27.313c0.402-9.427-8.407-6.933-13.087-13.65
					c-3.098-4.438,2.964-14.469,2.964-14.469l0.12-0.214C785.537,285.454,786.086,285.802,786.542,286.098z"/>
			</g>
			<g>
				
					<path fill="none" stroke="#F1BF96" stroke-width="7" stroke-linecap="round" stroke-linejoin="round" stroke-miterlimit="10" d="
					M794.896,313.412c12.043-21.75-1.702-23.023-8.354-27.314c-0.456-0.295-1.006-0.644-1.649-1.019
					c-9.493-5.726-38.618-20.918-69.125-26.175c-32.558-5.619-42.573-34.448-42.573-34.448
					c-38.699-55.38-66.778-29.206-92.698-42.615c-25.907-13.422-39.222-33.912-39.222-33.912
					c-32.463-43.889-86.154-64.15-87.79-64.753c-4.546-1.689-1.637,45.417-0.872,49.815c2.079,12.122,6.222,24.432,14.32,33.912
					c4.01,4.72,8.233,9.642,13.222,13.356c4.104,3.044,7.521,1.596,5.483,6.691c-1.797,4.505-6.047,7.697-7.589,12.578"/>
				
					<path fill="none" stroke="#F1BF96" stroke-width="7" stroke-linecap="round" stroke-linejoin="round" stroke-miterlimit="10" d="
					M780.213,331.1c4.385-3.326,8.139-7.229,11.089-11.748c1.408-2.132,2.603-4.09,3.594-5.927"/>
				
					<path fill="none" stroke="#F1BF96" stroke-width="7" stroke-linecap="round" stroke-linejoin="round" stroke-miterlimit="10" d="
					M784.772,285.292c0,0-6.062,10.03-2.964,14.469c4.681,6.718,13.49,4.224,13.087,13.65c0,0.014,0,0.014,0,0.014v0.013"/>
			</g>
		</g>
	</g>
</g>
<path fill="none" stroke="#F1BF96" stroke-width="7" stroke-miterlimit="10" d="M1297.956,295.873
	c-7.544-9.749-22.499-22.119-23.933-42.359c-3.251-26.18-0.882-55.416,4.436-81.17c2.281-11.044,8.64-23.325,6.741-34.701
	c-1.473-8.832-4.458-16.442-4.188-25.892c1.242-43.535,34.903-74.893,77.413-81.034"/>
<path fill="none" stroke="#F1BF96" stroke-width="7" stroke-miterlimit="10" d="M1285.093,144.572c0,0,38.812-42.901,67.094-32.166
	c6.893,2.613,9.559,15.467,11.604,21.467c4.791,14.023,9.404,28.103,15.978,41.425c7.791,15.802,18.186,30.471,32.096,41.463
	c17.164,13.563,38.391,20.203,60.045,21.606c6.91,0.451,13.85,0.4,20.76-0.028c7.467-0.468,15.057-1.856,22.43-3.096
	c4.871-0.813,9.183-2.185,13.83,0.422c8.443,4.728,10.832,16.782,10.031,25.624c-0.879,9.691-5.742,19.023-15.4,22.447
	c-2.86,1.011-6.149,0.527-8.885,1.523c-2.258,0.822-2.983,2.492-4.248,4.678c-3.498,6.049-6.238,12.5-9.717,18.568
	c-12.678,22.11-28.82,41.025-50.969,54.064c-11.873,6.99-24.773,12.016-37.717,16.641c-13.66,4.878-27.572,10.188-41.994,12.283
	c-19.463,2.832-36.965-3.559-50.184-18.152c-6.531-7.212-10.983-15.304-13.135-24.82c-2.161-9.568-2.422-19.438-4.16-29.078"/>
<path fill="none" stroke="#F1BF96" stroke-width="7" stroke-miterlimit="10" d="M1319.851,211.984
	c4.047,10.32,5.721,21.971,5.08,32.996c-0.578,9.941-3.324,19.734-8.608,28.221c-8.867,14.219-23.313,18.09-19.681,37.227
	c1.664,8.758,10.088,11.645,18.142,11.893c3.691,0.111,7.106-1.657,10.723-1.896"/>
<path fill="none" stroke="#F1BF96" stroke-width="7" stroke-linecap="round" stroke-miterlimit="10" d="M1284.059,221.921
	c11.453,5.247,26.343,8.874,33.627,21.418C1303.513,253.734,1286.841,234.324,1284.059,221.921"/>
<path fill="none" stroke="#F1BF96" stroke-width="7" stroke-miterlimit="10" d="M1424.483,269.754
	c-5.9,2.434-12.343,0.982-17.9-1.688c-9.051-4.342-16.176-10.488-26.541-11.701c-5.039-0.592-23.193-0.256-21.471,9.041"/>
<path fill="none" stroke="#F1BF96" stroke-width="7" stroke-miterlimit="10" d="M1365.045,259.15
	c4.295,13.341,14.406,21.94,28.703,21.305c10.889-0.485,21.529-5.01,30.891-10.34"/>
<path fill="none" stroke="#F1BF96" stroke-width="7" stroke-miterlimit="10" d="M1377.719,346.915
	c-12.332,2.299-25.237,3.644-38.139,1.998c-12.538-1.603-21.868-5.666-32.495-10.583"/>
<path fill="none" stroke="#F1BF96" stroke-width="7" stroke-miterlimit="10" d="M1391.471,227.266c0,0,14.898,0.726,27.642,18.168"
	/>
<ellipse transform="matrix(0.3576 -0.9339 0.9339 0.3576 -258.0573 278.2329)" fill="#F9EACC" cx="73.205" cy="326.685" rx="13.513" ry="14.022"/>
<ellipse transform="matrix(0.9422 -0.335 0.335 0.9422 -76.4191 117.8891)" fill="#F1BF96" cx="303.536" cy="280.474" rx="15.103" ry="15.672"/>
<ellipse transform="matrix(0.9422 -0.335 0.335 0.9422 -69.9361 56.3835)" fill="#FFFFFF" cx="128.497" cy="230.948" rx="10.423" ry="10.815"/>
<ellipse transform="matrix(0.3576 0.9339 -0.9339 0.3576 1432.8495 -1424.3306)" fill="#F9EACC" cx="1751.732" cy="329.334" rx="13.468" ry="13.975"/>
<ellipse transform="matrix(0.9422 0.3351 -0.3351 0.9422 189.8859 -524.3248)" fill="#F1BF96" cx="1614.406" cy="288.116" rx="15.103" ry="15.673"/>
<ellipse transform="matrix(0.9422 0.3351 -0.3351 0.9422 175.3708 -554.4689)" fill="#FFFFFF" cx="1694.45" cy="230.963" rx="10.424" ry="10.817"/>
</svg>
