<?xml version="1.0" encoding="utf-8"?>
<!-- Generator: Adobe Illustrator 16.0.0, SVG Export Plug-In . SVG Version: 6.00 Build 0)  -->
<!DOCTYPE svg PUBLIC "-//W3C//DTD SVG 1.1//EN" "http://www.w3.org/Graphics/SVG/1.1/DTD/svg11.dtd">
<svg version="1.1" id="圖層_1" xmlns="http://www.w3.org/2000/svg" xmlns:xlink="http://www.w3.org/1999/xlink" x="0px" y="0px"
	 width="2883.421px" height="781.318px" viewBox="0 0 2883.421 781.318" enable-background="new 0 0 2883.421 781.318"
	 xml:space="preserve">
<g opacity="0.8">
	<path fill="#A89477" d="M1709.452,565.158c-5.26,0-9.975-2.44-13.4-7.071c-6.253-8.449-0.458-18.199,3.038-23.744
		c0.63-3.133,3.427-18.471,0.239-29.245c-0.549-1.854,0.509-3.801,2.363-4.349c1.854-0.55,3.801,0.51,4.349,2.363
		c4.069,13.749-0.061,32.538-0.239,33.331c-0.088,0.392-0.242,0.766-0.457,1.105c-3.681,5.819-6.996,11.876-3.666,16.375
		c3.515,4.75,7.996,4.645,11.137,3.718c5.203-1.535,9.654-6.246,9.923-10.501c0.122-1.929,1.785-3.391,3.714-3.272
		c1.929,0.122,3.395,1.785,3.272,3.714c-0.455,7.186-6.873,14.396-14.929,16.773
		C1712.974,564.894,1711.184,565.158,1709.452,565.158z"/>
</g>
<g opacity="0.8">
	<path fill="#A89477" d="M1710.87,593.9c-0.037,0-0.072,0-0.108,0c-22.003-0.052-37.722-16.074-38.38-16.756
		c-1.343-1.391-1.304-3.606,0.087-4.949c1.39-1.341,3.604-1.303,4.946,0.084c0.19,0.195,14.445,14.607,33.425,14.621
		c0.009,0,0.02,0,0.029,0c11.671,0,22.863-5.412,33.268-16.088c1.348-1.384,3.564-1.414,4.949-0.063
		c1.384,1.349,1.413,3.565,0.063,4.949C1737.377,587.776,1724.498,593.9,1710.87,593.9z"/>
</g>
<g opacity="0.8">
	<path fill="#A89477" d="M1795.765,461.415c-0.65,0-1.309-0.181-1.896-0.561c-27.725-17.913-50.733-13.392-50.962-13.344
		c-1.89,0.394-3.745-0.814-4.144-2.701c-0.399-1.887,0.798-3.741,2.684-4.146c1.043-0.225,25.919-5.267,56.22,14.31
		c1.624,1.049,2.089,3.216,1.041,4.839C1798.039,460.85,1796.914,461.415,1795.765,461.415z"/>
</g>
<g opacity="0.8">
	<path fill="#A89477" d="M1611.648,457.354c-1.148,0-2.273-0.564-2.943-1.601c-1.049-1.624-0.583-3.79,1.041-4.839
		c30.3-19.577,55.176-14.536,56.221-14.311c1.89,0.406,3.093,2.267,2.687,4.157c-0.405,1.887-2.264,3.088-4.148,2.689
		c-0.352-0.071-23.312-4.52-50.96,13.345C1612.957,457.172,1612.298,457.354,1611.648,457.354z"/>
</g>
<g opacity="0.8">
	<path fill="#A89477" d="M1765.246,527.665c-9.344,0-18.127-4.667-26.105-13.87c-0.531-0.612-0.833-1.391-0.854-2.201
		c-0.009-0.35-0.026-3.529,2.145-7.556c4.486-8.313,16.903-18.317,50.578-18.77c0.068,0,0.135,0,0.203,0.003
		c0.024,0.001,0.176,0.006,0.432,0.006c2.298,0,10.456-0.347,18.958-4.815c1.355-0.711,3.018-0.459,4.102,0.623
		c1.083,1.083,1.337,2.744,0.626,4.101C1814.422,486.92,1792.758,527.665,1765.246,527.665z M1745.445,510.349
		c6.292,6.847,12.947,10.316,19.8,10.316c16.27,0,31.13-18.72,38.676-30.131c-6.779,1.832-12.059,1.759-12.903,1.735
		c-31.807,0.443-41.486,9.644-44.427,15.093C1745.935,508.581,1745.608,509.62,1745.445,510.349z"/>
</g>
<g opacity="0.8">
	<path fill="#A89477" d="M1654.094,528.089c-0.002,0-0.003,0-0.005,0c-27.944-0.006-48.717-42.277-49.588-44.077
		c-0.667-1.379-0.36-3.031,0.757-4.079s2.786-1.245,4.119-0.491c9.466,5.366,18.825,5.428,19.218,5.428
		c0.053,0,0.159,0.001,0.212,0.003c33.645,1.534,45.733,11.932,49.949,20.384c2.04,4.091,1.923,7.266,1.903,7.615
		c-0.046,0.81-0.373,1.58-0.924,2.175C1671.734,523.702,1663.107,528.089,1654.094,528.089z M1615.732,489.723
		c7.276,11.807,21.823,31.363,38.357,31.366c0.001,0,0.003,0,0.004,0c6.613,0,13.151-3.258,19.451-9.688
		c-0.14-0.726-0.433-1.777-1.052-3.019c-2.764-5.541-12.148-15.052-43.944-16.513
		C1627.341,491.86,1622.204,491.695,1615.732,489.723z"/>
</g>
<g opacity="0.8">
	<path fill="#A89477" d="M1717.088,618.796c-21.344,1.038-42.036-4.381-61.785-14.309c-21.731-10.924-42.718-27.286-62.377-48.631
		c-0.124-0.134-0.237-0.278-0.338-0.43c-1.96-2.94-3.973-5.707-5.918-8.383c-1.987-2.732-4.042-5.558-6.082-8.617
		c-9.844-14.768-17.759-32.416-24.197-53.954c-5.099-17.059-9.769-33.814-10.897-51.244l-0.112-1.728
		c-0.825-12.632-1.759-26.951,0.681-39.792l0.109-0.574c0.524-2.765,1.066-5.623,1.786-8.468c2.178-8.61,8.329-19.553,18.282-32.525
		c7.876-10.265,17.284-17.635,27.962-21.906c21.401-8.561,43.924,2.918,65.133,33.194c3.488,4.644,5.853,6.805,9.06,5.735
		c3.324-1.108,6.496-2.497,9.854-3.968c5.436-2.38,11.057-4.842,17.566-6.144c0.051-0.01,0.103-0.019,0.154-0.027
		c15.247-2.344,27.164-1.686,38.639,2.139c17.474,5.825,30.709,15.875,44.721,26.516l1.538,1.167
		c12.528,9.504,19.531,20.52,27.64,33.275c1.118,1.759,2.255,3.547,3.429,5.365c7.216,11.177,12.832,25.017,15.813,38.97
		c0.146,0.684,0.295,1.418,0.453,2.19c2.118,10.396,4.837,20.491,12.541,20.136c1.927-0.109,3.572,1.393,3.667,3.324
		c0.095,1.931-1.394,3.573-3.324,3.667c-14.35,0.705-17.861-16.492-19.743-25.73c-0.152-0.749-0.297-1.461-0.439-2.125
		c-2.808-13.144-8.082-26.154-14.849-36.636c-1.183-1.832-2.328-3.634-3.455-5.406c-7.747-12.186-14.438-22.709-25.964-31.454
		l-1.541-1.169c-13.538-10.281-26.325-19.992-42.701-25.45c-10.345-3.448-21.23-4.026-35.282-1.873
		c-5.736,1.158-10.75,3.353-16.056,5.677c-3.354,1.469-6.821,2.988-10.448,4.196c-8.592,2.869-14.001-4.346-16.907-8.22
		c-0.023-0.031-0.045-0.062-0.067-0.093c-13.345-19.064-34.036-39.875-56.833-30.758c-9.494,3.798-17.908,10.415-25.008,19.668
		c-9.238,12.04-15.133,22.407-17.049,29.98c-0.667,2.64-1.19,5.393-1.695,8.056l-0.109,0.576
		c-2.274,11.967-1.409,25.217-0.573,38.03l0.113,1.731c1.082,16.698,5.64,33.033,10.619,49.691
		c6.235,20.862,13.862,37.896,23.314,52.076c1.96,2.94,3.973,5.707,5.918,8.383c1.938,2.664,3.939,5.416,5.928,8.387
		c29.391,31.849,76.403,68.144,133.792,60.7c7.588-0.948,13.352-3.938,19.541-7.469c13.268-9.733,25.747-19.242,41.673-31.754
		c7.316-6.411,12.902-12.801,19.367-20.198l1.147-1.313c25.756-34.382,38.733-71.392,50.25-116.345
		c0.101-0.988,0.526-2.523,2.058-5.333c0.924-1.698,3.051-2.324,4.748-1.399c1.698,0.925,2.324,3.05,1.399,4.748
		c-0.826,1.517-1.16,2.403-1.236,2.71c-0.012,0.233-0.047,0.465-0.105,0.691c-11.755,45.953-25.027,83.815-51.591,119.233
		c-0.053,0.07-0.108,0.139-0.166,0.205l-1.232,1.41c-6.651,7.608-12.394,14.18-20.097,20.919c-0.046,0.041-0.094,0.08-0.143,0.118
		c-19.08,14.992-37.671,32.482-61.91,37.994C1729.482,617.657,1723.257,618.497,1717.088,618.796z"/>
</g>
<g>
	<path fill="none" stroke="#F9EACC" stroke-width="7" stroke-miterlimit="10" d="M1842.333,494.536"/>
</g>
<g>
	<path fill="none" stroke="#F9EACC" stroke-width="7" stroke-linecap="round" stroke-linejoin="round" stroke-miterlimit="10" d="
		M1867.007,449.56"/>
</g>
<g opacity="0.8">
	<path fill="#A89477" d="M1554.634,486.568c-10.74-1.895-20.82-8.756-26.965-18.355c-5.683-8.877-7.449-18.95-4.972-28.362
		l0.064-0.216c1.356-4.068,5.145-7.857,9.213-9.213l0.42-0.112c5.669-1.135,14.182,0.466,17.816,4.656l-5.288,4.587
		c-1.322-1.524-6.682-3.175-10.927-2.422c-1.864,0.711-3.898,2.765-4.562,4.623c-1.926,7.464-0.461,15.515,4.129,22.686
		c5.108,7.979,13.439,13.675,22.285,15.235L1554.634,486.568z"/>
</g>
<g opacity="0.8">
	<path fill="#A89477" d="M1663.318,748.381c-42.579,0-86.223-5.912-120.337-17.675l-0.424-0.178
		c-2.041-1.021-4.732-2.097-7.334-3.138c-2.697-1.079-5.484-2.194-7.769-3.329c-41.084-17.331-72.493-49.51-90.832-93.064
		c-14.449-37.149-18.172-78.671-11.103-123.501c2.589-20.703,5.354-38.886,8.454-55.586l6.883,1.277
		c-3.077,16.578-5.824,34.645-8.398,55.233l-0.016,0.112c-6.886,43.612-3.297,83.932,10.667,119.838
		c17.594,41.782,47.747,72.687,87.164,89.283l0.207,0.095c2.043,1.022,4.737,2.1,7.342,3.142c2.651,1.061,5.39,2.156,7.652,3.271
		c65.502,22.511,166.612,23.109,225.521,1.313l2.429,6.565C1743.936,742.951,1704.116,748.38,1663.318,748.381z"/>
</g>
<g>
	<path fill="none" stroke="#F9EACC" stroke-width="7" stroke-miterlimit="10" d="M1439.402,452.55"/>
</g>
<g>
	<path fill="none" stroke="#F9EACC" stroke-width="7" stroke-miterlimit="10" d="M1449.703,406.649"/>
</g>
<g opacity="0.8">
	<path fill="#A89477" d="M1766.163,732.311c-20.563,0-41.384-2.118-61.995-6.313c-17.798-3.622-40.988-8.954-62.519-18.109
		c-4.39-1.867-8.797-3.699-13.206-5.533c-14.805-6.157-30.113-12.523-44.609-20.17c-4.928-2.6-9.419-5.16-13.732-7.827
		c-2.364-1.461-4.699-2.974-6.941-4.495c-0.467-0.317-1.025-0.646-1.609-0.992c-1.872-1.111-3.993-2.371-5.348-4.143
		c-2.672-3.491-2.406-9.225-1.904-14.798l0.027-0.295c0.401-4.47,1.438-8.813,3.082-12.908c3.317-8.265,8.986-15.095,15.962-19.234
		c7.036-4.174,15.153-5.07,23.003-5.936c1.748-0.193,3.478-0.383,5.165-0.611c18.036-2.432,41.775-5.06,65.477-3.786l-0.376,6.99
		c-23.113-1.244-46.433,1.342-64.165,3.733c-1.743,0.235-3.528,0.432-5.333,0.631c-7.11,0.784-14.463,1.595-20.199,4.998
		c-5.66,3.358-10.29,8.977-13.038,15.821c-1.389,3.461-2.266,7.136-2.606,10.925l-0.027,0.298c-0.185,2.052-0.747,8.298,0.492,9.917
		c0.534,0.698,2.169,1.669,3.363,2.378c0.7,0.415,1.36,0.808,1.967,1.22c2.159,1.465,4.41,2.923,6.69,4.332
		c4.177,2.583,8.533,5.065,13.318,7.59c14.213,7.498,29.372,13.802,44.031,19.898c4.425,1.84,8.85,3.681,13.257,5.555
		c20.955,8.91,43.701,14.135,61.176,17.691c22.328,4.543,44.9,6.596,67.101,6.1c22.591-0.506,41.274-2.239,59.022-9.052
		c17.719-6.802,33.696-17.252,46.205-30.22c23.044-23.891,39.475-59.966,48.836-107.224c4.208-21.242,6.003-42.962,7.355-61.653
		c1.629-22.529,2.185-42.505,1.697-61.072c-1.184-45.037-8.672-83.347-22.894-117.118c-15.577-36.99-36.516-65.912-62.237-85.963
		c-31.301-24.4-67.095-36.869-100.78-35.13c-11.19,0.581-20.909,3.092-29.744,5.72c-4.775,1.42-10.445,2.746-16.284,1.801
		c-4.798-0.775-9.09-2.716-13.241-4.593l-1.133-0.511c-14.396-6.469-31.979-9.036-52.265-7.633
		c-34.276,2.371-67.149,16.604-97.705,42.307c-25.289,21.272-46.334,48.458-62.551,80.805c-10.695,21.331-19.429,44.835-26.7,71.857
		l-6.76-1.819c7.396-27.482,16.293-51.418,27.202-73.176c16.646-33.202,38.281-61.136,64.303-83.024
		c31.714-26.677,65.94-41.458,101.727-43.934c21.45-1.484,40.16,1.286,55.618,8.232l1.148,0.518
		c3.905,1.766,7.594,3.434,11.473,4.061c4.438,0.716,8.952-0.346,13.173-1.601c9.25-2.751,19.454-5.382,31.377-6
		c35.361-1.833,72.817,11.164,105.446,36.6c26.676,20.795,48.338,50.661,64.384,88.767c14.565,34.589,22.233,73.727,23.44,119.651
		c0.494,18.798-0.067,39-1.713,61.76c-1.367,18.9-3.185,40.875-7.47,62.509c-9.626,48.597-26.672,85.85-50.665,110.723
		c-13.214,13.7-30.066,24.729-48.734,31.896c-18.69,7.175-38.053,8.993-61.375,9.515
		C1770.606,732.286,1768.385,732.311,1766.163,732.311z"/>
</g>
<g opacity="0.8">
	<path fill="#A89477" d="M1529.86,674.208c-13.191,0.001-22.724-4.476-27.458-7.331c-7.248-4.37-11.931-10.033-11.931-14.427
		c0-4.989,5.432-6.913,8.857-7.721c-6.784-4.377-12.565-10.4-14.782-15.014c-2.124-4.42-1.077-7.213,0.175-8.778
		c1.577-1.97,4.712-3.57,14.677-3.019c-5.849-5.135-10.09-11.437-9.846-16.1c0.176-3.366,2.538-5.734,6.165-6.18
		c2.907-0.36,7.034,0.447,12.51,2.448c-3.603-4.539-6.213-9.262-6.106-13.147c0.083-3,1.644-5.416,4.395-6.804
		c6.771-3.416,16.909,1.807,23.639,6.273c2.387-3.554,7.337-5.778,14.763-6.626c26.603-3.04,42.037,36.965,42.681,38.669
		l-6.546,2.478c-0.139-0.366-14.149-36.605-35.341-34.192c-5.318,0.606-8.869,1.995-9.864,3.8c5.881,4.65,8.666,8.335,8.286,10.979
		c-0.211,1.471-1.222,2.693-2.637,3.19c-3.375,1.187-6.943-1.883-8.321-3.257c-1.91-1.905-3.671-4.549-4.335-7.429
		c-3.886-2.832-8.57-5.656-12.891-7.11c-2.792-0.94-5.081-1.13-6.281-0.526c-0.537,0.271-0.541,0.42-0.55,0.748
		c-0.148,5.379,13.035,18.477,19.741,22.655c2.607,1.419,2.811,1.662,3.249,2.616l1.068,2.324l-1.89,1.724
		c-1.46,1.333-2.923,0.992-4.216,0.364l-0.007,0.011c-0.044-0.026-0.088-0.053-0.133-0.081c-0.339-0.171-0.665-0.359-0.976-0.539
		c-0.249-0.143-0.517-0.306-0.801-0.487c-6.98-3.901-23.146-11.796-28.583-11.135c-0.011,0.001-0.022,0.003-0.033,0.004
		c0.345,3.677,9.871,14.798,19.945,17.124c1.11,0.256,1.902,0.439,2.415,0.562c3.626,0.865,3.557,3.282,3.358,4.281
		c-0.664,3.35-3.993,2.796-5.593,2.529c-19.501-3.246-24.905-2.291-26.301-1.762c0.147,0.805,0.942,2.762,3.587,5.753
		c4.75,5.373,12.746,10.908,19.178,12.174c0.72-0.015,1.33-0.019,1.796-0.019c3.861,0,7.196,0,7.196,3.672
		c0,0.567-0.194,3.405-4.034,3.577c-0.507,0.022-1.29,0.038-2.391,0.038c-1.056,0-2.134-0.097-3.227-0.278
		c-5.519,0.194-12.969,0.995-14.917,2.548c0.483,1.392,3.17,5.185,9.663,8.786c7.013,3.889,26.163,11.438,52.466-2.445l3.268,6.19
		C1550.36,671.965,1539.194,674.208,1529.86,674.208z"/>
</g>
<g opacity="0.8">
	<path fill="#A89477" d="M2857.448,592.093c-6.879,7.536-57.952,2.942-64.009,2.942c-51.05,0-102.101,0-153.152,0
		c-135.002,0-270.004,0-405.008,0c-94.314,0-188.629,0-282.945,0c-5.331,0-10.662,0-16.01,0v-7c69.386,0,138.771,0,208.156,0
		c136.805,0,273.609,0,410.415,0c52.194,0,104.379-0.646,156.57-0.892c27.145-0.128,54.914,1.126,81.962,0.329
		c9.397-0.278,61.204-5.748,64.457,1.405C2858.457,590.137,2858.263,591.2,2857.448,592.093z"/>
</g>
<g opacity="0.8">
	<path fill="#A89477" d="M1158.588,569.645c-9.97,0-20.463-2.068-31.096-6.256c-33.423-13.163-58.834-43.684-61.795-74.22
		c-2.455-25.314,4.049-42.714,16.911-65.965c1.485-2.685,3.156-6.022,4.925-9.555c2.997-5.984,6.433-12.845,10.354-19.325
		c-2.519-2.459-4.118-5.621-4.767-9.438c-4.041-23.751,31.76-69.389,48.966-91.321c3.486-4.445,6.241-7.956,7.076-9.306
		c6.96-11.256,9.29-25.459,11.757-40.497c2.17-13.231,4.414-26.913,10.098-38.899c0.876-1.847,1.972-4.283,3.241-7.103
		c11.94-26.536,36.775-81.749,65.201-74.592c12.573,3.168,14.728,19.747,16.302,31.852c0.446,3.437,0.868,6.682,1.445,9.042
		c1.626,6.647,3.611,13.404,5.713,20.557c7.815,26.594,15.896,54.094,7.029,80.473l-0.036-0.012
		c-0.674,2.57-2.85,8.748-5.815,13.421c10.833,3.983,37.514,14.392,51.145,24.994c15.884,12.355,30.608,43.53,33.833,55.767
		c11.748-0.164,53.472,4.06,120.568,62.368c0.624,0.561,5.688,5.304,5.314,11.401c-0.147,2.408-1.239,5.92-5.604,8.975
		c-6.569,4.599-10.108,5.083-13.531,5.552c-1.782,0.244-3.465,0.475-5.832,1.362c-0.761,0.286-2.692,1.327-4.928,2.533
		c-16.1,8.683-64.776,34.94-106.526,11.363c-3.645,0.846-8.922,2.416-11.039,3.929c-14.226,14.744-29.493,27.43-45.378,37.707
		c-10.674,6.906-21.261,11.21-32.469,15.767c-3.462,1.408-7.043,2.863-10.611,4.397c-12.816,5.508-19.522,11.844-28.803,20.613
		c-2.989,2.824-6.08,5.745-9.702,8.946C1188.937,564.42,1174.427,569.644,1158.588,569.645z M1105.057,396.006
		c-4.254,6.775-8.033,14.322-11.266,20.777c-1.802,3.599-3.504,6.998-5.059,9.808c-12.179,22.019-18.347,38.405-16.068,61.902
		c2.717,28.024,26.318,56.145,57.393,68.383c24.99,9.841,48.988,6.944,65.839-7.949c3.535-3.124,6.583-6.003,9.53-8.789
		c9.436-8.916,16.889-15.958,30.847-21.957c3.632-1.561,7.245-3.03,10.738-4.45c10.894-4.429,21.183-8.612,31.304-15.159
		c15.507-10.032,30.423-22.443,44.333-36.888c0.114-0.119,0.237-0.229,0.367-0.331c4.24-3.311,14.257-5.445,15.386-5.678
		c0.85-0.176,1.737-0.028,2.484,0.413c38.611,22.771,83.828-1.618,100.851-10.799c2.762-1.489,4.586-2.473,5.793-2.926
		c3.1-1.163,5.353-1.471,7.34-1.743c2.953-0.405,5.285-0.724,10.468-4.352c2.503-1.752,2.598-3.182,2.629-3.651
		c0.154-2.328-2.155-5.004-2.977-5.759c-75.441-65.559-117.841-60.511-118.265-60.457c-0.974,0.137-1.975-0.144-2.734-0.775
		c-0.758-0.631-1.224-1.552-1.266-2.537c-0.293-6.801-16.071-41.85-31.784-54.072c-16.071-12.5-53.44-25.451-53.815-25.581
		c-1.198-0.413-2.08-1.44-2.305-2.687c-0.225-1.247,0.241-2.519,1.219-3.324c2.783-2.292,5.916-10.085,7.236-14.459
		c0.011-0.036,0.022-0.072,0.035-0.108c8.164-24.29,0.399-50.714-7.11-76.269c-2.125-7.232-4.133-14.063-5.797-20.867
		c-0.669-2.736-1.115-6.168-1.587-9.802c-1.388-10.676-3.114-23.962-11.07-25.966c-22.737-5.727-47.704,49.779-57.106,70.676
		c-1.285,2.854-2.394,5.319-3.299,7.23c-5.261,11.094-7.424,24.281-9.515,37.034c-2.469,15.049-5.021,30.61-12.711,43.045
		c-1.04,1.683-3.619,4.97-7.522,9.945c-15.289,19.49-51.093,65.131-47.572,85.827c0.3,1.763,0.899,3.256,1.814,4.503
		c5.085-7.321,10.891-13.511,17.5-16.402c1.771-0.774,3.834,0.033,4.609,1.804c0.775,1.771-0.033,3.834-1.804,4.609
		c-5.976,2.614-11.449,9.036-16.32,16.582c-0.084,0.221-0.191,0.436-0.324,0.643
		C1105.366,395.654,1105.219,395.839,1105.057,396.006z"/>
</g>
<g opacity="0.8">
	<path fill="#A89477" d="M1130.196,496.313c2.145-1.291,4.565-2.109,7.194-2.258c7.534-0.424,17.383,6.757,23.883,10.428
		c8.522,4.818,30.348,25.227,26.34,36.488c-2.279,6.399-17.563,8.852-23.572,10.268c-23.742,5.6-45.289-14.133-43.681-38.268
		C1120.792,506.484,1124.519,499.735,1130.196,496.313z"/>
</g>
<g opacity="0.8">
	<path fill="#A89477" d="M1277.263,475.015c-13.186,0-23.307-8.779-30.082-26.094l-0.835-2.134l1.622-1.619
		c0.617-0.616,15.305-15.085,31.978-15.085c13.144,0,23.438,8.593,30.599,25.54l0.917,2.172l-1.668,1.667
		C1309.159,460.096,1294.034,475.015,1277.263,475.015z M1254.606,448.58c5.554,12.9,13.168,19.435,22.657,19.435
		c10.981,0,21.735-8.337,25.84-11.911c-5.86-12.625-13.642-19.021-23.158-19.021C1269.045,437.083,1258.591,445.126,1254.606,448.58
		z"/>
</g>
<g opacity="0.8">
	<path fill="#A89477" d="M1199.364,411.11l-2.092-0.695c-18.64-6.194-40.447-19.063-45.753-36.607
		c-2.928-9.681-0.554-19.536,7.057-29.29c3.862-4.95,8.689-7.459,14.348-7.459c6.483,0,13.072,3.249,19.445,6.392
		c2.543,1.254,4.945,2.438,7.327,3.424c10.848,4.49,17.277,11.218,19.106,19.997c4.082,19.584-17.008,41.72-17.908,42.652
		L1199.364,411.11z M1172.924,344.059c-3.487,0-6.293,1.514-8.83,4.765c-6.129,7.857-8.106,15.581-5.875,22.958
		c4.338,14.344,23.295,25.585,39.109,31.249c4.471-5.143,17.404-21.422,14.619-34.741c-1.332-6.369-6.354-11.398-14.928-14.947
		c-2.594-1.073-5.213-2.365-7.746-3.614C1183.62,346.941,1177.774,344.059,1172.924,344.059z"/>
</g>
<g>
	<path fill="#A89477" d="M1133.532,562.387c-4.296,0-6.708-2.919-7.239-6.2c-24.726,2.983-41.89-18.579-49.475-39.711l-7.484,2.686
		c5.502,15.33,14.433,28.118,25.146,36.009c9.171,6.754,19.403,9.841,30.097,9.166c4.117-0.26,8.303-1.078,12.522-2.458
		l-0.091-0.279C1136.031,562.093,1134.877,562.387,1133.532,562.387z"/>
</g>
<g opacity="0.8">
	<path fill="#A89477" d="M1273.068,615.035c-0.847,0-1.69-0.08-2.531-0.251c-7.028-1.429-11.916-8.614-14.526-21.355l4.847-5.319
		c1.371,6.69,6.066,18.793,11.071,19.814c6.759,1.376,17.369-9.808,22.462-17.185l2.836-4.107l2.896,4.064
		c4.007,5.627,9.957,12.123,15.571,11.107c5.211-0.942,10.258-8.071,11.672-12.837c1.267-4.269-1.394-11.558,3.43-14.245
		c4.958-2.757,7.602,1.589,8.911,5.24c1.92,5.355,3.494,24.111,12.44,10.82c0.004-0.007,0.341-0.506,0.341-0.506l0.498-0.371
		c0.031-0.022,3.617-2.698,6.464-6.676l5.692,4.074c-2.872,4.013-6.272,6.877-7.524,7.868c-1.447,1.994-6.581,8.254-13.195,7.047
		c-4.253-0.773-7.691-4.344-10.4-10.844c-3.288,7.216-8.852,15.823-17.073,17.315c-6.46,1.174-13.057-2.246-19.644-10.172
		C1292.534,604.497,1282.747,615.033,1273.068,615.035z"/>
</g>
<g opacity="0.8">
	<path fill="#A89477" d="M1260.954,592.735l-7-0.019c0.003-1.077,0.282-26.549,18.86-41.175c12.645-9.957,30.43-12.29,52.863-6.935
		c23.796,5.68,37.234,13.443,41.082,23.733c2.237,5.982,0.992,12.54-3.602,18.962l-5.693-4.072c3.22-4.502,4.142-8.687,2.739-12.438
		c-2.013-5.384-9.919-13.115-36.15-19.376c-20.248-4.833-36.029-2.941-46.908,5.626
		C1261.198,569.595,1260.954,592.505,1260.954,592.735z"/>
</g>
<g opacity="0.8">
	<path fill="#A89477" d="M1366.705,611.542c-3.065,0-7.197-2.053-16.593-16.948c-0.861-1.365-0.767-3.191,0.356-4.351
		c1.12-1.156,2.795-1.448,4.185-0.641c0.002-0.009,0.339,0.126,0.791,0.126c0.389,0,0.99-0.084,1.711-0.813
		c1.153-1.164,3.82-5.332,3.689-18.859c-0.017-1.773,1.295-3.279,3.054-3.505c1.759-0.226,3.409,0.898,3.841,2.619
		c0.083,0.331,2.053,8.205,3.539,16.883c2.839,16.579,1.421,21.124-0.34,23.382C1369.877,610.793,1368.375,611.542,1366.705,611.542
		z M1359.32,595.858c3.281,4.753,5.321,6.923,6.468,7.909c0.365-2.556-0.013-7.613-0.966-13.88
		c-0.754,1.587-1.652,2.902-2.694,3.954C1361.275,594.702,1360.332,595.377,1359.32,595.858z"/>
</g>
<g opacity="0.8">
	<path fill="#A89477" d="M1324.442,624.972c-3.36,0-8.283-2.19-19.313-18.418c-0.883-1.299-0.792-3.028,0.223-4.228
		c1.015-1.199,2.706-1.576,4.133-0.919c0,0,0,0,0,0c0.001,0,1.436,0.608,3.362,0.608c4.141,0,7.412-2.77,9.722-8.233
		c0.594-1.405,2.034-2.268,3.549-2.122c1.519,0.142,2.771,1.25,3.095,2.741c1.452,6.677,4.351,22.798-0.069,28.285
		c-1.188,1.474-2.856,2.286-4.698,2.287C1324.445,624.972,1324.443,624.972,1324.442,624.972z M1315.342,608.811
		c5.025,6.634,7.594,8.467,8.625,8.973c0.75-1.941,0.659-7.238-0.124-13.353C1320.959,607.248,1317.868,608.398,1315.342,608.811z"
		/>
</g>
<g opacity="0.8">
	<path fill="#A89477" d="M1279.783,635.518c-4.379,0-9.361-4.422-19.437-25.994c-0.684-1.464-0.276-3.207,0.987-4.216
		c1.263-1.009,3.053-1.022,4.33-0.03c0.038,0.028,4.588,3.478,9.074,3.478h0c2.287,0,4.054-0.907,5.563-2.856
		c0.875-1.13,2.35-1.615,3.726-1.223c1.375,0.392,2.374,1.58,2.522,3.002c0.65,6.21,1.699,21.167-2.573,25.912
		c-1.118,1.242-2.606,1.926-4.189,1.927C1279.786,635.518,1279.784,635.518,1279.783,635.518z M1271.003,615.326
		c4.425,8.451,7.004,11.521,8.232,12.627c0.742-2.267,1.041-7.424,0.806-13.226c-1.638,0.68-3.416,1.028-5.303,1.028
		c0,0,0,0-0.001,0C1273.457,615.756,1272.202,615.593,1271.003,615.326z"/>
</g>
<g opacity="0.8">
	<path fill="#A89477" d="M1252.069,592.96c-0.864,0-1.73-0.318-2.407-0.959c-13.263-12.564-14.082-16.75-14.387-23.067l-0.024-0.484
		c-0.098-1.931,1.387-3.575,3.318-3.673c1.922-0.103,3.575,1.387,3.673,3.318l0.024,0.501c0.207,4.264,0.343,7.082,12.21,18.323
		c1.403,1.33,1.463,3.545,0.134,4.948C1253.922,592.593,1252.996,592.96,1252.069,592.96z"/>
</g>
<g>
	<rect x="1363.715" y="587.468" fill="#A89477" width="57.675" height="7"/>
</g>
<g opacity="0.8">
	<path fill="#A89477" d="M1254.477,596.17c-48.309,0-96.617,0-144.927,0c-112.218,0-224.438,0-336.657,0
		c-127.232,0-254.464,0-381.697,0c-93.349,0-186.699,0-280.051,0c-6.72,0-65.865,0.782-50.7-7.024
		c1.647-0.848,8.137,0.157,10.235,0.024c10.677-0.675,21.896,0,32.613,0c35.457,0,70.914,0,106.371,0c107.452,0,214.904,0,322.356,0
		c121.274,0,242.549,0,363.824,0c93.222,0,186.445,0,279.667,0c4.021,0,78.966,0,78.966,0
		C1254.477,589.177,1254.477,596.17,1254.477,596.17z"/>
</g>
<g opacity="0.8">
	<path fill="#A89477" d="M1333.149,554.055l-2.973-6.338c1.062-0.498,1.626-1.206,1.887-2.368
		c1.911-8.52-12.778-30.313-22.485-42.048l5.393-4.462c2.794,3.376,27.202,33.406,23.923,48.041
		C1338.16,550.155,1336.174,552.636,1333.149,554.055z"/>
</g>
<g opacity="0.8">
	<path fill="#A89477" d="M1070.204,494.055c-8.672,6.906-44.897,38.283-61.103,92.196l6.704,2.015
		c15.02-49.969,48.828-80.522,58.028-88.116C1071.584,498.902,1070.373,496.524,1070.204,494.055z"/>
</g>
<g opacity="0.8">
	<path fill="#A89477" d="M1210.382,546.416c-0.005-0.005-5.06-4.837-5.06-4.837l2.53,2.418c0,0-2.53-2.414-2.533-2.416
		c0.335,0.319,10.989-14.805,11.51-15.628c3.889-6.15,7.361-12.563,10.474-19.138c3.727-7.869,5.783-19.32,10.834-25.926
		c12.31,4.673-8.968,38.174-12.612,44.35C1224.861,526.365,1210.971,546.978,1210.382,546.416z"/>
</g>
<g opacity="0.8">
	<path fill="#A89477" d="M1317.874,475.093c0,0,11.256,10.084,9.084,31.809c0,0,10.09,13.029-66.1,7.602"/>
</g>
<g>
	<path fill="#F1BF96" d="M1704.572,563.668c-5.26,0-9.975-2.44-13.4-7.071c-6.253-8.449-0.458-18.199,3.038-23.744
		c0.63-3.133,3.427-18.471,0.239-29.245c-0.549-1.854,0.509-3.801,2.363-4.349c1.853-0.55,3.801,0.509,4.349,2.363
		c4.069,13.749-0.061,32.538-0.239,33.331c-0.088,0.392-0.242,0.766-0.457,1.105c-3.681,5.819-6.996,11.876-3.666,16.375
		c3.515,4.751,7.997,4.644,11.137,3.718c5.203-1.535,9.654-6.246,9.923-10.501c0.122-1.929,1.774-3.384,3.714-3.272
		c1.929,0.122,3.394,1.785,3.272,3.714c-0.455,7.186-6.873,14.396-14.929,16.773
		C1708.094,563.403,1706.303,563.668,1704.572,563.668z"/>
</g>
<g>
	<path fill="#F1BF96" d="M1705.138,593.828c-0.037,0-0.072,0-0.108,0c-22.003-0.052-37.722-16.074-38.38-16.756
		c-1.343-1.391-1.304-3.606,0.087-4.949c1.39-1.341,3.603-1.304,4.946,0.084c0.188,0.193,14.443,14.607,33.425,14.621
		c0.009,0,0.02,0,0.029,0c11.671,0,22.863-5.412,33.268-16.088c1.348-1.383,3.564-1.414,4.949-0.063
		c1.384,1.349,1.413,3.565,0.063,4.949C1731.646,587.704,1718.767,593.828,1705.138,593.828z"/>
</g>
<g opacity="0.8">
	<path fill="#F1BF96" d="M1792.587,458.506c-0.65,0-1.309-0.181-1.896-0.561c-27.725-17.913-50.733-13.391-50.962-13.344
		c-1.889,0.394-3.745-0.814-4.144-2.701c-0.399-1.887,0.798-3.741,2.684-4.146c1.043-0.225,25.919-5.267,56.22,14.31
		c1.624,1.049,2.089,3.216,1.041,4.839C1794.86,457.941,1793.735,458.506,1792.587,458.506z"/>
</g>
<g>
	<path fill="#F1BF96" d="M1608.47,454.445c-1.148,0-2.273-0.564-2.943-1.601c-1.049-1.624-0.583-3.79,1.041-4.839
		c30.3-19.577,55.176-14.536,56.221-14.311c1.89,0.406,3.093,2.267,2.687,4.157c-0.405,1.887-2.259,3.089-4.148,2.689
		c-0.332-0.068-23.3-4.527-50.96,13.345C1609.779,454.264,1609.12,454.445,1608.47,454.445z"/>
</g>
<g>
	<path fill="#F1BF96" d="M1758.096,526.742c-9.344,0-18.127-4.667-26.105-13.87c-0.531-0.612-0.833-1.391-0.854-2.201
		c-0.009-0.35-0.026-3.529,2.145-7.556c4.486-8.313,16.903-18.317,50.578-18.77c0.068-0.002,0.135,0,0.203,0.003
		c0.024,0.001,0.176,0.006,0.432,0.006c2.298,0,10.456-0.347,18.958-4.815c1.355-0.711,3.018-0.46,4.102,0.623
		c1.083,1.083,1.337,2.744,0.626,4.101C1807.272,485.998,1785.608,526.742,1758.096,526.742z M1738.295,509.426
		c6.292,6.847,12.947,10.316,19.8,10.316c16.298,0,31.149-18.723,38.686-30.133c-6.783,1.834-12.066,1.763-12.913,1.738
		c-31.807,0.443-41.486,9.644-44.427,15.093C1738.785,507.658,1738.458,508.697,1738.295,509.426z"/>
</g>
<g>
	<path fill="#F1BF96" d="M1646.944,527.167c-0.002,0-0.003,0-0.005,0c-27.944-0.006-48.717-42.277-49.588-44.077
		c-0.667-1.379-0.36-3.031,0.757-4.079c1.117-1.046,2.787-1.247,4.119-0.491c9.466,5.366,18.825,5.428,19.218,5.428
		c0.053,0,0.159,0.001,0.212,0.003c33.645,1.534,45.733,11.932,49.949,20.384c2.04,4.091,1.923,7.266,1.903,7.615
		c-0.046,0.81-0.373,1.58-0.924,2.175C1664.584,522.779,1655.957,527.167,1646.944,527.167z M1608.583,488.8
		c7.276,11.807,21.823,31.363,38.357,31.366c0.001,0,0.003,0,0.004,0c6.613,0,13.151-3.258,19.451-9.688
		c-0.14-0.726-0.433-1.777-1.052-3.019c-2.764-5.541-12.148-15.052-43.944-16.513C1620.191,490.937,1615.054,490.772,1608.583,488.8
		z"/>
</g>
<g>
	<path fill="#F1BF96" d="M1703.663,621.644c-8.913,0-18.361-1.428-28.844-4.808c-29.375-9.471-57.71-28.866-84.219-57.647
		c-0.124-0.134-0.237-0.278-0.338-0.43c-1.96-2.94-3.973-5.707-5.918-8.383c-1.987-2.732-4.042-5.558-6.082-8.617
		c-9.844-14.768-17.759-32.416-24.197-53.954c-5.099-17.059-9.769-33.814-10.897-51.244l-0.112-1.728
		c-0.825-12.632-1.759-26.951,0.681-39.792l0.109-0.574c0.524-2.765,1.066-5.623,1.786-8.468c2.178-8.61,8.329-19.553,18.282-32.525
		c7.876-10.265,17.284-17.635,27.962-21.906c21.401-8.56,43.925,2.918,65.134,33.195c3.487,4.643,5.852,6.803,9.059,5.734
		c3.324-1.108,6.496-2.497,9.854-3.968c5.436-2.38,11.057-4.842,17.566-6.144c0.051-0.01,0.103-0.019,0.154-0.027
		c15.246-2.345,27.164-1.686,38.639,2.139c22.612,7.538,38.581,18.022,58.522,33.585c11.486,8.964,18.815,19.076,26.286,31.502
		c3.325,5.53,5.35,14.361,7.493,23.711c5.072,22.124,9.668,37.669,22.448,35.773c6.1-16.793,10.741-33.453,14.673-48.801
		c0.101-0.988,0.526-2.523,2.058-5.333c0.924-1.698,3.051-2.324,4.748-1.399c1.698,0.925,2.324,3.05,1.399,4.748
		c-0.826,1.517-1.16,2.403-1.236,2.71c-0.012,0.233-0.047,0.465-0.105,0.691c-7.577,29.618-17.766,64.12-35.89,95.451
		c-15.175,26.232-33.922,55.277-64.463,67.92c-2.279,0.943-4.513,1.878-6.707,2.797
		C1741.162,614.368,1723.781,621.644,1703.663,621.644z M1595.932,554.646c25.627,27.772,52.89,46.454,81.035,55.528
		c31.682,10.215,52.719,1.41,81.834-10.778c2.203-0.922,4.444-1.86,6.732-2.808c28.518-11.806,46.482-39.72,61.082-64.957
		c7.003-12.106,12.803-24.734,17.716-37.382c-17.166-0.344-22.347-22.956-26.573-41.389c-2.016-8.791-3.919-17.094-6.669-21.668
		c-7.069-11.758-13.957-21.29-24.593-29.591c-19.805-15.456-34.663-25.207-56.429-32.463c-10.346-3.449-21.23-4.026-35.283-1.873
		c-5.736,1.158-10.749,3.353-16.055,5.677c-3.354,1.469-6.821,2.988-10.448,4.196c-8.593,2.864-14.001-4.346-16.907-8.22
		c-0.023-0.031-0.045-0.062-0.067-0.093c-13.345-19.064-34.037-39.872-56.833-30.758c-9.494,3.798-17.908,10.415-25.008,19.668
		c-9.238,12.04-15.133,22.407-17.049,29.98c-0.667,2.64-1.19,5.393-1.695,8.056l-0.109,0.576
		c-2.274,11.967-1.409,25.217-0.573,38.03l0.113,1.731c1.082,16.698,5.64,33.033,10.619,49.691
		c6.235,20.862,13.862,37.896,23.314,52.076c1.96,2.94,3.973,5.707,5.918,8.383C1591.941,548.923,1593.943,551.676,1595.932,554.646
		z"/>
</g>
<g>
	<path fill="none" stroke="#F1BF96" stroke-width="7" stroke-miterlimit="10" d="M1842.333,494.536"/>
</g>
<g>
	<path fill="#F1BF96" d="M1548.051,485.645c-10.74-1.895-20.82-8.756-26.965-18.355c-5.683-8.877-7.449-18.95-4.972-28.362
		l0.064-0.216c1.356-4.068,5.145-7.857,9.213-9.213l0.42-0.112c5.668-1.134,14.181,0.466,17.816,4.656l-5.288,4.587
		c-1.322-1.523-6.681-3.175-10.927-2.422c-1.864,0.711-3.898,2.765-4.562,4.623c-1.926,7.464-0.461,15.515,4.129,22.686
		c5.108,7.979,13.439,13.675,22.285,15.235L1548.051,485.645z"/>
</g>
<g>
	<path fill="#F1BF96" d="M1655.885,747.458c-42.579,0-86.223-5.912-120.337-17.675l-0.424-0.178
		c-2.041-1.021-4.732-2.097-7.334-3.138c-2.697-1.079-5.484-2.194-7.769-3.329c-41.084-17.331-72.493-49.51-90.832-93.064
		c-14.449-37.149-18.172-78.671-11.103-123.501c2.589-20.703,5.354-38.886,8.454-55.586l6.883,1.277
		c-3.077,16.578-5.824,34.645-8.398,55.233l-0.016,0.112c-6.886,43.612-3.297,83.932,10.667,119.838
		c17.594,41.782,47.747,72.687,87.164,89.283l0.207,0.095c2.043,1.022,4.737,2.1,7.342,3.142c2.651,1.061,5.39,2.156,7.652,3.271
		c65.502,22.513,166.612,23.11,225.521,1.313l2.429,6.565C1736.502,742.028,1696.683,747.457,1655.885,747.458z"/>
</g>
<g>
	<path fill="none" stroke="#F1BF96" stroke-width="7" stroke-miterlimit="10" d="M1429.982,451.627"/>
</g>
<g>
	<path fill="none" stroke="#F1BF96" stroke-width="7" stroke-miterlimit="10" d="M1440.283,405.727"/>
</g>
<g>
	<path fill="#F1BF96" d="M1759.581,731.388c-20.563,0-41.384-2.118-61.995-6.313c-17.798-3.622-40.988-8.954-62.519-18.109
		c-4.39-1.867-8.797-3.699-13.206-5.533c-14.805-6.157-30.113-12.523-44.609-20.17c-4.928-2.6-9.419-5.16-13.732-7.827
		c-2.364-1.461-4.699-2.974-6.941-4.495c-0.467-0.317-1.024-0.646-1.609-0.992c-1.872-1.111-3.993-2.371-5.348-4.143
		c-2.672-3.491-2.406-9.225-1.904-14.798l0.027-0.295c0.401-4.47,1.438-8.813,3.082-12.908c3.317-8.265,8.986-15.095,15.962-19.234
		c7.036-4.174,15.153-5.07,23.003-5.936c1.748-0.193,3.478-0.383,5.165-0.611c18.036-2.432,41.776-5.06,65.477-3.786l-0.376,6.99
		c-23.113-1.245-46.433,1.342-64.165,3.733c-1.743,0.235-3.528,0.432-5.333,0.631c-7.11,0.784-14.463,1.595-20.199,4.998
		c-5.66,3.358-10.29,8.977-13.038,15.821c-1.389,3.461-2.266,7.136-2.606,10.925l-0.027,0.298c-0.185,2.052-0.747,8.298,0.492,9.917
		c0.534,0.698,2.169,1.669,3.363,2.378c0.7,0.415,1.36,0.808,1.967,1.22c2.159,1.465,4.41,2.923,6.69,4.332
		c4.177,2.583,8.533,5.065,13.318,7.59c14.213,7.498,29.372,13.802,44.031,19.898c4.425,1.84,8.85,3.681,13.257,5.555
		c20.955,8.91,43.701,14.135,61.176,17.691c22.329,4.544,44.902,6.593,67.101,6.1c22.591-0.506,41.274-2.239,59.022-9.052
		c17.719-6.802,33.696-17.252,46.205-30.22c23.044-23.891,39.475-59.966,48.836-107.224c4.208-21.242,6.003-42.962,7.355-61.653
		c1.629-22.529,2.185-42.505,1.697-61.072c-1.184-45.037-8.673-83.347-22.894-117.118c-15.577-36.99-36.516-65.912-62.237-85.963
		c-31.301-24.4-67.1-36.873-100.78-35.13c-11.19,0.581-20.909,3.092-29.744,5.72c-4.776,1.42-10.445,2.746-16.285,1.801
		c-4.798-0.775-9.09-2.716-13.241-4.593l-1.133-0.511c-14.396-6.468-31.978-9.035-52.265-7.633
		c-34.276,2.371-67.149,16.604-97.705,42.307c-25.289,21.272-46.334,48.458-62.551,80.805c-10.695,21.331-19.429,44.835-26.7,71.857
		l-6.76-1.819c7.396-27.482,16.293-51.418,27.202-73.176c16.646-33.202,38.281-61.136,64.303-83.024
		c31.714-26.677,65.94-41.458,101.727-43.934c21.449-1.484,40.16,1.286,55.618,8.232l1.148,0.518
		c3.905,1.766,7.594,3.434,11.473,4.061c4.438,0.716,8.952-0.346,13.173-1.601c9.25-2.751,19.454-5.382,31.377-6
		c35.365-1.83,72.817,11.164,105.446,36.6c26.676,20.795,48.338,50.661,64.384,88.767c14.565,34.589,22.233,73.727,23.44,119.651
		c0.494,18.798-0.067,39-1.713,61.76c-1.367,18.9-3.185,40.875-7.47,62.509c-9.626,48.597-26.672,85.85-50.665,110.723
		c-13.214,13.7-30.066,24.729-48.734,31.896c-18.69,7.175-38.053,8.993-61.375,9.515
		C1764.023,731.363,1761.803,731.388,1759.581,731.388z"/>
</g>
<g>
	<path fill="#F1BF96" d="M1520.441,673.285c-13.191,0.001-22.724-4.476-27.458-7.331c-7.248-4.37-11.931-10.033-11.931-14.427
		c0-4.989,5.432-6.913,8.857-7.721c-6.784-4.377-12.565-10.4-14.782-15.014c-2.125-4.42-1.077-7.213,0.175-8.778
		c1.577-1.971,4.714-3.569,14.677-3.019c-5.849-5.135-10.09-11.437-9.846-16.1c0.176-3.366,2.538-5.734,6.165-6.18
		c2.905-0.361,7.034,0.447,12.51,2.448c-3.603-4.539-6.213-9.262-6.106-13.147c0.083-3,1.644-5.416,4.395-6.804
		c6.771-3.417,16.91,1.807,23.639,6.273c2.387-3.554,7.337-5.778,14.763-6.626c26.603-3.041,42.037,36.965,42.682,38.669
		l-6.547,2.478c-0.139-0.366-14.153-36.605-35.341-34.192c-5.318,0.606-8.869,1.995-9.864,3.8c5.881,4.65,8.666,8.335,8.286,10.979
		c-0.211,1.471-1.222,2.693-2.637,3.19c-3.376,1.186-6.944-1.883-8.321-3.257c-1.91-1.905-3.671-4.549-4.335-7.429
		c-3.886-2.832-8.57-5.656-12.891-7.11c-2.792-0.94-5.081-1.13-6.282-0.526c-0.537,0.271-0.541,0.42-0.55,0.748
		c-0.148,5.379,13.035,18.477,19.741,22.655c2.607,1.419,2.811,1.662,3.249,2.616l1.068,2.324l-1.89,1.724
		c-1.46,1.333-2.923,0.992-4.216,0.364l-0.007,0.011c-0.043-0.026-0.088-0.053-0.133-0.081c-0.339-0.171-0.665-0.359-0.976-0.539
		c-0.249-0.143-0.517-0.306-0.802-0.487c-6.979-3.902-23.149-11.799-28.583-11.135c-0.011,0.001-0.022,0.003-0.033,0.004
		c0.345,3.677,9.871,14.798,19.945,17.124c1.11,0.256,1.902,0.439,2.415,0.562c3.626,0.865,3.557,3.282,3.358,4.281
		c-0.664,3.349-3.993,2.795-5.593,2.529c-19.501-3.245-24.905-2.291-26.301-1.762c0.147,0.805,0.942,2.762,3.587,5.753
		c4.75,5.373,12.746,10.908,19.178,12.174c0.72-0.015,1.33-0.019,1.796-0.019c3.861,0,7.196,0,7.196,3.672
		c0,0.567-0.194,3.405-4.034,3.577c-0.507,0.022-1.29,0.038-2.391,0.038c-1.056,0-2.134-0.097-3.228-0.278
		c-5.519,0.194-12.968,0.995-14.916,2.548c0.483,1.392,3.17,5.185,9.663,8.786c7.013,3.89,26.164,11.438,52.466-2.445l3.268,6.19
		C1540.94,671.042,1529.774,673.285,1520.441,673.285z"/>
</g>
<g>
	<path fill="#F1BF96" d="M2860.093,590.209c-2.89,1.983-15.091,2.149-21.372,2.201c-16.897,0.14-33.812,0-50.71,0
		c-53.777,0-107.554,0-161.331,0c-139.822,0-279.643,0-419.465,0c-92.154,0-184.31,0-276.465,0c-3.14,0-6.278,0-9.419,0v-7
		c71.225,0,142.449,0,213.673,0c139.906,0,279.812,0,419.717,0c61.158,0,122.316,0,183.474,0c24.817,0,49.632-0.154,74.449-0.228
		C2813.468,585.18,2869.553,583.71,2860.093,590.209z"/>
</g>
<g>
	<path fill="#F1BF96" d="M1153.14,568.722c-9.97,0-20.463-2.068-31.096-6.256c-33.423-13.163-58.834-43.684-61.795-74.22
		c-2.455-25.314,4.049-42.714,16.911-65.965c1.485-2.685,3.156-6.022,4.925-9.555c2.997-5.984,6.433-12.845,10.354-19.325
		c-2.519-2.459-4.118-5.621-4.767-9.438c-4.041-23.751,31.76-69.389,48.966-91.321c3.486-4.445,6.241-7.956,7.076-9.306
		c6.96-11.256,9.29-25.459,11.757-40.497c2.17-13.231,4.414-26.913,10.098-38.899c0.876-1.847,1.972-4.283,3.241-7.103
		c11.939-26.536,36.779-81.745,65.201-74.592c12.573,3.168,14.728,19.747,16.302,31.852c0.446,3.437,0.868,6.682,1.445,9.042
		c1.626,6.647,3.611,13.404,5.713,20.557c7.815,26.594,15.896,54.094,7.029,80.473l-0.036-0.012
		c-0.674,2.57-2.85,8.748-5.815,13.421c10.833,3.983,37.514,14.392,51.145,24.994c15.884,12.355,30.608,43.53,33.833,55.767
		c11.768-0.158,53.471,4.059,120.568,62.368c0.624,0.561,5.688,5.304,5.314,11.401c-0.147,2.408-1.239,5.92-5.604,8.975
		c-6.569,4.599-10.108,5.083-13.531,5.552c-1.782,0.244-3.465,0.475-5.832,1.362c-0.761,0.286-2.692,1.327-4.928,2.533
		c-16.1,8.683-64.775,34.939-106.526,11.363c-3.645,0.846-8.922,2.416-11.039,3.929c-14.226,14.744-29.493,27.43-45.378,37.707
		c-10.674,6.906-21.261,11.21-32.469,15.767c-3.462,1.408-7.043,2.863-10.611,4.397c-12.816,5.508-19.522,11.844-28.803,20.613
		c-2.989,2.824-6.08,5.745-9.702,8.946C1183.489,563.497,1168.979,568.721,1153.14,568.722z M1099.609,395.083
		c-4.254,6.775-8.033,14.322-11.266,20.777c-1.802,3.599-3.504,6.998-5.059,9.808c-12.179,22.019-18.347,38.405-16.068,61.902
		c2.717,28.024,26.318,56.145,57.393,68.383c24.99,9.841,48.988,6.944,65.839-7.949c3.535-3.124,6.583-6.003,9.53-8.789
		c9.436-8.916,16.889-15.958,30.847-21.957c3.632-1.561,7.245-3.03,10.738-4.45c10.894-4.429,21.183-8.612,31.304-15.159
		c15.507-10.032,30.423-22.443,44.333-36.888c0.114-0.119,0.237-0.229,0.367-0.331c4.24-3.311,14.257-5.445,15.386-5.678
		c0.85-0.176,1.736-0.028,2.484,0.413c38.611,22.77,83.829-1.618,100.851-10.799c2.762-1.489,4.586-2.473,5.793-2.926
		c3.1-1.163,5.353-1.471,7.34-1.743c2.953-0.405,5.285-0.724,10.468-4.352c2.503-1.752,2.598-3.182,2.629-3.651
		c0.154-2.328-2.155-5.004-2.977-5.759c-75.44-65.559-117.842-60.511-118.265-60.457c-0.974,0.139-1.975-0.144-2.734-0.775
		c-0.758-0.631-1.224-1.552-1.266-2.537c-0.293-6.801-16.071-41.85-31.784-54.072c-16.071-12.5-53.44-25.451-53.815-25.581
		c-1.198-0.413-2.08-1.44-2.305-2.687c-0.225-1.247,0.241-2.519,1.219-3.324c2.783-2.292,5.916-10.085,7.236-14.459
		c0.011-0.036,0.022-0.072,0.035-0.108c8.164-24.29,0.399-50.714-7.11-76.269c-2.125-7.232-4.133-14.063-5.797-20.867
		c-0.669-2.736-1.115-6.168-1.587-9.802c-1.388-10.676-3.114-23.962-11.07-25.966c-22.735-5.729-47.704,49.78-57.106,70.676
		c-1.285,2.854-2.394,5.319-3.299,7.23c-5.261,11.094-7.424,24.281-9.515,37.034c-2.469,15.049-5.021,30.61-12.711,43.045
		c-1.04,1.683-3.619,4.97-7.522,9.945c-15.289,19.49-51.093,65.131-47.572,85.827c0.3,1.763,0.899,3.256,1.814,4.503
		c5.085-7.321,10.891-13.511,17.5-16.402c1.772-0.776,3.834,0.033,4.609,1.804s-0.033,3.834-1.804,4.609
		c-5.976,2.614-11.449,9.036-16.32,16.582c-0.084,0.221-0.191,0.436-0.324,0.643
		C1099.918,394.731,1099.771,394.917,1099.609,395.083z"/>
</g>
<g>
	<path fill="#F1BF96" d="M1120.776,495.391c2.145-1.291,4.565-2.109,7.194-2.258c7.534-0.424,17.383,6.757,23.883,10.428
		c8.522,4.818,30.348,25.227,26.34,36.488c-2.279,6.399-17.563,8.852-23.572,10.268c-23.742,5.6-45.289-14.133-43.681-38.268
		C1111.372,505.562,1115.099,498.813,1120.776,495.391z"/>
	<path fill="#F1BF96" d="M1146.475,554.775c-10.526,0-20.794-4.521-28.17-12.406c-7.647-8.174-11.604-19.311-10.855-30.553
		c0.524-7.896,5.046-15.521,11.521-19.423c2.747-1.653,5.708-2.58,8.803-2.755c7.128-0.396,15.32,4.552,21.825,8.508
		c1.429,0.869,2.778,1.69,3.977,2.367c8.223,4.649,32.999,26.427,27.917,40.709c-2.444,6.863-12.943,9.657-23.488,11.931
		c-0.972,0.209-1.846,0.397-2.578,0.57C1152.465,554.421,1149.454,554.775,1146.475,554.775z M1128.619,496.615
		c-0.152,0-0.303,0.004-0.452,0.013c-1.946,0.11-3.826,0.703-5.586,1.762c-4.501,2.713-7.776,8.296-8.147,13.892
		c-0.621,9.317,2.653,18.541,8.982,25.306c6.147,6.57,14.336,10.188,23.059,10.188c2.439,0,4.91-0.291,7.344-0.865
		c0.77-0.181,1.687-0.379,2.709-0.6c4.657-1.004,17.029-3.672,18.369-7.436c3.011-8.462-16.26-27.458-24.766-32.267
		c-1.296-0.732-2.692-1.582-4.171-2.481C1140.458,500.78,1133.61,496.615,1128.619,496.615z"/>
</g>
<g>
	<path fill="#F1BF96" d="M1272.099,474.092c-13.186,0-23.307-8.779-30.082-26.094l-0.835-2.134l1.622-1.619
		c0.617-0.616,15.305-15.085,31.978-15.085c13.144,0,23.438,8.593,30.599,25.54l0.917,2.172l-1.668,1.667
		C1303.995,459.173,1288.87,474.092,1272.099,474.092z M1249.442,447.657c5.554,12.9,13.168,19.435,22.657,19.435
		c10.981,0,21.735-8.337,25.84-11.911c-5.86-12.625-13.642-19.021-23.158-19.021C1263.881,436.16,1253.427,444.204,1249.442,447.657
		z"/>
</g>
<g>
	<path fill="#F1BF96" d="M1194.2,410.188l-2.092-0.695c-18.64-6.194-40.447-19.063-45.753-36.607
		c-2.928-9.681-0.554-19.536,7.057-29.29c3.862-4.95,8.689-7.459,14.348-7.459c6.483,0,13.072,3.249,19.445,6.392
		c2.543,1.254,4.945,2.438,7.327,3.424c10.848,4.49,17.277,11.218,19.106,19.997c4.082,19.584-17.008,41.72-17.908,42.652
		L1194.2,410.188z M1167.76,343.136c-3.487,0-6.293,1.514-8.83,4.765c-6.129,7.857-8.106,15.581-5.875,22.958
		c4.338,14.344,23.295,25.585,39.109,31.249c4.471-5.143,17.404-21.422,14.619-34.741c-1.332-6.369-6.354-11.398-14.928-14.947
		c-2.594-1.073-5.213-2.365-7.746-3.614C1178.456,346.019,1172.61,343.136,1167.76,343.136z"/>
</g>
<g>
	<path fill="#F1BF96" d="M1120.661,567.717c-9.433,0-18.251-3.28-25.934-9.724c-8.975-7.528-16.111-19.259-20.094-33.034
		l6.725-1.944c6.088,21.055,22.491,43.236,48.689,36.459l1.753,6.777C1128.016,567.23,1124.293,567.717,1120.661,567.717z"/>
</g>
<g>
	<path fill="#F1BF96" d="M1265.067,614.112c-0.847,0-1.69-0.08-2.531-0.251c-7.028-1.429-11.916-8.614-14.526-21.355
		c-0.388-1.894,0.833-3.744,2.726-4.131c1.899-0.39,3.744,0.833,4.131,2.726c1.371,6.69,4.056,14.88,9.061,15.9
		c6.759,1.374,17.369-9.809,22.462-17.185c0.648-0.939,1.714-1.503,2.855-1.512c1.131,0.031,2.215,0.54,2.877,1.469
		c4.007,5.627,9.959,12.123,15.572,11.107c7.943-1.437,13.797-16.976,15.221-22.307c0.415-1.553,1.819-2.634,3.443-2.597
		c1.608,0.028,2.99,1.147,3.35,2.714c3.174,13.803,6.895,15.52,7.959,15.717c2.269,0.422,5.401-2.948,6.479-4.549
		c0.226-0.335,0.514-0.638,0.839-0.877c0.031-0.022,3.617-2.698,6.464-6.676c1.125-1.572,3.311-1.936,4.883-0.809
		c1.572,1.125,1.934,3.312,0.809,4.883c-2.872,4.013-6.272,6.877-7.524,7.868c-1.447,1.994-6.579,8.252-13.195,7.047
		c-4.253-0.773-7.691-4.344-10.4-10.844c-3.288,7.216-8.852,15.823-17.073,17.315c-6.459,1.173-13.056-2.246-19.644-10.172
		C1284.533,603.574,1274.746,614.11,1265.067,614.112z"/>
</g>
<g>
	<path fill="#F1BF96" d="M1254.938,591.812l-7-0.019c0.003-1.077,0.282-26.549,18.86-41.175c12.645-9.957,30.43-12.289,52.863-6.935
		c23.796,5.68,37.234,13.443,41.082,23.733c2.237,5.982,0.992,12.54-3.602,18.962l-5.693-4.072c3.22-4.502,4.142-8.687,2.739-12.438
		c-2.013-5.384-9.919-13.115-36.15-19.376c-20.248-4.833-36.028-2.94-46.908,5.626
		C1255.183,568.672,1254.939,591.582,1254.938,591.812z"/>
</g>
<g>
	<path fill="#F1BF96" d="M1360.69,610.619c-3.065,0-7.197-2.053-16.593-16.948c-0.861-1.365-0.767-3.191,0.356-4.351
		c1.119-1.156,2.795-1.448,4.185-0.641c0.002-0.002,0.339,0.126,0.791,0.126c0.389,0,0.99-0.084,1.711-0.813
		c1.153-1.164,3.82-5.332,3.689-18.859c-0.017-1.773,1.295-3.279,3.054-3.505c1.761-0.226,3.409,0.898,3.841,2.619
		c0.083,0.331,2.053,8.205,3.539,16.883c2.839,16.579,1.421,21.124-0.34,23.382C1363.862,609.871,1362.359,610.619,1360.69,610.619z
		 M1353.305,594.936c3.281,4.753,5.321,6.923,6.468,7.909c0.365-2.556-0.013-7.613-0.966-13.88
		c-0.754,1.587-1.652,2.902-2.694,3.954C1355.26,593.779,1354.316,594.455,1353.305,594.936z"/>
</g>
<g>
	<path fill="#F1BF96" d="M1318.711,624.049c-3.36,0-8.283-2.19-19.313-18.418l-7.066-10.395l11.421,5.248c0,0,0,0,0,0
		c0.001,0,1.436,0.608,3.362,0.608c4.141,0,7.412-2.77,9.722-8.233l4.299-10.166l2.345,10.785
		c1.452,6.677,4.351,22.798-0.069,28.285c-1.188,1.474-2.856,2.286-4.698,2.287C1318.713,624.049,1318.712,624.049,1318.711,624.049
		z M1309.61,607.888c5.025,6.634,7.594,8.467,8.625,8.973c0.75-1.941,0.66-7.238-0.124-13.353
		C1315.228,606.325,1312.137,607.475,1309.61,607.888z"/>
</g>
<g>
	<path fill="#F1BF96" d="M1274.052,634.595c-4.379,0-9.361-4.422-19.436-25.994l-6.136-13.136l11.453,8.89
		c0.038,0.028,4.588,3.478,9.074,3.478h0c2.287,0,4.054-0.907,5.563-2.856l5.34-6.897l0.908,8.676
		c0.65,6.21,1.7,21.167-2.573,25.912c-1.118,1.242-2.606,1.926-4.189,1.927C1274.054,634.595,1274.053,634.595,1274.052,634.595z
		 M1265.272,614.403c4.425,8.451,7.004,11.521,8.232,12.627c0.742-2.267,1.041-7.424,0.806-13.226
		c-1.638,0.68-3.416,1.028-5.303,1.028c0,0,0,0-0.001,0C1267.725,614.833,1266.47,614.67,1265.272,614.403z"/>
</g>
<g>
	<path fill="#F1BF96" d="M1242.649,592.037c-0.864,0-1.73-0.318-2.407-0.959c-13.263-12.564-14.082-16.75-14.387-23.067
		l-0.024-0.484c-0.098-1.931,1.387-3.575,3.318-3.673c1.924-0.097,3.575,1.387,3.673,3.318l0.024,0.501
		c0.207,4.264,0.343,7.082,12.21,18.323c1.403,1.33,1.463,3.545,0.134,4.948C1244.502,591.67,1243.577,592.037,1242.649,592.037z"/>
</g>
<g>
	<rect x="1354.295" y="585.41" fill="#F1BF96" width="67.094" height="7"/>
</g>
<g>
	<path fill="#F1BF96" d="M1250.176,592.41c0,0-19.732,0-20.752,0c-75.348,0-150.697,0-226.045,0c-121.226,0-242.452,0-363.678,0
		c-120.48,0-240.96,0-361.441,0c-80.08,0-162.401,3.75-242.213,0.559c-3.869-10.594,70.313-7.559,83.407-7.559
		c96.462,0,192.924,0,289.386,0c125.37,0,250.74,0,376.11,0c108.681,0,217.362,0,326.043,0c46.395,0,92.79,0,139.184,0
		C1250.176,585.41,1250.176,592.41,1250.176,592.41z"/>
</g>
<g>
	<path fill="#F1BF96" d="M1327.134,553.132l-2.973-6.338c1.062-0.498,1.626-1.206,1.887-2.368
		c1.911-8.52-12.778-30.313-22.485-42.048l5.393-4.462c2.794,3.376,27.202,33.406,23.923,48.041
		C1332.145,549.232,1330.159,551.713,1327.134,553.132z"/>
</g>
<g>
	<path fill="#F1BF96" d="M1006.386,587.342l-6.704-2.015c18.086-60.17,61.117-92.276,62.94-93.614l4.141,5.645l-2.07-2.822
		l2.072,2.821C1066.336,497.671,1023.771,529.503,1006.386,587.342z"/>
</g>
<g>
	<path fill="#F1BF96" d="M1206.353,541.805c-0.005-0.005-5.06-4.837-5.06-4.837l2.53,2.418c0,0-2.528-2.412-2.533-2.416
		c0.544,0.519,14.197-20.027,14.856-21.164c3.995-6.89,7.397-14.044,10.597-21.33c1.479-3.366,3.196-12.853,6.263-14.826
		c3.562-2.27,6.932,0.604,6.892,4.357c-0.032,2.994-5.265,9.871-6.533,12.796c-2.431,5.607-4.943,11.155-7.808,16.557
		C1224.748,514.888,1207.284,542.695,1206.353,541.805z"/>
</g>
<g>
	<path fill="#F1BF96" d="M1308.455,474.17c0,0,11.256,10.084,9.084,31.809c0,0,10.09,13.029-66.1,7.602"/>
	<path fill="#F1BF96" d="M1283.77,518.415c-8.658,0-19.353-0.401-32.58-1.343l0.497-6.982c50.603,3.605,60.676-1.265,62.509-2.71
		l-0.279-0.36l0.139-1.388c1.95-19.501-7.549-28.496-7.955-28.87l4.688-5.198c0.506,0.454,12.208,11.219,10.323,33.764
		c0.518,1.437,0.553,3.255-0.377,4.993C1318.746,514.035,1312.374,518.415,1283.77,518.415z"/>
</g>
<path fill="none" stroke="#FFFFFF" stroke-width="8" stroke-miterlimit="10" d="M1012.256,291.267
	c-5.962-2.355-10.498-7.229-13.953-13.348c13.643-15.511,22.583-35.394,24.366-57.568c4.399-54.667-36.352-102.549-91.018-106.948
	c-54.667-4.398-102.55,36.352-106.948,91.019c-4.399,54.667,36.352,102.549,91.019,106.948c22.562,1.815,43.963-4.065,61.634-15.435
	C1004.22,309.171,1031.728,298.964,1012.256,291.267z"/>
<path fill="none" stroke="#FFFFFF" stroke-width="8" stroke-miterlimit="10" d="M2001.718,382.853
	c12.86-3.791,22.524-11.93,29.797-22.235c-30.212-26.967-50.376-61.214-55.087-99.098
	c-11.616-93.395,75.067-173.515,193.611-178.954c118.547-5.436,224.063,65.866,235.678,159.261
	c11.615,93.396-75.069,173.515-193.613,178.954c-48.924,2.244-95.619-8.592-134.422-28.649
	C2019.847,413.691,1959.728,395.246,2001.718,382.853z"/>
<rect x="876.035" y="173.62" fill="none" width="95.304" height="90"/>
<text transform="matrix(1 0 0 1 901.8457 250.1729)" fill="#FFFFFF" stroke="#FFFFFF" stroke-width="3" stroke-miterlimit="10" font-family="'jf-openhuninn-1.1'" font-size="90">?</text>
<rect x="872.914" y="171.033" fill="none" width="95.304" height="90"/>
<text transform="matrix(1 0 0 1 898.728 247.5854)" fill="#F1BF96" stroke="#F1BF96" stroke-miterlimit="10" font-family="'jf-openhuninn-1.1'" font-size="90">?</text>
<rect x="2030.049" y="159.721" fill="none" width="334.163" height="181.863"/>
<text transform="matrix(1 0 0 1 2101.1299 200.5488)"><tspan x="0" y="0" fill="#F1BF96" stroke="#F1BF96" stroke-miterlimit="10" font-family="'jf-openhuninn-1.1'" font-size="48">這是為妳</tspan><tspan x="-24" y="60" fill="#F1BF96" stroke="#F1BF96" stroke-miterlimit="10" font-family="'jf-openhuninn-1.1'" font-size="48">量身打造的</tspan><tspan x="-37.617" y="120" fill="#F1BF96" stroke="#F1BF96" stroke-miterlimit="10" font-family="'jf-openhuninn-1.1'" font-size="48">專屬衣櫃喔 !</tspan></text>
</svg>
