<?xml version="1.0" encoding="utf-8"?>
<!-- Generator: Adobe Illustrator 16.0.0, SVG Export Plug-In . SVG Version: 6.00 Build 0)  -->
<!DOCTYPE svg PUBLIC "-//W3C//DTD SVG 1.1//EN" "http://www.w3.org/Graphics/SVG/1.1/DTD/svg11.dtd">
<svg version="1.1" id="圖層_1" xmlns="http://www.w3.org/2000/svg" xmlns:xlink="http://www.w3.org/1999/xlink" x="0px" y="0px"
	 width="1729.349px" height="422px" viewBox="0 0 1729.349 422" enable-background="new 0 0 1729.349 422" xml:space="preserve">
<g>
	<path fill="none" stroke="#F1BF96" stroke-width="7" stroke-linecap="round" stroke-linejoin="round" stroke-miterlimit="10" d="
		M533.861,229.088c0,0-8.628-22.348-23.01-24.715c-14.38-2.37-96.25-6.005-110.252-18.157c-5.058-4.39-8.529,3.566-9.706,7.343
		c-3.065,9.839-0.782,21.698,2.683,31.077c5.583,15.117,16.468,27.667,29.481,36.943c8.729,6.224,18.897,11.854,29.208,14.896
		c23.902,7.041,45.646,33.313,71.53,13.723"/>
	<path fill="none" stroke="#F1BF96" stroke-width="7" stroke-linecap="round" stroke-linejoin="round" stroke-miterlimit="10" d="
		M669.241,259.191c-0.624-0.529-1.29-0.959-1.999-1.256c-5.741-2.421-11.963,2.919-16.038,6.387
		c-3.696,3.148-11.158,8.357-13.359,12.611c-4.898,9.474,14.589,12.129,21.018,10.871c7.768-1.521,15.912-6.452,16.009-15.188
		C674.918,268.562,672.805,262.224,669.241,259.191z"/>
	<g>
		<path fill="none" stroke="#F1BF96" stroke-width="7" stroke-linecap="round" stroke-linejoin="round" stroke-miterlimit="10" d="
			M685.888,343.388c33.24,6.882,71.962,4.688,94.297-12.262"/>
		<path fill="none" stroke="#F1BF96" stroke-width="7" stroke-linecap="round" stroke-linejoin="round" stroke-miterlimit="10" d="
			M780.208,331.102c-0.004,0.011-0.009,0.019-0.023,0.026c-0.673,1.042-22.67,34.29-45.993,31.311
			c-20.543-2.625-67.131-11.268-99.232,6.203c-32.094,17.476-112.34,23.359-123.7,24.82c-11.365,1.449-67.443-1.607-67.443-1.607"/>
		<g>
			<g id="XMLID_1_">
				<g>
					<path fill="#F1BF96" d="M786.542,286.097c6.651,4.291,20.396,5.564,8.354,27.314c0.402-9.427-8.408-6.933-13.087-13.65
						c-3.098-4.438,2.963-14.469,2.963-14.469l0.121-0.215C785.537,285.453,786.086,285.802,786.542,286.097z"/>
				</g>
				<g>
					
						<path fill="none" stroke="#F1BF96" stroke-width="7" stroke-linecap="round" stroke-linejoin="round" stroke-miterlimit="10" d="
						M794.896,313.411c12.042-21.75-1.703-23.023-8.354-27.314c-0.456-0.295-1.006-0.644-1.649-1.02
						c-9.494-5.726-38.619-20.918-69.125-26.174c-32.558-5.619-42.574-34.448-42.574-34.448
						c-38.699-55.38-66.778-29.206-92.698-42.615c-25.907-13.422-39.222-33.912-39.222-33.912
						c-32.463-43.889-86.154-64.15-87.79-64.753c-4.546-1.689-1.636,45.417-0.872,49.815c2.079,12.122,6.222,24.432,14.321,33.912
						c4.009,4.72,8.233,9.642,13.221,13.356c4.104,3.044,7.522,1.596,5.484,6.691c-1.797,4.505-6.047,7.697-7.589,12.578"/>
					
						<path fill="none" stroke="#F1BF96" stroke-width="7" stroke-linecap="round" stroke-linejoin="round" stroke-miterlimit="10" d="
						M780.213,331.098c4.385-3.325,8.139-7.228,11.089-11.746c1.408-2.132,2.602-4.09,3.594-5.927"/>
					
						<path fill="none" stroke="#F1BF96" stroke-width="7" stroke-linecap="round" stroke-linejoin="round" stroke-miterlimit="10" d="
						M784.772,285.292c0,0-6.061,10.03-2.963,14.469c4.68,6.718,13.49,4.224,13.087,13.65c0,0.014,0,0.014,0,0.014v0.013"/>
				</g>
			</g>
		</g>
	</g>
</g>
<g>
	<path fill="none" stroke="#F1BF96" stroke-width="7" stroke-miterlimit="10" d="M1179.025,295.873
		c-7.544-9.749-22.499-22.119-23.933-42.359c-3.25-26.18-0.88-55.416,4.437-81.17c2.281-11.044,8.639-23.325,6.741-34.701
		c-1.473-8.832-4.458-16.442-4.189-25.892c1.243-43.535,34.904-74.893,77.414-81.034"/>
	<path fill="none" stroke="#F1BF96" stroke-width="7" stroke-miterlimit="10" d="M1166.163,144.572c0,0,38.81-42.901,67.092-32.166
		c6.894,2.613,9.559,15.467,11.606,21.467c4.79,14.023,9.403,28.103,15.976,41.425c7.792,15.802,18.186,30.471,32.097,41.463
		c17.164,13.562,38.39,20.203,60.044,21.606c6.911,0.451,13.85,0.401,20.761-0.028c7.467-0.468,15.056-1.857,22.43-3.096
		c4.87-0.814,9.182-2.185,13.83,0.422c8.443,4.727,10.831,16.782,10.031,25.624c-0.879,9.691-5.743,19.023-15.401,22.447
		c-2.861,1.011-6.149,0.527-8.884,1.524c-2.259,0.822-2.984,2.492-4.248,4.678c-3.499,6.049-6.238,12.5-9.718,18.568
		c-12.678,22.11-28.819,41.025-50.968,54.064c-11.873,6.991-24.774,12.016-37.717,16.641c-13.66,4.878-27.572,10.187-41.994,12.283
		c-19.463,2.832-36.965-3.559-50.184-18.152c-6.531-7.212-10.984-15.304-13.135-24.82c-2.161-9.569-2.422-19.438-4.161-29.078"/>
	<path fill="none" stroke="#F1BF96" stroke-width="7" stroke-miterlimit="10" d="M1200.92,211.984
		c4.047,10.321,5.72,21.971,5.08,32.997c-0.578,9.941-3.325,19.734-8.609,28.22c-8.867,14.219-23.312,18.09-19.679,37.227
		c1.663,8.757,10.087,11.644,18.14,11.893c3.692,0.111,7.107-1.658,10.723-1.897"/>
	<path fill="none" stroke="#F1BF96" stroke-width="7" stroke-miterlimit="10" d="M1163.836,221.841
		c11.454,5.247,27.634,8.954,34.919,21.499c-14.173,10.395-30.844-9.015-33.627-21.418"/>
	<path fill="none" stroke="#F1BF96" stroke-width="7" stroke-miterlimit="10" d="M1305.553,269.754
		c-5.901,2.434-12.343,0.982-17.9-1.687c-9.051-4.342-16.177-10.489-26.541-11.702c-5.039-0.591-23.193-0.256-21.472,9.041"/>
	<path fill="none" stroke="#F1BF96" stroke-width="7" stroke-miterlimit="10" d="M1246.116,259.15
		c4.295,13.341,14.405,21.941,28.703,21.305c10.889-0.485,21.529-5.01,30.89-10.34"/>
	<path fill="none" stroke="#F1BF96" stroke-width="7" stroke-miterlimit="10" d="M1258.789,346.915
		c-12.332,2.299-25.238,3.644-38.138,1.998c-12.539-1.603-21.869-5.666-32.496-10.583"/>
	<path fill="none" stroke="#F1BF96" stroke-width="7" stroke-miterlimit="10" d="M1272.541,227.266c0,0,14.899,0.725,27.642,18.167"
		/>
</g>
<g>
	<g>
		<path fill="#F1BF96" stroke="#F1BF96" stroke-width="4" stroke-miterlimit="10" d="M861.68,208.262
			c1.205,0.608,2.163,2.02,1.521,3.245c-0.792,1.507-6.042,2.398-7.724,3.044c-7.609,2.923-15.356,5.509-23.185,7.846
			c-3.983,1.189-25.532,9.962-26.784,3.624c-0.88-4.453,8.84-4.922,11.73-5.637c5.477-1.357,10.933-2.797,16.359-4.33
			c5.859-1.656,11.757-3.179,17.588-4.928c2.472-0.741,6.847-3.225,9.363-3.168C860.924,207.965,861.313,208.077,861.68,208.262z
			 M806.393,125.335c0.456-0.42,1.197-0.747,2.26-0.904c2.057-0.307,4.432,0,6.511,0c6.412,0,12.823,0,19.234,0
			c7.313,0,14.671-0.234,21.979,0c1.738,0.055,4.667-0.035,5.624,1.824c2.338,4.541-7.365,3.621-9.252,3.621
			c-6.027,0-12.055,0-18.082,0c-6.289,0-12.577,0-18.867,0c-2.247,0-5.283,0.48-7.355-0.42
			C806.071,128.423,805.116,126.511,806.393,125.335z M819.632,190.052c0.201,0.077,0.414,0.172,0.641,0.287
			c2.806,1.407,4.327,10.074,5.162,12.834c1.469,4.851,2.902,9.97,3.366,15.008c-7.435,3.958-8.536-13.528-9.633-16.94
			C818.685,199.745,814.018,187.889,819.632,190.052z M846.123,179.647c0.903-0.83,2.102-1.005,3.729,0.006
			c3.53,2.196-0.306,9.865-1.151,12.559c-0.964,3.068-2.052,6.1-3.252,9.092c-0.632,1.578-1.787,6.443-3.423,7.16
			c-2.828,1.241-3.954-2.147-3.995-3.979c-0.117-5.221,3.379-10.075,4.838-14.903C843.473,187.582,843.918,181.671,846.123,179.647z
			 M886.008,219.635c1.454-0.437,2.645-0.382,3.279,0.517c2.29,3.252-5.942,7.719-7.999,8.984
			c-4.913,3.023-8.974,6.33-13.319,10.048c-1.909,1.635-3.833,3.033-6.516,2.992c-2.131-0.034-7.162-1.489-7.488-3.943
			c-0.465-3.499,7.05-4.638,9.397-5.775c3.52-1.709,7.168-3.349,10.53-5.335C875.52,226.161,881.844,220.887,886.008,219.635z
			 M866.761,123.438c0.439-0.891,2.382-1.09,4.275-1.137c11.355-0.281,22.716-0.248,34.08-0.165c5.791,0.043,12.037,0.034,18,0.027
			c2.114-0.002,5.815-0.985,6.435,1.592c0.478,1.984-1.888,3.873-3.757,3.992c-6.327,0.408-12.664,0.209-18.997,0.099
			c-1.891-0.034-4.338-0.402-6.1,0.491c-4.056,2.054-4.395,11.035-5.389,14.818c5.193,0,10.383,0,15.57,0
			c2.341,0,7.912-1.105,9.779-0.051c2.597,1.469,1.591,7.12,1.729,9.545c0.16,2.816,0.001,5.685,0.001,8.505
			c0,6.849,0,13.699,0,20.548c0,6.35,0,12.701,0,19.052c0,3.772,1.354,12.032-1.354,15.27c-1.485,1.771-4.337,1.106-6.417,1.095
			c-6.609-0.037-13.218,0-19.834,0c-6.152,0-12.308,0.054-18.46,0c-7.444-0.067-6.965-3.283-6.965-9.5c0-5.259,0-10.518,0-15.777
			c0-12.922,0.28-25.874,0-38.794c-0.112-5.167-1.39-8.62,5.211-9.865c1.283-0.243,14.445,0.039,14.464-0.029
			c0.007-0.022,4.186-15.4,4.187-15.405c-0.163,0.6-14.983,0-16.172,0c-3.121,0-6.824,0.483-9.207-1.943
			C866.763,124.71,866.506,123.958,866.761,123.438z M876.432,165.27c1.041,1.135,2.752,0.741,5.266,0.726
			c5.878-0.038,11.758,0,17.639,0c4.169,0,10.92,1.222,14.853-0.207c5.206-1.892,4.855-9.32,3.644-13.473
			c-1.658-5.677-5.53-3.772-10.543-3.717c-4.497,0.049-9.003,0-13.502,0c-4.596,0-9.253,0.229-13.8-0.314
			c-5.015-0.6-4.879,2.564-4.46,6.068c0.335,2.797-0.566,5.657-0.076,8.46C875.661,164.015,875.985,164.784,876.432,165.27z
			 M876.607,188.01c0.381,0.428,0.931,0.739,1.771,0.984c1.852,0.543,5.477-0.16,7.517-0.16c2.722,0,5.446,0,8.168,0
			c4.392,0,21.667,2.467,22.429-2.93c0.266-1.89,0.117-4.224,0.082-6.16c-0.05-2.681-0.151-8.04-4.029-8.31
			c-1.764-0.124-3.593,0.004-5.361,0.004c-4.491,0-8.985,0-13.476,0c-4.331,0-8.69,0.14-13.019,0
			c-3.66-0.118-5.283-0.472-5.456,3.355c-0.146,3.211-0.221,7.125,0.357,10.322C875.835,186.463,876.034,187.369,876.607,188.01z
			 M876.566,210.555c2.096,1.543,5.65,1.612,7.973,1.456c5.325-0.36,10.64-0.336,15.997-0.336c3.549,0,12.003,1.628,14.441-0.714
			c3.25-3.122,1.546-9.724,1.653-13.521c0.121-4.334-4.137-3.16-7.89-3.16c-4.632,0-9.266,0-13.903,0
			c-5.54,0-17.147-2.798-19.243,3.582c-0.764,2.339-1.323,8.812-0.404,10.987C875.489,209.556,875.968,210.116,876.566,210.555z
			 M907.261,220.718c0.208-0.148,0.45-0.263,0.726-0.334c1.938-0.505,7.505,3.436,9.207,4.347c3.712,1.988,7.3,4.277,10.824,6.548
			c1.799,1.16,4.139,2.261,5.028,4.265c0.604,1.358,0.625,3.187-0.737,4.14c-2.192,1.531-3.805-0.721-5.425-1.983
			c-4.066-3.171-8.429-5.988-12.963-8.515c-1.781-0.991-5.426-1.767-6.781-3.203C905.964,224.739,905.724,221.811,907.261,220.718z"
			/>
		<path fill="#F1BF96" stroke="#F1BF96" stroke-width="4" stroke-miterlimit="10" d="M963.73,264.749
			c0.416,0.095,0.875,0.29,1.377,0.602c2.591,1.615,4.441,7.415,5.75,9.972c0.672,1.313,5.37,13.17,6.06,13.17
			c0.002,0,10.16,0,10.16,0c2.319-3.543,4.406-7.307,6.264-11.292c1.534-3.101,2.771-10.005,5.44-12.024
			c1.941-1.469,5.47-1.222,5.885,1.235c0.547,3.26-3.616,9.517-5.065,12.383c-1.669,3.718-3.432,6.951-5.288,9.698
			c4.419,0,8.838,0,13.257,0c2.829,0,10.641-1.767,11.489,2.426c0.703,3.465-4.782,3.492-7.184,3.545
			c-5.782,0.126-11.579,0-17.361,0c-13.106,0-26.208,0-39.312,0c-2.544,0-9.781,0.734-9.804-3.031
			c-0.029-5.113,20.228-2.939,24.427-2.939c-1.682-4.271-3.52-8.483-5.513-12.628c-1.12-2.33-2.749-4.677-3.268-7.223
			C960.595,266.438,961.567,264.25,963.73,264.749z M949.857,253.58c1.776-0.898,5.015-0.149,6.663-0.147
			c11.366,0.001,22.726,0.001,34.091,0c5.568,0,11.133,0,16.7,0c2.42,0,6.322-0.685,7.745,1.772c2.655,4.59-6.259,4.07-8.604,4.07
			c-11.314,0-22.626,0-33.933,0c-6.209,0-13.439,0.998-19.55,0.108c-2.137-0.311-5.805-2.587-3.907-5.152
			C949.269,253.952,949.539,253.74,949.857,253.58z M1004.805,309.331c1.149,1.035,1.899,2.545,2.125,4.631
			c0.593,5.525,0.047,11.371,0.047,16.928c0,6.535,0.543,13.311,0.052,19.818c-0.21,2.785-3.888,6.299-6.226,2.771
			c-1.467-2.215,1.442-4.498-1.012-6.463c-4.073-3.262-13.953-0.5-18.785-0.5c-4.613,0-10.172-0.809-14.649,0.256
			c-5.528,1.316-1.454,5.691-3.263,8.775c-0.642,1.092-2.495,1.807-3.775,1.49c-2.117-0.523-1.7-1.447-1.881-3.16
			c-0.635-5.984,0.002-12.354,0.002-18.375c0-5.615-0.004-11.229,0-16.844c0.001-4.115-2.038-10.941,4.605-10.916
			c5.961,0.021,11.917-0.002,17.876-0.002c5.833,0,11.722,0.131,17.507-0.246C1000.494,307.298,1003.093,307.792,1004.805,309.331z
			 M965.292,339.29c2.653,2.086,7.216,1.963,10.42,1.961c5.12-0.004,23.993,2.734,24.606-5.264c0.24-3.09,0.268-6.287,0.395-9.398
			c0.105-2.609,1.261-13.189-3.301-13.51c-4.126-0.291-8.976,0.506-13.228,0.506c-4.071,0-8.139,0-12.202,0
			c-2.259,0-6.718-1.195-8.141,1.164c-1.083,1.799,0.278,7.449,0.278,9.725c0,3.949-0.5,8.188-0.263,12.078
			C963.93,337.743,964.456,338.634,965.292,339.29z M976.779,235.057c0.535,0.091,1.103,0.315,1.683,0.703
			c2.497,1.67,4.525,4.783,6.395,7.032c1.065,1.283,2.813,2.573,2.366,4.212c-0.634,2.329-4.261,2.889-6.039,1.797
			c-2.599-1.595-5.399-6.247-7.204-8.674C972.14,237.655,974.027,234.588,976.779,235.057z M1068.444,243.559
			c1.207,1.726,1.197,4.32-0.752,8.186c-5.41,10.733-10.972,21.398-16.456,32.096c6.864,5.762,12.152,11.906,15.866,18.459
			c3.708,6.727,5.567,13.102,5.567,19.119c-0.188,10.979-6.868,16.465-20.043,16.465c-2.636,0-17.966-1.457-9.533-6.549
			c2.04-1.234,7.242,0.707,9.539,0.707c8.717-0.002,13.169-3.541,13.356-10.623c0-5.311-1.531-10.842-4.593-16.598
			c-3.961-7.783-16.055-14.585-15.167-23.637c0.71-7.231,7.128-13.599,10.23-19.793c1.429-2.856,8.059-12.271,6.158-14.738
			c-2.344-3.045-13.098-0.772-16.506-0.774c-7.406-0.004-13.363-1.175-14.059,6.298c-0.931,10.01,0.119,20.655,0.119,30.715
			c0,23.074,0,46.148,0,69.217c0,2.037,1.265,5.076-0.449,6.578c-0.557,0.486-5.482,1.02-5.543,0.355
			c-1.609-18.555-0.689-37.482-0.689-56.131c0-13.477,0.067-26.969,0-40.453c-0.03-5.771-2.157-12.839,1.915-17.718
			c4.426-5.304,12.063-4.059,18.212-4.057C1052.312,240.685,1065.084,238.763,1068.444,243.559z"/>
		<g>
			<path fill="#F1BF96" stroke="#F1BF96" stroke-width="4" stroke-miterlimit="10" d="M826.787,179.138
				c-4.655,0-8.811-1.581-12.017-4.573c-3.698-3.451-7.241-10.362-6.769-15.956c0.096-1.125,0.348-2.173,0.75-3.115
				c3.137-7.35,13.287-8.127,19.353-8.591c1.26-0.098,2.64-0.249,4.14-0.412c3.358-0.366,7.162-0.78,10.639-0.78
				c2.633,0,4.708,0.241,6.345,0.738c3.415,1.039,5.547,3.292,6.004,6.346c1.169,7.81-8.717,18.571-13.192,21.444
				C837.117,177.398,831.7,179.138,826.787,179.138z M842.883,150.522c-3.19,0-6.843,0.397-10.067,0.749
				c-1.562,0.17-3.001,0.326-4.209,0.418c-5.325,0.408-13.22,1.013-15.186,5.62c-0.208,0.487-0.341,1.055-0.396,1.687
				c-0.332,3.939,2.51,9.554,5.27,12.127c2.277,2.126,5.134,3.203,8.492,3.203c3.865,0,8.399-1.486,12.439-4.079
				c4.169-2.678,11.741-11.93,11.015-16.773c-0.129-0.865-0.532-1.831-2.542-2.441C846.58,150.693,844.959,150.522,842.883,150.522z
				"/>
		</g>
	</g>
</g>
<ellipse transform="matrix(0.9339 0.3576 -0.3576 0.9339 121.6662 -4.5722)" fill="#F9EACC" cx="73.196" cy="326.676" rx="14.022" ry="13.513"/>
<ellipse transform="matrix(0.335 0.9422 -0.9422 0.335 466.1222 -99.4954)" fill="#F1BF96" cx="303.551" cy="280.488" rx="15.673" ry="15.104"/>
<ellipse transform="matrix(0.335 0.9422 -0.9422 0.335 303.0565 32.5053)" fill="#FFFFFF" cx="128.5" cy="230.956" rx="10.815" ry="10.423"/>
<ellipse transform="matrix(-0.9339 0.3576 -0.3576 -0.9339 3275.5042 53.0177)" fill="#F9EACC" cx="1632.85" cy="329.36" rx="13.975" ry="13.468"/>
<ellipse transform="matrix(-0.3351 0.9422 -0.9422 -0.3351 2268.022 -1024.4215)" fill="#F1BF96" cx="1495.494" cy="288.096" rx="15.673" ry="15.104"/>
<ellipse transform="matrix(-0.3351 0.9422 -0.9422 -0.3351 2321.1042 -1176.1471)" fill="#FFFFFF" cx="1575.57" cy="230.956" rx="10.816" ry="10.423"/>
</svg>
